<svg xmlns="http://www.w3.org/2000/svg" xmlns:xlink="http://www.w3.org/1999/xlink" width="613.756" height="344.564" viewBox="0 0 613.756 344.564">
  <defs>
    <linearGradient id="linear-gradient" y1="0.494" x2="0.995" y2="0.494" gradientUnits="objectBoundingBox">
      <stop offset="0" stop-color="#ff3b73"/>
      <stop offset="1" stop-color="#ff2970"/>
    </linearGradient>
    <linearGradient id="linear-gradient-2" x1="0.493" y1="0.098" x2="0.493" y2="0.936" gradientUnits="objectBoundingBox">
      <stop offset="0" stop-color="#fff"/>
      <stop offset="1" stop-color="#9e9e9e"/>
    </linearGradient>
    <linearGradient id="linear-gradient-3" x1="0.499" y1="0.042" x2="0.499" y2="0.797" xlink:href="#linear-gradient-2"/>
    <linearGradient id="linear-gradient-4" x1="0.498" y1="0.231" x2="0.498" y2="1.071" xlink:href="#linear-gradient-2"/>
    <linearGradient id="linear-gradient-5" x1="0.499" y1="0.231" x2="0.499" y2="1.071" xlink:href="#linear-gradient-2"/>
    <linearGradient id="linear-gradient-6" x1="1.688" y1="1.334" x2="-1.499" y2="-1.29" gradientUnits="objectBoundingBox">
      <stop offset="0" stop-color="#fff"/>
      <stop offset="1" stop-color="#fff"/>
    </linearGradient>
    <linearGradient id="linear-gradient-7" x1="1.758" y1="1.363" x2="-1.723" y2="-1.557" xlink:href="#linear-gradient-6"/>
  </defs>
  <g id="Layer_x0020_1" transform="translate(-3350.519 -8554.29)">
    <path id="Path_991" data-name="Path 991" d="M3964.271,19297.508a8.079,8.079,0,0,0-8.045-8.047H3358.564a8.08,8.08,0,0,0-8.045,8.047h0a8.079,8.079,0,0,0,8.045,8.045H3956.2a8.083,8.083,0,0,0,8.066-8.045h0Z" transform="translate(0 -10406.698)" fill="#3498db"/>
    <path id="Path_992" data-name="Path 992" d="M10109.473,9903.86H9902.044A10.259,10.259,0,0,0,9891.8,9914.1v273.605a10.26,10.26,0,0,0,10.243,10.243h207.45a10.261,10.261,0,0,0,10.244-10.243V9914.125A10.283,10.283,0,0,0,10109.473,9903.86Z" transform="translate(-6341.133 -1308.276)" fill="#fff"/>
    <g id="_2113417973936" transform="translate(3619.725 8554.29)">
      <path id="Path_993" data-name="Path 993" d="M13191.189,8577.467V8563a8.715,8.715,0,0,0-8.707-8.705h-10.265a8.714,8.714,0,0,0-8.706,8.705v14.471Z" transform="translate(-13132.462 -8554.291)" fill="url(#linear-gradient)"/>
      <path id="Path_994" data-name="Path 994" d="M13191.189,8577.467V8563a8.715,8.715,0,0,0-8.707-8.705h-10.265a8.714,8.714,0,0,0-8.706,8.705v14.471Z" transform="translate(-13132.462 -8554.291)" fill="url(#linear-gradient-2)"/>
      <path id="Path_995" data-name="Path 995" d="M13164.2,8562.977v14.49h4.1V8563c0-4.8,2.753-8.706,6.124-8.706h-1.515A8.711,8.711,0,0,0,13164.2,8562.977Z" transform="translate(-13133.129 -8554.291)" fill="url(#linear-gradient-3)"/>
      <path id="Path_996" data-name="Path 996" d="M12238.541,9052.631v-20.254a8.716,8.716,0,0,0-8.707-8.705h-72.387a8.716,8.716,0,0,0-8.707,8.705v20.254Z" transform="translate(-12148.74 -9009.31)" fill="#6c6cff"/>
      <path id="Path_997" data-name="Path 997" d="M12238.541,9052.631v-20.254a8.716,8.716,0,0,0-8.707-8.705h-72.387a8.716,8.716,0,0,0-8.707,8.705v20.254Z" transform="translate(-12148.74 -9009.31)" fill="url(#linear-gradient-4)"/>
      <path id="Path_998" data-name="Path 998" d="M12149.4,9032.377v20.254h13.294v-20.254c0-4.8,2.754-8.705,6.126-8.705h-10.714A8.727,8.727,0,0,0,12149.4,9032.377Z" transform="translate(-12149.381 -9009.31)" fill="url(#linear-gradient-5)"/>
    </g>
    <path id="Path_999" data-name="Path 999" d="M12229.8,8568.674h-22.364V8563a8.715,8.715,0,0,0-8.707-8.706h-10.243a8.715,8.715,0,0,0-8.707,8.706v5.677h-22.365a8.717,8.717,0,0,0-8.707,8.707v20.252h89.779v-20.252A8.683,8.683,0,0,0,12229.8,8568.674Z" transform="translate(-8528.978 -0.001)" fill="#2ecc71"/>
    <path id="Path_1000" data-name="Path 1000" d="M13698.843,8606a1.384,1.384,0,0,0-1.388,1.388v1.578a1.387,1.387,0,1,0,2.774,0v-1.578A1.384,1.384,0,0,0,13698.843,8606Zm-.49-3.97a7.332,7.332,0,0,0-5.422-2.411h-1.493a1.387,1.387,0,1,0,0,2.774h1.493a4.624,4.624,0,0,1,3.373,1.494,1.406,1.406,0,0,0,1.023.447,1.478,1.478,0,0,0,.939-.362A1.38,1.38,0,0,0,13698.353,8602.031Z" transform="translate(-10023.164 -43.943)" fill="url(#linear-gradient-6)"/>
    <path id="Path_1001" data-name="Path 1001" d="M14687.3,9081.212a1.385,1.385,0,0,0-1.387,1.387v.705a1.387,1.387,0,0,0,2.773,0v-.705A1.4,1.4,0,0,0,14687.3,9081.212Zm-5.932-11.5h-2.328a1.387,1.387,0,0,0,0,2.774h2.328a4.549,4.549,0,0,1,4.545,4.545v1.729a1.387,1.387,0,1,0,2.773,0v-1.729A7.318,7.318,0,0,0,14681.366,9069.709Z" transform="translate(-10980.547 -499.648)" fill="url(#linear-gradient-7)"/>
    <g id="_2113417967984" transform="translate(3549.558 8594.496)">
      <path id="Path_1002" data-name="Path 1002" d="M10074.312,10164.6H9885.065a2.219,2.219,0,1,1,0-4.438h189.246a6.927,6.927,0,0,0,6.915-6.915V9879.646a6.913,6.913,0,0,0-6.915-6.914h-207.43a6.927,6.927,0,0,0-6.913,6.914v131.03a2.22,2.22,0,0,1-4.439,0v-131.03a11.362,11.362,0,0,1,11.353-11.354h207.43a11.361,11.361,0,0,1,11.354,11.354v273.584A11.353,11.353,0,0,1,10074.312,10164.6Z" transform="translate(-9855.529 -9868.292)" fill="#34495e"/>
    </g>
    <path id="Path_1003" data-name="Path 1003" d="M5899.561,15539.687a11.171,11.171,0,0,1-11.162-11.16v-82.2a11.172,11.172,0,0,1,11.162-11.162h6.018a10.054,10.054,0,0,0,10.051-10.051v-12.078h86.578v12.078a10.054,10.054,0,0,0,10.051,10.051h6.018a11.171,11.171,0,0,1,11.161,11.162v82.2a11.169,11.169,0,0,1-11.161,11.16Z" transform="translate(-2460.227 -6648.88)" fill="#3498db"/>
    <path id="Path_1004" data-name="Path 1004" d="M6040.2,15675.838a6.734,6.734,0,0,1-6.722-6.721v-82.205a6.722,6.722,0,0,1,6.722-6.723h6.018a14.5,14.5,0,0,0,14.49-14.49v-7.639h77.7v7.641a14.5,14.5,0,0,0,14.49,14.49l6.018,0a6.722,6.722,0,0,1,6.722,6.723v82.205a6.734,6.734,0,0,1-6.722,6.721Z" transform="translate(-2600.868 -6789.471)" fill="#f5f5f5"/>
    <path id="Path_1005" data-name="Path 1005" d="M6186.233,16518.445a2.129,2.129,0,0,1-2.113-2.111v-82.2a2.132,2.132,0,0,1,2.113-2.113h118.7a2.147,2.147,0,0,1,2.113,2.115v82.2a2.133,2.133,0,0,1-2.113,2.115Z" transform="translate(-2746.899 -7636.687)" fill="#34495e"/>
    <g id="_2113417964432" transform="translate(3434.874 8744.562)">
      <path id="Path_1006" data-name="Path 1006" d="M6235.055,14779.111a6.377,6.377,0,0,0-6.359-6.361H6113.8a6.377,6.377,0,0,0-6.36,6.361v26.5a6.375,6.375,0,0,0,6.359,6.359h114.9a6.375,6.375,0,0,0,6.359-6.359Z" transform="translate(-6107.438 -14772.75)" fill="#3498db"/>
      <path id="Path_1008" data-name="Path 1008" d="M6127.653,14772.8H6113.76a6.375,6.375,0,0,0-6.36,6.359v26.5a6.377,6.377,0,0,0,6.36,6.361h13.893c-2.689,0-4.887-2.861-4.887-6.361v-26.5C6122.787,14775.681,6124.964,14772.8,6127.653,14772.8Z" transform="translate(-6107.4 -14772.799)" fill="#3498db"/>
    </g>
    <path id="Path_1009" data-name="Path 1009" d="M6034.17,16993.766h132.14V16938.3H6034.17Z" transform="translate(-2601.537 -8127.479)" fill="rgba(245,245,245,0.9)"/>
    <g id="_2113417990016" transform="translate(3452.202 8821.045)">
      <g id="Group_230" data-name="Group 230" transform="translate(0 0)">
        <path id="Path_1010" data-name="Path 1010" d="M7043.954,17306.1a1.329,1.329,0,0,1-1.323,1.322h-10.478a1.328,1.328,0,0,1-1.323-1.322v-32.354a1.329,1.329,0,0,1,1.323-1.322h10.478a1.33,1.33,0,0,1,1.323,1.322Z" transform="translate(-7019.904 -17272.42)" fill="#2ecc71"/>
        <path id="Path_1011" data-name="Path 1011" d="M6675.063,17643.293a1.33,1.33,0,0,1-1.323-1.324v-10.477a1.329,1.329,0,0,1,1.323-1.32h32.352a1.33,1.33,0,0,1,1.324,1.32v10.477a1.331,1.331,0,0,1-1.324,1.324Z" transform="translate(-6673.74 -17619.225)" fill="#2ecc71"/>
      </g>
      <g id="Group_231" data-name="Group 231" transform="translate(43.044 0)">
        <path id="Path_1012" data-name="Path 1012" d="M8467.5,17276.006a1.329,1.329,0,0,1-1.322-1.322v-.941a1.329,1.329,0,0,1,1.322-1.322h35.49a1.33,1.33,0,0,1,1.322,1.322v.941a1.33,1.33,0,0,1-1.322,1.322Z" transform="translate(-8454.378 -17272.42)" fill="#2ecc71"/>
        <path id="Path_1013" data-name="Path 1013" d="M8081.823,17532.705a1.329,1.329,0,0,1-1.323-1.322v-.939a1.329,1.329,0,0,1,1.323-1.322h47.29a1.33,1.33,0,0,1,1.323,1.322v.941a1.33,1.33,0,0,1-1.323,1.322Z" transform="translate(-8080.5 -17521.268)" fill="#2ecc71"/>
        <path id="Path_1014" data-name="Path 1014" d="M8081.823,17789.3a1.33,1.33,0,0,1-1.323-1.324v-.937a1.329,1.329,0,0,1,1.323-1.32h47.29a1.329,1.329,0,0,1,1.323,1.32v.938a1.33,1.33,0,0,1-1.323,1.324Z" transform="translate(-8080.5 -17770.016)" fill="#2ecc71"/>
        <path id="Path_1015" data-name="Path 1015" d="M8081.823,18046.006a1.33,1.33,0,0,1-1.323-1.324v-.939a1.33,1.33,0,0,1,1.323-1.322h47.29a1.33,1.33,0,0,1,1.323,1.322v.941a1.33,1.33,0,0,1-1.323,1.322Z" transform="translate(-8080.5 -18018.859)" fill="#2ecc71"/>
        <path id="Path_1016" data-name="Path 1016" d="M8081.823,18303.316a1.33,1.33,0,0,1-1.323-1.322v-.941a1.33,1.33,0,0,1,1.323-1.322h47.29a1.331,1.331,0,0,1,1.323,1.326v.938a1.33,1.33,0,0,1-1.323,1.322Z" transform="translate(-8080.5 -18268.299)" fill="#2ecc71"/>
      </g>
    </g>
    <rect id="Rectangle_56" data-name="Rectangle 56" width="122.942" height="10.179" transform="translate(3437.221 8866.286)" fill="#2ecc71"/>
    <path id="Path_1020" data-name="Path 1020" d="M7258.028,14795.112c.832-.619,14.233-22.342,23.858-22.342H7210.78c6.445,0,8.963,1.92,6.744,7.383s-1.558,8.686.789,15.449c2.348,6.744,16.134,60.117,18.545,68.8s4.4,16.965,4.631,18.459c.234,1.473-2.688,3.33-1.11,8.451s3.927,12.057,8.964,12.207,5.719-3.393,5.634-7.555,1.323-10.691,0-13.51-3.329-1.492-3.329-5.568,3.372-46.117,3.905-60.777C7256.086,14801.431,7257.2,14795.731,7258.028,14795.112Z" transform="translate(-3742.146 -6028.208)" fill="none"/>
    <g id="_2113417980848" transform="translate(3580.843 8622.239)">
      <path id="Path_1021" data-name="Path 1021" d="M10905.561,10776.866a1.85,1.85,0,0,0-1.836-1.836h-23.9a1.849,1.849,0,0,0-1.835,1.836v22.706a1.849,1.849,0,0,0,1.835,1.836h23.9a1.85,1.85,0,0,0,1.836-1.836v-22.706Z" transform="translate(-10877.988 -10775.03)" fill="#2ecc71"/>
    </g>
    <g id="_2113417982432" transform="translate(3577.984 8622.237)">
      <path id="Path_1022" data-name="Path 1022" d="M10787.377,10799.5v-22.728a1.849,1.849,0,0,1,1.835-1.835h-2.837a1.849,1.849,0,0,0-1.836,1.835v22.707a1.85,1.85,0,0,0,1.836,1.835h2.837A1.818,1.818,0,0,1,10787.377,10799.5Z" transform="translate(-10784.539 -10774.94)" fill="#37854e"/>
      <path id="Path_1023" data-name="Path 1023" d="M10787.377,10799.5v-22.728a1.849,1.849,0,0,1,1.835-1.835h-2.837a1.849,1.849,0,0,0-1.836,1.835v22.707a1.85,1.85,0,0,0,1.836,1.835h2.837A1.818,1.818,0,0,1,10787.377,10799.5Z" transform="translate(-10784.539 -10774.94)" fill="#37854e"/>
    </g>
    <g id="_2113417978880" transform="translate(3582.826 8620.125)">
      <path id="Path_1024" data-name="Path 1024" d="M10968.518,10705.9l-13.6,13.595-5.761-5.762-6.361,6.337,12.122,12.123,19.932-19.932Z" transform="translate(-10942.8 -10705.9)" fill="#34495e"/>
    </g>
    <g id="_2113417979552" transform="translate(3580.843 8675.697)">
      <path id="Path_1025" data-name="Path 1025" d="M10905.561,12523.965a1.85,1.85,0,0,0-1.836-1.835h-23.9a1.849,1.849,0,0,0-1.835,1.835v22.707a1.848,1.848,0,0,0,1.835,1.835h23.9a1.849,1.849,0,0,0,1.836-1.835v-22.707Z" transform="translate(-10877.988 -12522.13)" fill="#2ecc71"/>
    </g>
    <g id="_2113417976432" transform="translate(3577.984 8675.697)">
      <path id="Path_1026" data-name="Path 1026" d="M10787.377,12546.682v-22.707a1.848,1.848,0,0,1,1.835-1.834h-2.837a1.849,1.849,0,0,0-1.836,1.834v22.707a1.85,1.85,0,0,0,1.836,1.835h2.837A1.823,1.823,0,0,1,10787.377,12546.682Z" transform="translate(-10784.539 -12522.141)" fill="#37854e"/>
      <path id="Path_1027" data-name="Path 1027" d="M10787.377,12546.682v-22.707a1.848,1.848,0,0,1,1.835-1.834h-2.837a1.849,1.849,0,0,0-1.836,1.834v22.707a1.85,1.85,0,0,0,1.836,1.835h2.837A1.823,1.823,0,0,1,10787.377,12546.682Z" transform="translate(-10784.539 -12522.141)" fill="#37854e"/>
    </g>
    <g id="_2113417975472" transform="translate(3582.826 8673.582)">
      <path id="Path_1028" data-name="Path 1028" d="M10968.518,12453l-13.6,13.595-5.761-5.784-6.361,6.358,12.122,12.124,19.932-19.933Z" transform="translate(-10942.8 -12453)" fill="#34495e"/>
    </g>
    <g id="_2113417975232" transform="translate(3580.843 8729.154)">
      <path id="Path_1029" data-name="Path 1029" d="M10905.561,14271.055a1.849,1.849,0,0,0-1.836-1.835h-23.9a1.847,1.847,0,0,0-1.835,1.834v22.706a1.849,1.849,0,0,0,1.835,1.836h23.9a1.849,1.849,0,0,0,1.836-1.836v-22.705Z" transform="translate(-10877.988 -14269.22)" fill="#2ecc71"/>
    </g>
    <g id="_2113417976672" transform="translate(3577.984 8729.155)">
      <path id="Path_1030" data-name="Path 1030" d="M10787.377,14293.783v-22.707a1.849,1.849,0,0,1,1.835-1.836h-2.837a1.85,1.85,0,0,0-1.836,1.836v22.707a1.849,1.849,0,0,0,1.836,1.834h2.837A1.821,1.821,0,0,1,10787.377,14293.783Z" transform="translate(-10784.539 -14269.24)" fill="#37854e"/>
      <path id="Path_1031" data-name="Path 1031" d="M10787.377,14293.783v-22.707a1.849,1.849,0,0,1,1.835-1.836h-2.837a1.85,1.85,0,0,0-1.836,1.836v22.707a1.849,1.849,0,0,0,1.836,1.834h2.837A1.821,1.821,0,0,1,10787.377,14293.783Z" transform="translate(-10784.539 -14269.24)" fill="#37854e"/>
    </g>
    <g id="_2075066690720" transform="translate(3582.826 8727.042)">
      <path id="Path_1032" data-name="Path 1032" d="M10968.518,14200.2l-13.6,13.591-5.761-5.782-6.361,6.361,12.122,12.119,19.932-19.931Z" transform="translate(-10942.8 -14200.2)" fill="#34495e"/>
    </g>
    <g id="_2075066691296" transform="translate(3580.843 8782.612)">
      <path id="Path_1033" data-name="Path 1033" d="M10905.561,16018.165a1.85,1.85,0,0,0-1.836-1.836h-23.9a1.848,1.848,0,0,0-1.835,1.836v22.705a1.848,1.848,0,0,0,1.835,1.836h23.9a1.849,1.849,0,0,0,1.836-1.836v-22.705Z" transform="translate(-10877.988 -16016.329)" fill="#2ecc71"/>
    </g>
    <g id="_2075066691632" transform="translate(3577.984 8782.612)">
      <path id="Path_1034" data-name="Path 1034" d="M10787.377,16040.881v-22.705a1.849,1.849,0,0,1,1.835-1.836h-2.837a1.85,1.85,0,0,0-1.836,1.836v22.705a1.85,1.85,0,0,0,1.836,1.836h2.837A1.849,1.849,0,0,1,10787.377,16040.881Z" transform="translate(-10784.539 -16016.34)" fill="#37854e"/>
      <path id="Path_1035" data-name="Path 1035" d="M10787.377,16040.881v-22.705a1.849,1.849,0,0,1,1.835-1.836h-2.837a1.85,1.85,0,0,0-1.836,1.836v22.705a1.85,1.85,0,0,0,1.836,1.836h2.837A1.849,1.849,0,0,1,10787.377,16040.881Z" transform="translate(-10784.539 -16016.34)" fill="#37854e"/>
    </g>
    <g id="_2075066690384" transform="translate(3582.826 8780.5)">
      <path id="Path_1036" data-name="Path 1036" d="M10968.518,15947.3l-13.6,13.57-5.761-5.762-6.361,6.361,12.122,12.121,19.932-19.932Z" transform="translate(-10942.8 -15947.299)" fill="#34495e"/>
    </g>
    <g id="_2075066687312" transform="translate(3580.843 8836.048)">
      <path id="Path_1037" data-name="Path 1037" d="M10905.561,17764.553a1.848,1.848,0,0,0-1.836-1.834h-23.9a1.846,1.846,0,0,0-1.835,1.834v22.707a1.848,1.848,0,0,0,1.835,1.834l23.9,0a1.85,1.85,0,0,0,1.836-1.836v-22.707Z" transform="translate(-10877.988 -17762.719)" fill="#2ecc71"/>
    </g>
    <g id="_2075066687984" transform="translate(3577.984 8836.07)">
      <path id="Path_1038" data-name="Path 1038" d="M10787.377,17787.98v-22.707a1.848,1.848,0,0,1,1.835-1.834h-2.837a1.848,1.848,0,0,0-1.836,1.834v22.707a1.851,1.851,0,0,0,1.836,1.836h2.837A1.851,1.851,0,0,1,10787.377,17787.98Z" transform="translate(-10784.539 -17763.439)" fill="#37854e"/>
      <path id="Path_1039" data-name="Path 1039" d="M10787.377,17787.98v-22.707a1.848,1.848,0,0,1,1.835-1.834h-2.837a1.848,1.848,0,0,0-1.836,1.834v22.707a1.851,1.851,0,0,0,1.836,1.836h2.837A1.851,1.851,0,0,1,10787.377,17787.98Z" transform="translate(-10784.539 -17763.439)" fill="#37854e"/>
    </g>
    <g id="_2075066709104" transform="translate(3582.826 8833.957)">
      <path id="Path_1040" data-name="Path 1040" d="M10968.518,17694.4l-13.6,13.572-5.761-5.764-6.361,6.363,12.122,12.117,19.932-19.953Z" transform="translate(-10942.8 -17694.4)" fill="#34495e"/>
    </g>
    <g id="_2075066707904" transform="translate(3625.743 8622.238)">
      <path id="Path_1041" data-name="Path 1041" d="M12971.248,10777.188a2.232,2.232,0,0,1-2.22,2.22h-104.59a2.231,2.231,0,0,1-2.219-2.22h0a2.23,2.23,0,0,1,2.219-2.219h104.59a2.231,2.231,0,0,1,2.22,2.219Z" transform="translate(-12846.407 -10774.969)" fill="#ccc"/>
      <path id="Path_1042" data-name="Path 1042" d="M12470.252,11135.688a2.233,2.233,0,0,1-2.22,2.22h-120.4a2.232,2.232,0,0,1-2.22-2.22h0a2.23,2.23,0,0,1,2.22-2.22h120.4a2.232,2.232,0,0,1,2.22,2.22Z" transform="translate(-12345.41 -11122.5)" fill="#ccc"/>
      <path id="Path_1043" data-name="Path 1043" d="M12470.252,11494.89a2.233,2.233,0,0,1-2.22,2.22h-120.4a2.232,2.232,0,0,1-2.22-2.22h0a2.232,2.232,0,0,1,2.22-2.22h120.4a2.233,2.233,0,0,1,2.22,2.22Z" transform="translate(-12345.41 -11470.71)" fill="#ccc"/>
      <path id="Path_1044" data-name="Path 1044" d="M12971.248,12524.289a2.232,2.232,0,0,1-2.22,2.22h-104.59a2.231,2.231,0,0,1-2.219-2.22h0a2.23,2.23,0,0,1,2.219-2.219h104.59a2.217,2.217,0,0,1,2.22,2.219Z" transform="translate(-12846.407 -12468.612)" fill="#ccc"/>
      <path id="Path_1045" data-name="Path 1045" d="M12470.252,12882.789a2.232,2.232,0,0,1-2.22,2.22h-120.4a2.231,2.231,0,0,1-2.22-2.22h0a2.23,2.23,0,0,1,2.22-2.219h120.4a2.231,2.231,0,0,1,2.22,2.219Z" transform="translate(-12345.41 -12816.144)" fill="#ccc"/>
      <path id="Path_1046" data-name="Path 1046" d="M12470.252,13241.979a2.232,2.232,0,0,1-2.22,2.22h-120.4a2.23,2.23,0,0,1-2.22-2.22h0a2.231,2.231,0,0,1,2.22-2.219h120.4a2.218,2.218,0,0,1,2.22,2.219Z" transform="translate(-12345.41 -13164.343)" fill="#ccc"/>
      <path id="Path_1047" data-name="Path 1047" d="M12971.248,14270.688a2.231,2.231,0,0,1-2.22,2.221h-104.59a2.231,2.231,0,0,1-2.219-2.221h0a2.232,2.232,0,0,1,2.219-2.219h104.59a2.232,2.232,0,0,1,2.22,2.219Z" transform="translate(-12846.407 -14161.575)" fill="#ccc"/>
      <path id="Path_1048" data-name="Path 1048" d="M12470.252,14629.888a2.233,2.233,0,0,1-2.22,2.221h-120.4a2.232,2.232,0,0,1-2.22-2.221h0a2.231,2.231,0,0,1,2.22-2.219h120.4a2.233,2.233,0,0,1,2.22,2.219Z" transform="translate(-12345.41 -14509.785)" fill="#ccc"/>
      <path id="Path_1049" data-name="Path 1049" d="M12470.252,14989.089a2.232,2.232,0,0,1-2.22,2.221h-120.4a2.23,2.23,0,0,1-2.22-2.221h0a2.231,2.231,0,0,1,2.22-2.219h120.4a2.219,2.219,0,0,1,2.22,2.219Z" transform="translate(-12345.41 -14857.995)" fill="#ccc"/>
      <path id="Path_1050" data-name="Path 1050" d="M12971.248,16017.881a2.232,2.232,0,0,1-2.22,2.219h-104.59a2.232,2.232,0,0,1-2.219-2.219h0a2.231,2.231,0,0,1,2.219-2.221h104.59a2.232,2.232,0,0,1,2.22,2.221Z" transform="translate(-12846.407 -15855.307)" fill="#ccc"/>
      <path id="Path_1051" data-name="Path 1051" d="M12470.252,16376.988a2.233,2.233,0,0,1-2.22,2.221h-120.4a2.232,2.232,0,0,1-2.22-2.221h0a2.231,2.231,0,0,1,2.22-2.219h120.4a2.233,2.233,0,0,1,2.22,2.219Z" transform="translate(-12345.41 -16203.428)" fill="#ccc"/>
      <path id="Path_1052" data-name="Path 1052" d="M12470.252,16735.49a2.232,2.232,0,0,1-2.22,2.221h-120.4a2.23,2.23,0,0,1-2.22-2.221h0a2.231,2.231,0,0,1,2.22-2.219h120.4a2.233,2.233,0,0,1,2.22,2.219Z" transform="translate(-12345.41 -16550.961)" fill="#ccc"/>
      <path id="Path_1053" data-name="Path 1053" d="M12971.248,17764.99a2.232,2.232,0,0,1-2.22,2.221h-104.59a2.232,2.232,0,0,1-2.219-2.221h0a2.232,2.232,0,0,1,2.219-2.219h104.59a2.232,2.232,0,0,1,2.22,2.219Z" transform="translate(-12846.407 -17548.959)" fill="#ccc"/>
      <path id="Path_1054" data-name="Path 1054" d="M12470.252,18124.09a2.231,2.231,0,0,1-2.22,2.219h-120.4a2.23,2.23,0,0,1-2.22-2.219h0a2.231,2.231,0,0,1,2.22-2.219h120.4a2.217,2.217,0,0,1,2.22,2.219Z" transform="translate(-12345.41 -17897.072)" fill="#ccc"/>
      <path id="Path_1055" data-name="Path 1055" d="M12470.252,18482.59a2.234,2.234,0,0,1-2.22,2.221h-120.4a2.233,2.233,0,0,1-2.22-2.221h0a2.23,2.23,0,0,1,2.22-2.219h120.4a2.231,2.231,0,0,1,2.22,2.219Z" transform="translate(-12345.41 -18244.604)" fill="#ccc"/>
    </g>
    <g id="_2075066694128" transform="translate(3577.983 8660.011)">
      <g id="Group_235" data-name="Group 235" transform="translate(0 0)">
        <g id="Group_232" data-name="Group 232" transform="translate(0 0.001)">
          <rect id="Rectangle_57" data-name="Rectangle 57" width="3.329" height="2.22" fill="#34495e"/>
        </g>
        <g id="Group_233" data-name="Group 233" transform="translate(9.967)">
          <path id="Path_1056" data-name="Path 1056" d="M11262.909,12011.688h-6.637v-2.219h6.637Zm-13.272,0H11243v-2.219h6.638Zm-13.274,0h-6.637v-2.219h6.637Zm-13.273,0h-6.637v-2.219h6.637Zm-13.273,0h-6.638v-2.219h6.638Zm-13.274,0h-6.637v-2.219h6.637Zm-13.274,0h-6.636v-2.219h6.636Zm-13.272,0h-6.638v-2.219h6.638Zm-13.274,0h-6.636v-2.219h6.636Zm-13.294,0h-6.638v-2.219h6.638Zm-13.274,0h-6.638v-2.219h6.638Zm-13.274,0h-6.637v-2.219h6.637Z" transform="translate(-11110.24 -12009.47)" fill="#34495e"/>
        </g>
        <g id="Group_234" data-name="Group 234" transform="translate(169.273 0.001)">
          <rect id="Rectangle_58" data-name="Rectangle 58" width="3.329" height="2.22" fill="#34495e"/>
        </g>
      </g>
      <g id="Group_239" data-name="Group 239" transform="translate(0 53.436)">
        <g id="Group_236" data-name="Group 236" transform="translate(0 0.001)">
          <rect id="Rectangle_59" data-name="Rectangle 59" width="3.329" height="2.22" fill="#34495e"/>
        </g>
        <g id="Group_237" data-name="Group 237" transform="translate(9.967)">
          <path id="Path_1057" data-name="Path 1057" d="M11262.909,13758.088h-6.637v-2.219h6.637Zm-13.272,0H11243v-2.219h6.638Zm-13.274,0h-6.637v-2.219h6.637Zm-13.273,0h-6.637v-2.219h6.637Zm-13.273,0h-6.638v-2.219h6.638Zm-13.274,0h-6.637v-2.219h6.637Zm-13.274,0h-6.636v-2.219h6.636Zm-13.272,0h-6.638v-2.219h6.638Zm-13.274,0h-6.636v-2.219h6.636Zm-13.294,0h-6.638v-2.219h6.638Zm-13.274,0h-6.638v-2.219h6.638Zm-13.274,0h-6.637v-2.219h6.637Z" transform="translate(-11110.24 -13755.869)" fill="#34495e"/>
        </g>
        <g id="Group_238" data-name="Group 238" transform="translate(169.273 0.001)">
          <rect id="Rectangle_60" data-name="Rectangle 60" width="3.329" height="2.22" fill="#34495e"/>
        </g>
      </g>
      <g id="Group_243" data-name="Group 243" transform="translate(0 106.893)">
        <g id="Group_240" data-name="Group 240" transform="translate(0 0.001)">
          <rect id="Rectangle_61" data-name="Rectangle 61" width="3.329" height="2.22" fill="#34495e"/>
        </g>
        <g id="Group_241" data-name="Group 241" transform="translate(9.967)">
          <path id="Path_1058" data-name="Path 1058" d="M11262.909,15505.189h-6.637v-2.219h6.637Zm-13.272,0H11243v-2.219h6.638Zm-13.274,0h-6.637v-2.219h6.637Zm-13.273,0h-6.637v-2.219h6.637Zm-13.273,0h-6.638v-2.219h6.638Zm-13.274,0h-6.637v-2.219h6.637Zm-13.274,0h-6.636v-2.219h6.636Zm-13.272,0h-6.638v-2.219h6.638Zm-13.274,0h-6.636v-2.219h6.636Zm-13.294,0h-6.638v-2.219h6.638Zm-13.274,0h-6.638v-2.219h6.638Zm-13.274,0h-6.637v-2.219h6.637Z" transform="translate(-11110.24 -15502.971)" fill="#34495e"/>
        </g>
        <g id="Group_242" data-name="Group 242" transform="translate(169.273 0.001)">
          <rect id="Rectangle_62" data-name="Rectangle 62" width="3.329" height="2.22" fill="#34495e"/>
        </g>
      </g>
      <g id="Group_247" data-name="Group 247" transform="translate(0 160.351)">
        <g id="Group_244" data-name="Group 244" transform="translate(0 0.001)">
          <rect id="Rectangle_63" data-name="Rectangle 63" width="3.329" height="2.22" fill="#34495e"/>
        </g>
        <g id="Group_245" data-name="Group 245" transform="translate(9.967)">
          <path id="Path_1059" data-name="Path 1059" d="M11262.909,17252.281h-6.637v-2.221h6.637Zm-13.272,0H11243v-2.221h6.638Zm-13.274,0h-6.637v-2.221h6.637Zm-13.273,0h-6.637v-2.221h6.637Zm-13.273,0h-6.638v-2.221h6.638Zm-13.274,0h-6.637v-2.221h6.637Zm-13.274,0h-6.636v-2.221h6.636Zm-13.272,0h-6.638v-2.221h6.638Zm-13.274,0h-6.636v-2.221h6.636Zm-13.294,0h-6.638v-2.221h6.638Zm-13.274,0h-6.638v-2.221h6.638Zm-13.274,0h-6.637v-2.221h6.637Z" transform="translate(-11110.24 -17250.061)" fill="#34495e"/>
        </g>
        <g id="Group_246" data-name="Group 246" transform="translate(169.273 0.001)">
          <rect id="Rectangle_64" data-name="Rectangle 64" width="3.329" height="2.22" fill="#34495e"/>
        </g>
      </g>
    </g>
    <g id="_2075066694752" transform="translate(3798.254 8577.057)">
      <g id="Group_248" data-name="Group 248" transform="translate(15.327 0)">
        <path id="Path_1060" data-name="Path 1060" d="M18489.453,9532.767c-3.137-2.967-7.961,2.2-2.9,11.438s11.205,7.512,9.307,1.28A55.375,55.375,0,0,0,18489.453,9532.767Z" transform="translate(-18484.35 -9524.782)" fill="#0b3d59"/>
        <path id="Path_1061" data-name="Path 1061" d="M18653.471,9315.227c-2.84-5.207-7.471-16.24,9.367-16.816,16.838-.555,24.541,3.841,24.5,18.118-.064,14.276-9.924,16.688-9.924,16.688S18655.453,9318.854,18653.471,9315.227Z" transform="translate(-18645.574 -9298.364)" fill="#0b3d59"/>
      </g>
      <g id="Group_249" data-name="Group 249" transform="translate(0.001 112.611)">
        <path id="Path_1062" data-name="Path 1062" d="M17985.281,19229.672s17.863-4.59,19.164-5.016c1.43-.449,3.715-1.258,3.988,3.457s.449,6.211.449,6.211-20.7.043-22.918-.215C17983.746,19233.875,17982,19232.211,17985.281,19229.672Z" transform="translate(-17983.463 -19033.205)" fill="#0f1b29"/>
        <path id="Path_1063" data-name="Path 1063" d="M18523.3,13001.173s1.045,60.116,1.75,72.152,23.836,14.532,30.215-1.046c6.383-15.558,14.811-37.217,14.875-53.053s-3.754-27.913-15.172-37.26C18543.527,12972.619,18523,12984.976,18523.3,13001.173Z" transform="translate(-18506.775 -12978.74)" fill="#34495e"/>
        <path id="Path_1064" data-name="Path 1064" d="M18586.574,15646.21c-11.906-1.984-18.457,2.8-18.691,9.262-.512,14.748.492,14.832.4,32.672-.039,8.365-.746,23.988-.895,38.414h13.891c5.445-17.756,14.2-51.518,16.262-59.625C18600.148,15656.667,18598.484,15648.216,18586.574,15646.21Z" transform="translate(-18549.523 -15564.151)" fill="#34495e"/>
        <path id="Path_1065" data-name="Path 1065" d="M18574.3,18318.047a3.818,3.818,0,0,0,2.627,1.41c2.26-.043,2.668-1.281,2.668-1.281s1.277-12.676,4.352-20.809c.66-1.707,1.814-5.184,3.287-10.176h-12.57C18574.471,18303.281,18574.3,18318.047,18574.3,18318.047Z" transform="translate(-18556.221 -18124.764)" fill="#f4ad7d"/>
      </g>
      <path id="Path_1066" data-name="Path 1066" d="M17985.24,13175.291s.746-.192,1.92-.491c-.021,4.523,9.879,3.692,14.342,3.692,4.479,0,3.926-2.092,3.926-7,0-4.929,2.24-15.258,5.1-27.187s8.236-39.863,12.824-62.868c4.59-23.027,4.5-28.489,2.84-44.431-1.707-16.411-6.7-15.92-15.088-19.4a34,34,0,0,1-11.012-7.213c-.107-5.569-.172-9.134-.172-9.134-.3-16.2,20.23-28.553,31.67-19.206,11.418,9.347,15.236,21.447,15.174,37.261-.064,15.492-8.152,36.577-14.471,52.07a25.943,25.943,0,0,1-.873,10.243c-2.049,8.109-10.8,41.87-16.262,59.626h-.768c-1.451,4.993-2.625,8.472-3.287,10.179-2.326,6.125-3.605,14.81-4.119,18.737.7.4,1.26,1.408,1.387,3.585.277,4.716.449,6.21.449,6.21s-20.7.043-22.92-.214C17983.7,13179.494,17981.951,13177.829,17985.24,13175.291Z" transform="translate(-17983.418 -12866.213)" fill="#34495e"/>
      <g id="Group_252" data-name="Group 252" transform="translate(3.122 44.198)">
        <g id="Group_251" data-name="Group 251">
          <g id="Group_250" data-name="Group 250">
            <path id="Path_1067" data-name="Path 1067" d="M18113.359,12354.583s-3.457,14.234-3.715,18.631c-.191,3.158,4.207,3.052,6.918,3.03,2.688-.021,8.621-8.152,11.18-16.282C18129.707,12353.773,18114.3,12353.709,18113.359,12354.583Z" transform="translate(-18108.898 -12304.88)" fill="#2a78a8"/>
            <path id="Path_1068" data-name="Path 1068" d="M18106.813,10745.3c-6.809,12.506-21.363,54.248-21.363,54.248s2.242,3.35,9.559,6.338c10.992,4.482,15.879,2.881,15.879,2.881s6.188-10.115,12.484-23.133c3.094-6.359,4.672-13.168-.574-27.572C18119.57,10749.227,18110.93,10737.746,18106.813,10745.3Z" transform="translate(-18085.449 -10742.845)" fill="#2a78a8"/>
          </g>
        </g>
      </g>
      <path id="Path_1069" data-name="Path 1069" d="M18122.84,10758.48c-2.668-7.277-9.006-16.368-13.469-15.109-2.111,3.607-4.117,5.229-4.2,13.957-.127,11.374-2.775,25.8-5.143,35.232-1.6,6.382-2.9,13.21-8.451,10.351-4.437-2.3-4.588-2.753-5.676-4.183-.279.789-.428,1.238-.428,1.238a11.51,11.51,0,0,0,2.369,2.3,82.356,82.356,0,0,0-1.6,9.325c-.193,3.158,4.2,3.052,6.914,3.03,1.559-.021,4.2-2.753,6.658-6.637,7.639,2.3,11.117,1.194,11.117,1.194s6.189-10.114,12.484-23.132C18126.486,10779.671,18128.088,10772.864,18122.84,10758.48Z" transform="translate(-18082.348 -10699.042)" fill="#2a78a8"/>
      <g id="Group_253" data-name="Group 253" transform="translate(44.825 119.174)">
        <path id="Path_1070" data-name="Path 1070" d="M20237.447,19233.375a9.212,9.212,0,0,1,.129-1.215c.553-3.242,2.475-2.582,3.754-2.2.234.066,1.025.277,2.135.578,1.109-.3,1.9-.535,2.135-.6,1.258-.406,3.178-1.109,3.8,2.133a9.288,9.288,0,0,1,.148,1.219c.32,4.629.512,6.078.512,6.078s-2.838.047-6.51.09c-3.67.02-6.506.02-6.506.02S20237.191,19238.008,20237.447,19233.375Z" transform="translate(-20212.914 -19044.883)" fill="#101b29"/>
        <path id="Path_1071" data-name="Path 1071" d="M19448.525,13213.62s10.629,59.027,15.24,74.543c3.369,11.31,26.781,12.015,30.322-4.076,3.521-16.091,4.184-42.617,4.7-81.905C19499.02,13183.146,19445.518,13198.041,19448.525,13213.62Z" transform="translate(-19448.402 -13193.225)" fill="#34495e"/>
        <path id="Path_1072" data-name="Path 1072" d="M19954.973,15766.041c1.344-10.307,1.365-31.8-10.457-32.352s-19.506,7.34-19.334,9.453c.873,10.648,4.867,43.813,8.578,69.207l14.705-.127C19950.98,15797.5,19953.969,15773.83,19954.973,15766.041Z" transform="translate(-19910.592 -15655.929)" fill="#34495e"/>
        <path id="Path_1073" data-name="Path 1073" d="M20242.25,18301.2l-13.529.129c2.58,17.67,4.439,29.961,4.439,29.961s-.088,1.879,2.793,2.049a2.139,2.139,0,0,0,2.436-1.643s-.213-11.588,1.834-19.848C20240.713,18309.8,20241.438,18305.979,20242.25,18301.2Z" transform="translate(-20204.844 -18144.906)" fill="#f4ad7d"/>
      </g>
      <path id="Path_1074" data-name="Path 1074" d="M19498.781,13202.521c.258-19.015-53.266-4.141-50.254,11.438,0,0,1.066,5.868,2.645,14.4h0c1.793,9.6,4.27,22.559,6.66,34.295-1.109-5.463,1.148-4.716,5.992-4.716h18.59c5.379,0,6.23,1.793,6.145,4.545-.4,11.161-1.789,23.025-3.027,35.361-1.855,18.118-2.734,47.162-3.973,60.052a126.43,126.43,0,0,0-.594,20.359c0,3.329.512,3.457,1.578,3.457s.832,1.664.832,3.179c0,1.452-5.016.9-10.648.833-.129,1.771-.191,2.412-.191,2.412s2.836,0,6.5-.022c3.676-.042,6.512-.084,6.512-.084s-.191-1.452-.512-6.083c-.043-.469-.086-.854-.148-1.216-.492-2.562-1.793-2.668-2.945-2.391.043-3.671.3-11.7,1.836-17.862.512-2.027,1.215-5.868,2.047-10.648h.469c2.52-14.7,5.484-38.391,6.508-46.159a71.753,71.753,0,0,0,.258-16.112,15.479,15.479,0,0,0,1.023-3.137C19497.609,13268.335,19498.25,13241.809,19498.781,13202.521Z" transform="translate(-19403.58 -13074.388)" fill="#34495e"/>
      <path id="Path_1075" data-name="Path 1075" d="M18517.289,10629.953c-13.936.47-17.648,1.452-17.969,15.558-1.09,48-7.105,59.156-7.3,84,0,0,6.125,9.026,36.131,8.279,38.967-.96,45.434-5.953,45.434-5.953s-4.674-59.263-15.387-86.579c-5.207-13.294-12.889-15.087-28.361-15.876C18525.42,10629.186,18521.941,10629.782,18517.289,10629.953Z" transform="translate(-18476.459 -10588.615)" fill="#3498db"/>
      <path id="Path_1076" data-name="Path 1076" d="M18558.207,10645.514c-5.207-13.3-12.891-15.09-28.361-15.879-4.418-.234-7.9.385-12.549.533-11.566.406-16.09,1.133-17.479,9.455.684-3.223,3.564-4.48,6.318-4.354,2.771.129-3.158,14.533,10.436,14.768s16.625-9.924,20.637-9.3c4.033.619,3.027,9.625,8.664,20.443s5.271,14.426,5.271,17.287-.834,3.328-5.059,3.328h-13.273c-5.035,0-13.424-.895-13.424,7.705s-.129,18.48-.129,25.779,0,12.719-1.6,10.285-16.881-20.486-19.248-23.346c-2.348-2.838-2.924-6.424-2.326-11.354v-.021c-1.92,14.832-3.947,24.586-4.055,38.883,0,0,6.125,9.027,36.131,8.279,38.965-.959,45.43-5.953,45.43-5.953S18568.9,10672.83,18558.207,10645.514Z" transform="translate(-18476.469 -10588.85)" fill="#3498db"/>
      <path id="Path_1077" data-name="Path 1077" d="M19047.738,10517.048c-.834,5.612-4.268,18.054,8.984,16.88,15.557-1.366,18.311-17.627,17.371-19.42-2.135-4.074-8.26-1.578-12.186-1.174S19048.463,10512.288,19047.738,10517.048Z" transform="translate(-19014.184 -10475.066)" fill="#0b3d59"/>
      <path id="Path_1078" data-name="Path 1078" d="M19185.5,10581.143c-.75-.021-1.52-.043-2.328-.043a75.2,75.2,0,0,0-12.5,1.28,25.659,25.659,0,0,0-4.012.981c-.344,3.649-3.562,13.808,6.422,13.21C19183.359,10595.91,19185.855,10584.6,19185.5,10581.143Z" transform="translate(-19129.707 -10541.851)" fill="#f4ad7d"/>
      <path id="Path_1079" data-name="Path 1079" d="M18677.754,9893.165c-5.229-9.966-7.447-10.991-12.611-18.246-.086-.3-12.848,5.42-17.543.021a134.814,134.814,0,0,0,5.059,14.084c2.645,6.04,5.377,8.985,10.777,4.418.768,3.073,2.645,6.339,3.285,9.049,1.3,5.463,5.379,5.719,7.855,4.737S18682.6,9902.383,18677.754,9893.165Z" transform="translate(-18627.277 -9857.266)" fill="#f4ad7d"/>
      <path id="Path_1080" data-name="Path 1080" d="M19232.527,9877.529c1.3,1.279.811,3.861-1.068,5.781-1.879,1.9-3.562,1.473-4.844.191-1.3-1.279-1.727-2.9.172-4.822C19228.664,9876.781,19231.246,9876.248,19232.527,9877.529Z" transform="translate(-19187.494 -9859.13)" fill="#f4ad7d"/>
    </g>
    <g id="_2075066693600" transform="translate(3863.889 8621.266)">
      <g id="Group_254" data-name="Group 254" transform="translate(47.769 33.929)">
        <path id="Path_1081" data-name="Path 1081" d="M21690.967,11861.125c8.494,11.908,37.689,29.023,45.563,38.69,2.84,3.457,7.021-1.75,3.586-5.464-2.668-2.881-25.416-27.807-32.416-35.02-5.166-5.633-9.518-8.387-12.422-6.851C21691.2,11854.681,21687.811,11856.708,21690.967,11861.125Z" transform="translate(-21689.727 -11852.061)" fill="#f4ad7d"/>
      </g>
      <g id="Group_256" data-name="Group 256" transform="translate(0 0)">
        <g id="Group_255" data-name="Group 255">
          <path id="Path_1082" data-name="Path 1082" d="M21322.041,11490.5s10.99,9.688,13.723,13.146c1.963,2.475-1.707,4.907-3.926,6.444s-11.738-1.729-18.5-6.915C21308.191,11499.208,21320.783,11490.31,21322.041,11490.5Z" transform="translate(-21275.893 -11467.632)" fill="#2a78a8"/>
          <path id="Path_1083" data-name="Path 1083" d="M20136.621,10743.914c13.252,5.186,45.732,25.332,45.732,25.332s.086,4.031-4.2,10.67c-6.445,9.965-11.354,11.459-11.354,11.459s-6.082-2.326-18.717-9.389c-6.189-3.437-10.861-6.467-17.371-22C20127.039,10751.318,20127.336,10740.266,20136.621,10743.914Z" transform="translate(-20128.52 -10743.198)" fill="#2a78a8"/>
        </g>
      </g>
    </g>
    <path id="Path_1084" data-name="Path 1084" d="M20240.127,11245.726c1.2,1.28-.385,1.536-3.115,1.536s-2.965-.64-2.965-2.967-.193-5.206,1.875-3.03h0l-1.387-1.45a35.923,35.923,0,0,0-6.209-5.591c-1.3-1.559-3.842-3.992-6.338-6.34a11.594,11.594,0,0,0,.617-3.243s-1.344-.833-3.582-2.2c1.555.939,2.494,2.134,2.09,3.8-.428,1.665-2.006,1.366-7,1.366h-18.65c-7.9,0-21.129-2.71-25.395-14.6a25.17,25.17,0,0,0,.895,2.412c6.529,15.535,11.2,18.544,17.371,22,12.633,7.041,18.715,9.389,18.715,9.389s3.479-1.066,8.43-7.34c.492.191.961.383,1.41.555a7.9,7.9,0,0,0,.916,1.6c8.494,11.907,37.688,29.022,45.563,38.689,2.838,3.457,7.02-1.75,3.586-5.463C20264.818,11272.528,20249.6,11255.862,20240.127,11245.726Z" transform="translate(-16304.908 -2577.37)" fill="#2a78a8"/>
    <g id="_2112620468128" transform="translate(3844.759 8652.776)">
      <g id="Group_257" data-name="Group 257" transform="translate(31.776)">
        <path id="Path_1085" data-name="Path 1085" d="M21382.537,11838.6h-19.057v5.549h19.057a1.273,1.273,0,0,1,1.258,1.259v22.045h5.549v-22.045A6.812,6.812,0,0,0,21382.537,11838.6Z" transform="translate(-21338.34 -11836.592)" fill="#34495e"/>
        <path id="Path_1087" data-name="Path 1087" d="M20913.043,11781.439a1.1,1.1,0,0,1-1.109,1.109h-27.914a1.1,1.1,0,0,1-1.109-1.109v-7.318a1.1,1.1,0,0,1,1.109-1.111h27.936a1.1,1.1,0,0,1,1.109,1.111v7.318Z" transform="translate(-20872.473 -11773.01)" fill="#2ecc71"/>
        <path id="Path_1090" data-name="Path 1090" d="M20557.035,11838.6h-8.408a6.813,6.813,0,0,0-6.807,6.808v22.045h5.549v-22.045a1.274,1.274,0,0,1,1.258-1.259h8.408a.282.282,0,0,0,.277-.278v-4.993A.282.282,0,0,0,20557.035,11838.6Z" transform="translate(-20541.82 -11836.592)" fill="#34495e"/>
      </g>
      <path id="Path_1091" data-name="Path 1091" d="M19613.852,12405.6h-106.51a4.043,4.043,0,0,0-4.033,4.033v76.1a4.043,4.043,0,0,0,4.033,4.034h106.51a4.042,4.042,0,0,0,4.031-4.034v-76.1A4.042,4.042,0,0,0,19613.852,12405.6Z" transform="translate(-19503.309 -12386.242)" fill="#34495e"/>
      <path id="Path_1092" data-name="Path 1092" d="M20929.736,13181.967a18.907,18.907,0,1,0-18.906,18.907A18.915,18.915,0,0,0,20929.736,13181.967Z" transform="translate(-20849.434 -13120.527)" fill="#fff"/>
      <g id="Group_258" data-name="Group 258" transform="translate(52.221 52.264)">
        <path id="Path_1094" data-name="Path 1094" d="M21403.82,13498.748a.711.711,0,0,1-.705.705h-5.484a.71.71,0,0,1-.7-.705V13481.8a.71.71,0,0,1,.7-.7h5.484a.71.71,0,0,1,.705.7Z" transform="translate(-21391.209 -13481.1)" fill="#2ecc71"/>
        <path id="Path_1095" data-name="Path 1095" d="M21210.7,13674.923a.71.71,0,0,1-.705-.7v-5.484a.711.711,0,0,1,.705-.7h16.945a.711.711,0,0,1,.7.7v5.484a.71.71,0,0,1-.7.7Z" transform="translate(-21209.99 -13662.311)" fill="#2ecc71"/>
      </g>
    </g>
    <g id="_2112620465344" transform="translate(3802.139 8684.36)">
      <g id="Group_259" data-name="Group 259" transform="translate(0 0)">
        <path id="Path_1097" data-name="Path 1097" d="M18111.5,12813.771c7.383,12.635,33.463,31.969,39.287,40.078,2.6,3.629,5.25-4.076,2.176-8.086-2.41-3.117-18.287-24.457-24.625-32.289-4.631-6.082-8.73-9.2-11.738-7.939-2.668,1.131-6,1.963-6.166,3.906A6.3,6.3,0,0,0,18111.5,12813.771Z" transform="translate(-18110.391 -12805.259)" fill="#f4ad7d"/>
      </g>
      <path id="Path_1098" data-name="Path 1098" d="M18128.684,12814.24c-4.633-6.082-8.73-9.2-11.738-7.938-2.668,1.131-6,1.964-6.168,3.905a6.439,6.439,0,0,0,1.086,4.311,32.93,32.93,0,0,0,2.07,3.073c-2.6-3.713,1.754-10.841,5.953-7.555,4.25,3.329,17.844,20.743,23.285,27.4,5.465,6.658,6.637,7.661,6.742,9.3.109,1.623-.129,6.041-1.875,4.29h0a35.594,35.594,0,0,1,3.113,3.586c2.605,3.627,5.25-4.076,2.18-8.089C18150.895,12843.412,18135.02,12822.072,18128.684,12814.24Z" transform="translate(-18110.729 -12806.002)" fill="none"/>
      <g id="Group_260" data-name="Group 260" transform="translate(40.024 32.546)">
        <path id="Path_1099" data-name="Path 1099" d="M19420.123,13873.391c.512-1.771,3.287-5.016,4.609-4.375,2.668,1.324-.937,3.329-1.045,7.79-.064,2.838-4.248,4.161-4.248,4.161A22.291,22.291,0,0,1,19420.123,13873.391Z" transform="translate(-19419.336 -13868.933)" fill="#f4ad7d"/>
        <path id="Path_1100" data-name="Path 1100" d="M19425.521,14025.592c-4.4,1.2-6.146.32-6.488-3.885-.17-1.963-.916-5.889-.426-7.981.789-3.371.15-4.48,8.428-2.432C19431.025,14012.275,19429.512,14024.5,19425.521,14025.592Z" transform="translate(-19418.443 -14005.94)" fill="#f4ad7d"/>
      </g>
      <path id="Path_1101" data-name="Path 1101" d="M19439.641,13876.9c-1.41-.342-2.561-.6-3.5-.77.939-2.262,2.2-3.542.3-4.48-.021,0-.021,0-.043-.021.748.427-.469,2.73-1.215,3.776-.834,1.152-.428.769,1.342,1.131s4.611,1.707,3.244,7.063c-1.217,4.759-3.156,5.677-5.014,5.464s-2.945-.9-3.287-3.351c.086.619.148,1.174.193,1.622.34,4.2,2.09,5.078,6.486,3.884a2.6,2.6,0,0,0,1-.555l1.965-3.223C19442.541,13883.411,19442.371,13877.563,19439.641,13876.9Z" transform="translate(-19391.045 -13839.002)" fill="none"/>
    </g>
    <g id="_2112620465296" transform="translate(3953.318 8689.763)">
      <path id="Path_1102" data-name="Path 1102" d="M23207.027,12986.321c-.512-1.771-3.266-5.037-4.59-4.4-2.689,1.3.918,3.329,1,7.79.041,2.838,4.227,4.183,4.227,4.183A22.283,22.283,0,0,0,23207.027,12986.321Z" transform="translate(-23196.848 -12981.843)" fill="#f4ad7d"/>
      <path id="Path_1103" data-name="Path 1103" d="M23055.068,13138.071c4.395,1.218,6.145.363,6.51-3.861.17-1.964.957-5.89.469-7.982-.77-3.371-.129-4.48-8.408-2.475C23049.6,13124.735,23051.078,13136.962,23055.068,13138.071Z" transform="translate(-23051.248 -13118.442)" fill="#f4ad7d"/>
    </g>
    <path id="Path_1104" data-name="Path 1104" d="M23061.332,12991.611a10.211,10.211,0,0,0-.105-2.624,19.377,19.377,0,0,0-.619-3.436c-.51-1.772-3.266-5.037-4.588-4.4-1.9.918-.641,2.22.277,4.481-.939.171-2.092.405-3.521.769-4.012.96-2.539,13.21,1.43,14.319,4.395,1.216,6.146.362,6.51-3.863.084-.939.3-2.326.447-3.734a.161.161,0,0,0,.064.022A14.016,14.016,0,0,0,23061.332,12991.611Z" transform="translate(-19097.107 -4291.333)" fill="#f4ad7d"/>
    <path id="Path_1105" data-name="Path 1105" d="M23055.063,13000.947c4.4,1.216,6.146.362,6.508-3.862.023-.214.043-.471.088-.747-.217,1.578-.365,3.158-4.014,2.8s-4.246-6.895-4.012-9.37,2.838-3.371,3.691-3.542,1.09-.234.918-.532-.768-1.559-1.2-2.434.32-2.412,1.75-1.217c-.705-.576-1.43-.9-1.922-.66-1.9.917-.639,2.219.279,4.48-.939.171-2.092.405-3.521.768C23049.6,12987.61,23051.074,12999.837,23055.063,13000.947Z" transform="translate(-19097.926 -4291.554)" fill="none"/>
    <g id="_2112620459536" transform="translate(3426.156 8615.708)">
      <g id="Group_262" data-name="Group 262" transform="translate(0 0)">
        <g id="Group_261" data-name="Group 261">
          <path id="Path_1106" data-name="Path 1106" d="M5831.7,11887.349s-7.469,12.612-9.005,16.731c-1.11,2.966,3.137,4.162,5.719,4.929s10.627-5.271,15.451-12.292C5847.552,11891.36,5832.828,11886.794,5831.7,11887.349Z" transform="translate(-5822.51 -11846.737)" fill="#37854e"/>
          <path id="Path_1107" data-name="Path 1107" d="M5950.715,10563.142c-10.158,9.967-35.1,44.409-35.1,44.409s1.174,3.862,7.3,8.856c9.2,7.491,14.341,7.405,14.341,7.405s8.877-7.875,18.716-18.48c4.8-5.187,8.323-11.226,7.511-26.527C5962.986,10569.416,5956.882,10557.1,5950.715,10563.142Z" transform="translate(-5912.761 -10561.539)" fill="#37854e"/>
        </g>
      </g>
    </g>
    <g id="_2112620458672" transform="translate(3381.744 8699.093)">
      <path id="Path_1108" data-name="Path 1108" d="M4374.049,16565.9s17.818,4.824,19.142,5.1c1.473.32,3.862.727,1.771,4.973s-2.667,5.613-2.667,5.613-18.033-10.16-19.846-11.482C4370.656,16568.8,4369.951,16566.475,4374.049,16565.9Z" transform="translate(-4371.027 -16465.563)" fill="#0f1b29"/>
      <path id="Path_1109" data-name="Path 1109" d="M4955.22,15805.628a3.786,3.786,0,0,0,2.22,1.965c2.2.469,2.881-.619,2.881-.619s4.162-12.035,9.027-19.227c1.025-1.516,2.967-4.631,5.527-9.156l-12.25-2.9c-3.841,15.621-7.4,29.939-7.4,29.939Z" transform="translate(-4937.345 -15699.532)" fill="#f4ad7d"/>
      <path id="Path_1110" data-name="Path 1110" d="M5809.018,13289.084s-60.116-.789-72.174-.448c-12.036.342-15.237,23.454.128,30.282,15.365,6.851,31.178,15,43.94,15h36.065C5831.745,13333.921,5825.215,13289.276,5809.018,13289.084Z" transform="translate(-5685.123 -13288.496)" fill="#34495e"/>
      <path id="Path_1111" data-name="Path 1111" d="M5218.4,13289.01c-11.14-4.7-18.609-1.537-20.316,4.715-3.906,14.234-2.945,14.533-7.149,31.883-1.964,8.131-6.274,23.176-9.731,37.176a26.235,26.235,0,0,0,6.658,2.689c5.015,1.129,6.872.533,6.872.533,9.39-16.027,25.694-46.844,29.557-54.27C5229.173,13302.3,5229.515,13293.7,5218.4,13289.01Z" transform="translate(-5156.411 -13286.756)" fill="#34495e"/>
    </g>
    <path id="Path_1112" data-name="Path 1112" d="M4374.156,13390.206s.213.064.619.171c-.725,1.494-1.11,3.415.725,4.332,2.54,1.3,6.658,3.776,11.866,6.4,5.207,2.646,4.886-2.007,5.612-5.527.747-3.521,6.381-17.009,12.676-29.663,6.3-12.634,22.152-49.083,24.777-52.007,2.646-2.9,13.872,6.381,25.523,10.266s13.445-6.51,17.2-15.388c4.4-10.414-1.515-10.883-5.89-14.362-4.333-3.436-9.284-4.438-14.362-4.459,20.06.171,42.126.469,42.126.469,16.2.192,22.728,44.837,7.96,44.837h-36.065c-9.817,0-21.447-4.887-33.291-10.222-6.7,12.612-17.307,32.309-24.2,44.068a4.581,4.581,0,0,1-.918.128c-2.476,4.354-4.353,7.342-5.356,8.835-3.8,5.592-7.149,14.106-8.45,17.628,1.088.49,1.856,1.557.384,4.587-2.091,4.247-2.667,5.613-2.667,5.613s-18.033-10.158-19.847-11.481S4370.059,13390.782,4374.156,13390.206Z" transform="translate(-989.389 -4590.779)" fill="#34495e"/>
    <g id="_2112620456464" transform="translate(3476.989 8675.161)">
      <path id="Path_1113" data-name="Path 1113" d="M8261.2,18354.814a69.123,69.123,0,0,1-2.839-10.8c-.362-1.516-1.109-3.457,2.326-5.8,1.474-1,3.756-1.879,5.656-.875a6.069,6.069,0,0,1,2.667,5.229c-.234,6.061-.576,9.881-.491,11.5C8268.65,18356.883,8262.655,18358.7,8261.2,18354.814Z" transform="translate(-8234.346 -18158.438)" fill="#0f1b29"/>
      <path id="Path_1114" data-name="Path 1114" d="M8108.359,17456.205a3.039,3.039,0,0,0,2.582,1.6,2.834,2.834,0,0,0,2.924-1.408s-2.2-12.549-1.43-21.213c.171-1.834.362-5.484.405-10.691l-12.121,3.393C8104.945,17443.441,8108.359,17456.205,8108.359,17456.205Z" transform="translate(-8081.843 -17273.955)" fill="#f4ad7d"/>
      <path id="Path_1115" data-name="Path 1115" d="M7508.265,12519.039s-20,56.7-23.517,68.225c-3.543,11.523,17.285,21.938,28.682,9.561,11.4-12.356,26.867-29.706,32.437-44.538,5.57-14.81,6.211-27.465-1.216-40.226C7537.181,12499.319,7513.621,12503.758,7508.265,12519.039Z" transform="translate(-7484.331 -12504.611)" fill="#34495e"/>
      <path id="Path_1116" data-name="Path 1116" d="M7498.967,14837.953c-12.015,1.3-16.39,10.2-14.874,16.475,3.479,14.342,3.862,11.631,8.579,28.832,2.219,8.066,5.74,23.3,9.5,37.238a40.7,40.7,0,0,0,7.106-1.045,21.245,21.245,0,0,0,6.295-2.711c.448-18.566-.234-53.436-.447-61.8C7514.865,14844.355,7510.981,14836.652,7498.967,14837.953Z" transform="translate(-7483.804 -14766.419)" fill="#34495e"/>
    </g>
    <path id="Path_1117" data-name="Path 1117" d="M8031.048,12588.445a64.41,64.41,0,0,1-18.908-4.7c4.29-12.291,7.769-22.13,7.769-22.13,2.262-6.444,7.768-10.947,13.936-13.061,5.654.172,11.5.471,16.9.769a14.013,14.013,0,0,1,5.548,5.335c7.448,12.762,6.808,25.4,1.217,40.228-5.229,13.85-19.078,29.94-30.176,42.061.235,10.117.854,42.81.406,60.587,0,0-.257.171-.747.448-.064,5.078-.234,8.643-.405,10.435-.513,5.7.256,13.062.853,17.457a5.191,5.191,0,0,1,.513.214,6.06,6.06,0,0,1,2.667,5.229c-.234,6.061-.575,9.881-.49,11.5.149,2.8-5.848,4.631-7.319.727-.363-.961-.662-1.836-.918-2.668h0c.555,1.877,1.835,3.009,4.5,2.5s1.921-6.679,1.985-11.118-2.006-3.606-2.284-5.612-2.283-8.6-2.561-18.46-.555-28.7-1.387-43.555c-.832-14.833-2.625-30.368-2.5-33.42.149-3.052,11.1-16.923,19.292-28.447C8047.139,12591.327,8041.953,12589.662,8031.048,12588.445Z" transform="translate(-4518.985 -3872.054)" fill="#34495e"/>
    <path id="Path_1118" data-name="Path 1118" d="M6988.331,10271.119c15.792-.362,20.956,10.457,27.572,22.941,10.777,20.359,13.679,44.73,19.4,68.93,0,0,0,20.295-35.233,13.082-35.553-7.277-22.834-12.569-45.5-12.569,0-14.469,1.216-36.749-2.625-74.137C6950.494,10275.153,6983.658,10271.227,6988.331,10271.119Z" transform="translate(-3491.186 -1664.289)" fill="#2ecc71"/>
    <path id="Path_1119" data-name="Path 1119" d="M6987.66,10271.119c15.792-.362,20.956,10.457,27.572,22.941,10.776,20.359,13.679,44.73,19.4,68.93,0,0,0,20.295-35.232,13.082-35.553-7.277-22.834-12.569-45.5-12.569v-1.45a25.215,25.215,0,0,1,14.81,2.176c6.744,3.415,23.219,8.408,37.367,10.179s7.213-22,6.253-32.139-4.567-3.99-6.317-.383-3.671,3.051-7.085,3.329c-3.394.276-6.445-1.814-7.9.9s-4.716,6.872-10.414,6.872-11.866-9.5-13.786-11.523c-1.921-2.007-4.823-.642-7.96-.642s-4.609-.063-4.609,2.37h0c0-3.223-.128-6.681-.192-10.394,0,1.43.533,1.558,3.99,1.558,3.479,0,4.269-.6,3.585-1.942a76.367,76.367,0,0,0-4.866-8.514c-1.9-2.583-3.03.447-3.03.447h0c-.3-8.215-.854-17.541-1.814-28.189a7.554,7.554,0,0,0,1.985,4.673c1.515,1.793,13.23,12.8,17.478,16.688s5.74,5.741,6.7,3.031c.981-2.688,8.643-28.66,10.307-33.548,1.665-4.908-.171-7.213-1.665-3.756s-6.658,9.391-17.478,9.945-8.6-8.132-10.734-9.945-7.768.9-7.064,8.237h0c-.064-.7-.128-1.408-.213-2.112C6949.823,10275.153,6982.986,10271.227,6987.66,10271.119Z" transform="translate(-3490.514 -1664.289)" fill="#2ecc71"/>
    <path id="Path_1120" data-name="Path 1120" d="M7272.768,10196.17c-.47,5.655-3.116,18.288,10.029,16.282,15.451-2.347,17.158-18.758,16.091-20.486-2.39-3.928-8.344-1.046-12.228-.406C7282.776,10192.222,7273.173,10191.367,7272.768,10196.17Z" transform="translate(-3801.722 -1585.603)" fill="#0b3d59"/>
    <path id="Path_1121" data-name="Path 1121" d="M7405.934,10259.5c-.768.021-1.515.042-2.325.106a73.71,73.71,0,0,0-12.4,2.07,29.46,29.46,0,0,0-3.948,1.217c-.105,3.649-2.667,14,7.256,12.762C7404.739,10274.375,7406.511,10262.936,7405.934,10259.5Z" transform="translate(-3912.865 -1653.034)" fill="#f4ad7d"/>
    <g id="_2112620518912" transform="translate(3455.302 8564.397)">
      <path id="Path_1122" data-name="Path 1122" d="M6782.554,8911.275c-6.807-3.905-10.8-21.488-3.948-24.37,15.493-6.488,18.694,2.859,27.145,2.859,4.29,0,9.9,4.2,9.3,14.555-.426,7.405-3.521,11.908-9.24,16.986-2.07,1.835-4.162-7.769-11.46-9.9C6787.035,8909.249,6782.554,8911.275,6782.554,8911.275Z" transform="translate(-6775.047 -8884.613)" fill="#0b3d59"/>
      <path id="Path_1123" data-name="Path 1123" d="M6989.075,9537.295c-4.354-10.371-6.445-11.609-10.948-19.271-.043-.3-12.143,3.8-16.347-1.982a65.247,65.247,0,0,0,2.668,14.938c2.112,6.23,4.566,9.412,10.35,5.355.491,3.137,2.091,6.553,2.5,9.3.811,5.549,4.865,6.168,7.4,5.4C6987.218,9550.27,6993.087,9546.9,6989.075,9537.295Z" transform="translate(-6956.067 -9496.721)" fill="#f4ad7d"/>
      <path id="Path_1124" data-name="Path 1124" d="M7493.526,9597.862c1.174,1.388.47,3.905-1.579,5.656-2.049,1.729-3.671,1.151-4.845-.234s-1.472-3.031.6-4.781C7489.749,9596.774,7492.353,9596.476,7493.526,9597.862Z" transform="translate(-7464.423 -9575.19)" fill="#f4ad7d"/>
    </g>
    <g id="_2112620517856" transform="translate(3486.069 8613.543)">
      <g id="Group_264" data-name="Group 264" transform="translate(0 0)">
        <g id="Group_263" data-name="Group 263">
          <path id="Path_1125" data-name="Path 1125" d="M7833.225,12091.794s-2.476,14.447-2.433,18.843c.021,3.159,4.418,2.754,7.106,2.562s8.045-8.728,10.051-16.987C7849.487,12089.895,7834.1,12090.854,7833.225,12091.794Z" transform="translate(-7829.256 -12042.146)" fill="#37854e"/>
          <path id="Path_1126" data-name="Path 1126" d="M7797.535,10493.713c-5.933,12.933-16.944,54.013-16.944,54.013s2.454,3.2,9.966,5.677c11.268,3.714,16.048,1.813,16.048,1.813s5.484-10.521,10.884-23.923c2.646-6.551,3.777-13.465-2.433-27.464C7811.235,10495.207,7801.141,10485.9,7797.535,10493.713Z" transform="translate(-7780.59 -10490.778)" fill="#37854e"/>
        </g>
      </g>
    </g>
    <path id="Path_1127" data-name="Path 1127" d="M7780.59,10808.341s.619-2.348,1.664-6.083a69.93,69.93,0,0,1,8.516,9.22c3.456,4.716,7.213-1.515,12.634-12.207,5.4-10.67,15.108-30.645,8.92-39.65h0a30.006,30.006,0,0,1,2.731,4.8c6.21,14,5.079,20.893,2.433,27.466-5.42,13.423-10.884,23.923-10.884,23.923s-3.372,1.365-11.161-.427c-2.177,4.032-4.631,6.957-6.188,7.063-2.689.191-7.063.6-7.106-2.561a83.38,83.38,0,0,1,.96-9.412A11.306,11.306,0,0,1,7780.59,10808.341Z" transform="translate(-4294.521 -2137.852)" fill="#37854e"/>
    <g id="_2112620512720" transform="translate(3370.665 8626.89)">
      <path id="Path_1128" data-name="Path 1128" d="M6395.167,12380.5c.6,0,1.494-.149,1.494-.747v-.747c0-.6-.9-1.28-1.494-1.28H6363.9c-.6,0-.555.683-.555,1.28v.747c0,.6-.042.747.555.747Z" transform="translate(-6291.309 -12333.342)" fill="#0b3d59"/>
      <path id="Path_1129" data-name="Path 1129" d="M4083.619,10971.44a2.106,2.106,0,0,1-2.262,2.71H4022.8a3.837,3.837,0,0,1-3.671-2.71l-10.115-41.656a2.152,2.152,0,0,1,2.262-2.774h58.558a3.892,3.892,0,0,1,3.67,2.774Z" transform="translate(-4008.932 -10927.01)" fill="#0b3d59"/>
      <path id="Path_1130" data-name="Path 1130" d="M5923.833,10971.44l-10.116-41.656a3.872,3.872,0,0,0-3.671-2.774h-2.816a3.973,3.973,0,0,1,3.67,2.858l10.116,41.594a2.107,2.107,0,0,1-2.263,2.71h2.817A2.1,2.1,0,0,0,5923.833,10971.44Z" transform="translate(-5849.147 -10927.01)" fill="#fff"/>
      <g id="Group_265" data-name="Group 265" transform="translate(28.744 15.621)">
        <path id="Path_1131" data-name="Path 1131" d="M4948.607,11446.217c-1.067-4.8,1.345-8.686,5.378-8.686s8.173,3.884,9.24,8.686c1.067,4.78-1.344,8.664-5.378,8.664S4949.674,11451,4948.607,11446.217Z" transform="translate(-4948.354 -11437.531)" fill="#2ecc71"/>
        <path id="Path_1132" data-name="Path 1132" d="M5083.963,11446.227c-.9-4.056-4.012-7.47-7.383-8.409a5.66,5.66,0,0,1,1.729-.277c4.033,0,8.173,3.884,9.24,8.687,1.067,4.779-1.345,8.664-5.378,8.664a6.661,6.661,0,0,1-1.835-.278C5083.259,11453.694,5084.86,11450.28,5083.963,11446.227Z" transform="translate(-5072.657 -11437.54)" fill="#2ecc71"/>
      </g>
      <path id="Path_1133" data-name="Path 1133" d="M5125.206,12311.3c0,.939,3.052-.385,3.606,1.3,1.43,5.164-14.149,4.546-16.262,4.162-3.415-.619-2.859-2.625-2.859-5.4C5109.67,12307.228,5125.206,12305.67,5125.206,12311.3Z" transform="translate(-5075.978 -12265.401)" fill="#f4ad7d"/>
      <path id="Path_1134" data-name="Path 1134" d="M4984.688,12433.806c-1.813-.427-4.268-3.095-3.222-4.055,2.177-2.049,1.963.6,6.423.469,2.838-.084,4.4,4.291,4.4,4.291A30.74,30.74,0,0,1,4984.688,12433.806Z" transform="translate(-4951.466 -12383.014)" fill="#f4ad7d"/>
    </g>
    <path id="Path_1135" data-name="Path 1135" d="M5460.051,12473.718l-18.011.447,6.637-4.353s5.356-.043,8.515-.043S5460.051,12473.718,5460.051,12473.718Z" transform="translate(-2027.525 -3795.674)" fill="#f4ad7d"/>
    <g id="_2112620507392" transform="translate(3440.864 8622.721)">
      <path id="Path_1136" data-name="Path 1136" d="M6453.975,10792.835c-1.473-1.132-6.231-2.839-7.17-1.708-1.878,2.326,2.625,2.859,4.567,6.872,1.238,2.561,6.359-.491,6.359-.491A14.836,14.836,0,0,0,6453.975,10792.835Z" transform="translate(-6441.975 -10790.756)" fill="#f4ad7d"/>
      <g id="Group_266" data-name="Group 266" transform="translate(0 3.201)">
        <path id="Path_1137" data-name="Path 1137" d="M6720.534,11105.251c-6.53-13.082-36.407-39.139-38.626-45.669-1.451-4.226-8.387-.641-5.569,3.564,2.2,3.265,21.575,33.057,27.379,41.271,4.225,6.382,8.109,9.753,11.2,8.686C6719.317,11111.589,6722.966,11110.116,6720.534,11105.251Z" transform="translate(-6664.274 -11052.723)" fill="#f4ad7d"/>
        <path id="Path_1138" data-name="Path 1138" d="M6309.151,10910.544c.79-5.122,7.256-1.558,9.881-2.325,4.994-1.473.875-7.832-.32-9.625-1.942-2.859-11.161-6.658-15.259,2.774C6301.811,10905.166,6308.4,10915.518,6309.151,10910.544Z" transform="translate(-6303.191 -10895.363)" fill="#f4ad7d"/>
      </g>
    </g>
    <path id="Path_1139" data-name="Path 1139" d="M6303.246,10800.337c1.473-3.394,3.628-5.079,5.847-5.7-1.387-1.108-2.326-1.835-1.28-3.138.917-1.151,5.7.577,7.17,1.708a15.064,15.064,0,0,1,3.778,4.674.07.07,0,0,0-.043.021,20.709,20.709,0,0,1,1.323,2.263,3.387,3.387,0,0,1,.577,1.024c2.219,6.53,32.1,32.565,38.626,45.668,2.219,4.439-.641,6.062-4.5,7.47.363-.128,3.009-1.878,2.454-4.46-.555-2.561-6.211-10.009-12.975-17.691-6.744-7.683-20.85-24.008-23.816-28.02-2.967-4.034-4.7-8.942-6.338-10.457-1.644-1.494-5.292-2.455-5.57-1.793-.277.641.255,1.323,2.027,2.412,1.771,1.109-.853,2.475-4.012,4.5-3.158,2.006-2.988,5.89-1.58,8.984C6303.523,10805.395,6302.457,10802.13,6303.246,10800.337Z" transform="translate(-2862.119 -2168.389)" fill="#f4ad7d"/>
  </g>
</svg>
