<svg xmlns="http://www.w3.org/2000/svg" xmlns:xlink="http://www.w3.org/1999/xlink" width="658.334" height="400.712" viewBox="0 0 658.334 400.712">
  <defs>
    <linearGradient id="linear-gradient" x1="0.778" y1="0.098" x2="0.295" y2="0.778" gradientUnits="objectBoundingBox">
      <stop offset="0" stop-color="#dbdbdb"/>
      <stop offset="0.471" stop-color="#d3d3d3"/>
      <stop offset="0.949" stop-color="#c6c6c6"/>
      <stop offset="1" stop-color="#c6c6c6"/>
    </linearGradient>
    <linearGradient id="linear-gradient-2" x1="27.029" y1="17.213" x2="26.193" y2="18.284" gradientUnits="objectBoundingBox">
      <stop offset="0" stop-color="#0f1e2d"/>
      <stop offset="1" stop-color="#082947"/>
    </linearGradient>
    <linearGradient id="linear-gradient-3" x1="23.924" y1="30.161" x2="22.35" y2="31.197" xlink:href="#linear-gradient-2"/>
    <linearGradient id="linear-gradient-4" x1="10.069" y1="22.908" x2="8.201" y2="21.04" gradientUnits="objectBoundingBox">
      <stop offset="0" stop-color="#9a9a9a"/>
      <stop offset="0.161" stop-color="#a2a2a2"/>
      <stop offset="0.4" stop-color="#b8b8b8"/>
      <stop offset="0.69" stop-color="#dbdbdb"/>
      <stop offset="0.949" stop-color="#fff"/>
      <stop offset="1" stop-color="#fff"/>
    </linearGradient>
    <linearGradient id="linear-gradient-5" x1="9.021" y1="20.246" x2="8.132" y2="19.357" xlink:href="#linear-gradient-4"/>
    <linearGradient id="linear-gradient-6" x1="10.077" y1="22.908" x2="8.209" y2="21.04" xlink:href="#linear-gradient-4"/>
    <linearGradient id="linear-gradient-7" x1="9.026" y1="20.246" x2="8.138" y2="19.357" xlink:href="#linear-gradient-4"/>
    <linearGradient id="linear-gradient-8" x1="10.068" y1="22.893" x2="8.215" y2="21.04" xlink:href="#linear-gradient-4"/>
    <linearGradient id="linear-gradient-9" x1="9.033" y1="20.246" x2="8.145" y2="19.357" xlink:href="#linear-gradient-4"/>
    <linearGradient id="linear-gradient-10" x1="10.062" y1="22.908" x2="8.208" y2="21.055" xlink:href="#linear-gradient-4"/>
    <linearGradient id="linear-gradient-11" x1="9.014" y1="20.246" x2="8.125" y2="19.357" xlink:href="#linear-gradient-4"/>
    <linearGradient id="linear-gradient-12" x1="10.068" y1="22.908" x2="8.199" y2="21.04" xlink:href="#linear-gradient-4"/>
    <linearGradient id="linear-gradient-13" x1="9.019" y1="20.246" x2="8.131" y2="19.357" xlink:href="#linear-gradient-4"/>
    <radialGradient id="radial-gradient" cx="1217.696" cy="-2200.552" r="0.559" gradientTransform="matrix(0.707, -0.707, 0.707, 0.707, 1277.577, 151.798)" gradientUnits="objectBoundingBox">
      <stop offset="0" stop-color="#9a9a9a"/>
      <stop offset="0.2" stop-color="#9e9e9e"/>
      <stop offset="0.38" stop-color="#a9a9a9"/>
      <stop offset="0.561" stop-color="#bdbdbd"/>
      <stop offset="0.749" stop-color="#d8d8d8"/>
      <stop offset="0.929" stop-color="#fafafa"/>
      <stop offset="0.949" stop-color="#fff"/>
      <stop offset="1" stop-color="#fff"/>
    </radialGradient>
    <linearGradient id="linear-gradient-14" x1="10.069" y1="22.911" x2="8.201" y2="21.042" xlink:href="#linear-gradient-4"/>
    <linearGradient id="linear-gradient-15" x1="9.021" y1="20.249" x2="8.132" y2="19.36" xlink:href="#linear-gradient-4"/>
    <radialGradient id="radial-gradient-2" cx="1174.978" cy="-2298.072" r="0.559" gradientTransform="matrix(0.707, -0.707, 0.707, 0.707, 1315.577, 112.759)" xlink:href="#radial-gradient"/>
    <linearGradient id="linear-gradient-16" x1="10.077" y1="22.911" x2="8.209" y2="21.042" xlink:href="#linear-gradient-4"/>
    <linearGradient id="linear-gradient-17" x1="9.026" y1="20.249" x2="8.138" y2="19.36" xlink:href="#linear-gradient-4"/>
    <linearGradient id="linear-gradient-18" x1="10.068" y1="22.896" x2="8.215" y2="21.042" xlink:href="#linear-gradient-4"/>
    <linearGradient id="linear-gradient-19" x1="9.033" y1="20.249" x2="8.145" y2="19.36" xlink:href="#linear-gradient-4"/>
    <linearGradient id="linear-gradient-20" x1="10.077" y1="22.896" x2="8.208" y2="21.027" xlink:href="#linear-gradient-4"/>
    <linearGradient id="linear-gradient-21" x1="9.027" y1="20.236" x2="8.139" y2="19.347" xlink:href="#linear-gradient-4"/>
    <linearGradient id="linear-gradient-22" x1="10.068" y1="22.911" x2="8.199" y2="21.042" xlink:href="#linear-gradient-4"/>
    <linearGradient id="linear-gradient-23" x1="9.019" y1="20.249" x2="8.131" y2="19.36" xlink:href="#linear-gradient-4"/>
    <linearGradient id="linear-gradient-24" x1="10.068" y1="22.895" x2="8.214" y2="21.041" xlink:href="#linear-gradient-4"/>
    <linearGradient id="linear-gradient-25" x1="9.033" y1="20.247" x2="8.144" y2="19.359" xlink:href="#linear-gradient-4"/>
    <linearGradient id="linear-gradient-26" x1="10.069" y1="22.895" x2="8.216" y2="21.041" xlink:href="#linear-gradient-4"/>
    <linearGradient id="linear-gradient-27" x1="9.034" y1="20.247" x2="8.145" y2="19.359" xlink:href="#linear-gradient-4"/>
    <linearGradient id="linear-gradient-28" x1="4.132" y1="0.5" x2="-0.335" y2="0.5" xlink:href="#linear-gradient-4"/>
    <linearGradient id="linear-gradient-29" x1="0.452" y1="0.201" x2="0.909" y2="2.67" xlink:href="#linear-gradient-2"/>
    <linearGradient id="linear-gradient-30" x1="0.098" y1="-0.126" x2="1.403" y2="1.035" xlink:href="#linear-gradient-2"/>
    <linearGradient id="linear-gradient-31" x1="0.279" y1="0.283" x2="0.602" y2="0.607" xlink:href="#linear-gradient"/>
    <linearGradient id="linear-gradient-32" x1="0.407" y1="0.302" x2="0.534" y2="1.266" xlink:href="#linear-gradient"/>
    <linearGradient id="linear-gradient-33" x1="0.466" y1="0.298" x2="0.674" y2="1.288" xlink:href="#linear-gradient"/>
    <linearGradient id="linear-gradient-34" x1="0.666" y1="0.121" x2="0.383" y2="0.785" xlink:href="#linear-gradient"/>
    <linearGradient id="linear-gradient-35" x1="30.652" y1="2.803" x2="31.186" y2="1.672" gradientUnits="objectBoundingBox">
      <stop offset="0" stop-color="#a7a6a6"/>
      <stop offset="0.502" stop-color="#bebebe"/>
      <stop offset="0.988" stop-color="#d0d1d1"/>
      <stop offset="1" stop-color="#d0d1d1"/>
    </linearGradient>
    <linearGradient id="linear-gradient-36" x1="-2022.618" y1="-61.602" x2="-2022.628" y2="-55.12" xlink:href="#linear-gradient-35"/>
    <linearGradient id="linear-gradient-37" x1="24.605" y1="-22.737" x2="24.558" y2="-21.582" xlink:href="#linear-gradient-2"/>
    <linearGradient id="linear-gradient-38" x1="26.764" y1="26.477" x2="25.191" y2="27.512" xlink:href="#linear-gradient-2"/>
    <linearGradient id="linear-gradient-39" x1="0.304" y1="0.288" x2="0.504" y2="0.767" xlink:href="#linear-gradient"/>
    <linearGradient id="linear-gradient-40" x1="0.119" y1="0.331" x2="0.788" y2="0.806" xlink:href="#linear-gradient"/>
    <linearGradient id="linear-gradient-41" x1="0.631" y1="0.356" x2="0.352" y2="0.664" xlink:href="#linear-gradient"/>
  </defs>
  <g id="Layer_x0020_1" transform="translate(-3195.588 -6784.021)">
    <path id="Path_1140" data-name="Path 1140" d="M3853.923,19188.385a6.605,6.605,0,0,0-6.585-6.586H3202.174a6.605,6.605,0,0,0-6.586,6.586v.42a6.606,6.606,0,0,0,6.586,6.586h645.163a6.6,6.6,0,0,0,6.585-6.586Z" transform="translate(0 -12010.658)" fill="#34495e"/>
    <g id="_2111097463328" transform="translate(3273.584 7051.347)">
      <g id="Group_267" data-name="Group 267" transform="translate(0 4.643)">
        <path id="Path_1141" data-name="Path 1141" d="M5893.936,15537.358c.316-.658,1.449-2.5,1.871-2.266,1.211.738.316,3.662-.4,4.979a.843.843,0,0,1-1.317.369A4.1,4.1,0,0,1,5893.936,15537.358Z" transform="translate(-5887.428 -15533.79)" fill="#ee9052"/>
        <path id="Path_1142" data-name="Path 1142" d="M5712.491,15522.55c-5.505-4.24-12.012-17.041-14.224-20.256a10.482,10.482,0,0,1-4.373-3.635c-1.475-2.029,1.132-5.822,4.294-4.295.843.4,4.241,2.5,2.766,6.35.263,1.844,10.51,11.959,13.8,15.41,1.5,1.553,3.556,4.057,2.74,5.348C5716.205,15523.552,5714.52,15524.132,5712.491,15522.55Z" transform="translate(-5693.471 -15494.011)" fill="#ee9052"/>
      </g>
      <g id="Group_269" data-name="Group 269" transform="translate(18.23 0)">
        <g id="Group_268" data-name="Group 268">
          <path id="Path_1143" data-name="Path 1143" d="M6336.42,16075.232s-5.216,4.582-7.007,5.662c-1.291.764-2.213-1.107-2.792-2.238s1.527-5.428,4.372-8.3C6333.154,16068.2,6336.6,16074.652,6336.42,16075.232Z" transform="translate(-6324.988 -16047.293)" fill="#ee9052"/>
          <path id="Path_1144" data-name="Path 1144" d="M6304.1,15358.242c-3.319,4.715-17.307,18.439-17.307,18.439s-1.9-.211-4.768-2.607c-4.293-3.635-4.715-6.031-4.715-6.031s7.165-10.959,12.7-17.861c4.373-5.451,11.09-6.4,14.831-2.449C6307.893,15351,6305.97,15355.609,6304.1,15358.242Z" transform="translate(-6277.31 -15345.316)" fill="url(#linear-gradient)"/>
        </g>
      </g>
    </g>
    <g id="_2111097459392" transform="translate(3409.168 7101.492)">
      <g id="Group_270" data-name="Group 270" transform="translate(0)">
        <rect id="Rectangle_65" data-name="Rectangle 65" width="41.093" height="11.011" transform="translate(5.585 10.908)" fill="#37854e"/>
        <path id="Path_1145" data-name="Path 1145" d="M10130.573,17470.713a3.963,3.963,0,0,0-3.95-3.951h-41.541a3.981,3.981,0,0,0-3.952,3.951v52.447a3.961,3.961,0,0,0,3.952,3.951h41.541a3.962,3.962,0,0,0,3.95-3.951Z" transform="translate(-10079.709 -17450.666)" fill="#2ecc71"/>
        <path id="Path_1146" data-name="Path 1146" d="M10087.919,16955.215a3.964,3.964,0,0,0-3.951-3.953h-44.387a3.963,3.963,0,0,0-3.95,3.953v5.453a3.962,3.962,0,0,0,3.95,3.949h44.387a3.961,3.961,0,0,0,3.951-3.949Z" transform="translate(-10035.631 -16951.262)" fill="#34495e"/>
        <rect id="Rectangle_66" data-name="Rectangle 66" width="49.443" height="32.137" transform="translate(1.423 30.189)" fill="#ccc"/>
      </g>
    </g>
    <g id="_2111097458816" transform="translate(3358.434 6881.25)">
      <path id="Path_1147" data-name="Path 1147" d="M8490.347,9943.73a10.579,10.579,0,0,0,10.563-10.562v-24.734a10.581,10.581,0,0,0-10.563-10.564h-68.963a10.579,10.579,0,0,0-10.563,10.564V9933.2a10.578,10.578,0,0,0,10.563,10.563h68.963Z" transform="translate(-8410.82 -9897.869)" fill="#3498db"/>
      <path id="Path_1148" data-name="Path 1148" d="M15462.166,9943.73a10.579,10.579,0,0,1-10.564-10.562v-24.734a10.58,10.58,0,0,1,10.564-10.564h68.988a10.579,10.579,0,0,1,10.563,10.564V9933.2a10.577,10.577,0,0,1-10.562,10.563h-68.988Z" transform="translate(-15231.753 -9897.869)" fill="#3498db"/>
    </g>
    <path id="Path_1149" data-name="Path 1149" d="M9129.7,7024.389c-6.8,0-13.83-2.633-21.548-8.061-1.791-1.264-3.425-2.527-4.768-3.66l-.185.185-3.187-3.188-82.556-82.556A83.82,83.82,0,0,1,9129.7,6802.881a83.819,83.819,0,0,1,112.241,124.228l-85.742,85.743-.185-.184c-1.344,1.105-2.976,2.4-4.768,3.66C9143.56,7021.756,9136.5,7024.389,9129.7,7024.389Z" transform="translate(-5616.3 0)" fill="#3498db"/>
    <g id="_2111097452480" transform="translate(3365.967 6803.62)">
      <path id="Path_1150" data-name="Path 1150" d="M16096.453,10168.508a3.018,3.018,0,0,1-3,3h-58.426a3.019,3.019,0,0,1-3-3v-24.733a3.019,3.019,0,0,1,3-3h58.426a3.019,3.019,0,0,1,3,3Z" transform="translate(-15801.581 -10055.556)" fill="#f33"/>
      <path id="Path_1151" data-name="Path 1151" d="M8652.08,10168.508a3.018,3.018,0,0,0,3,3h58.426a3.019,3.019,0,0,0,3-3v-24.733a3.02,3.02,0,0,0-3-3h-58.4a3.018,3.018,0,0,0-3,3v24.733Z" transform="translate(-8652.08 -10055.556)" fill="#f33"/>
      <path id="Path_1152" data-name="Path 1152" d="M9836.934,7430.53a64.23,64.23,0,0,0-90.825,0h0l-7.561,7.561-7.561-7.561h0a64.224,64.224,0,0,0-90.827,90.827l82.556,82.555c0,.025,9.641,8.982,15.857,8.982s15.831-8.982,15.857-8.982l82.556-82.555A64.28,64.28,0,0,0,9836.934,7430.53Z" transform="translate(-9591.087 -7411.723)" fill="#f33"/>
    </g>
    <path id="Path_1153" data-name="Path 1153" d="M8944.741,7496.928H8914a64.238,64.238,0,0,0-106.131-66.407h0l-7.56,7.56-7.561-7.56h0a64.238,64.238,0,0,0-106.131,66.407H8655.9a3.019,3.019,0,0,0-3,3v24.734a3.019,3.019,0,0,0,3,3h52.342l76.233,76.232c0,.026,9.641,8.983,15.858,8.983s15.83-8.983,15.856-8.983l76.233-76.232h52.341a3.02,3.02,0,0,0,3-3v-24.734A3.043,3.043,0,0,0,8944.741,7496.928Z" transform="translate(-5286.907 -608.093)" fill="#2ecc71"/>
    <g id="_2111819943264" transform="translate(3277.854 6902.216)">
      <g id="Group_272" data-name="Group 272" transform="translate(364.254 0)">
        <g id="Group_271" data-name="Group 271">
          <path id="Path_1168" data-name="Path 1168" d="M17602.531,10729.416h-3.951v-37.326a11.22,11.22,0,0,0-11.2-11.2h-18.7a15.166,15.166,0,0,1-15.148-15.146v-81.29a11.219,11.219,0,0,0-11.193-11.2h-46.678v-3.951h46.678a15.167,15.167,0,0,1,15.146,15.147v81.29a11.218,11.218,0,0,0,11.2,11.2h18.7a15.167,15.167,0,0,1,15.146,15.147Z" transform="translate(-17495.662 -10569.31)" fill="#2ecc71"/>
        </g>
      </g>
      <g id="Group_274" data-name="Group 274" transform="translate(0 0)">
        <g id="Group_273" data-name="Group 273">
          <path id="Path_1169" data-name="Path 1169" d="M5834.143,10729.416h-3.952v-37.326a15.167,15.167,0,0,1,15.147-15.147h18.7a11.219,11.219,0,0,0,11.195-11.2v-81.29a15.166,15.166,0,0,1,15.147-15.147h46.678v3.952h-46.678a11.22,11.22,0,0,0-11.2,11.2v81.291a15.165,15.165,0,0,1-15.146,15.146h-18.7a11.22,11.22,0,0,0-11.2,11.2Z" transform="translate(-5830.19 -10569.31)" fill="#2ecc71"/>
        </g>
      </g>
    </g>
    <g id="_2111819943792" transform="translate(3734.831 7027.34)">
      <g id="Group_289" data-name="Group 289" transform="translate(0)">
        <g id="Group_275" data-name="Group 275" transform="translate(0 24.098)">
          <path id="Path_1170" data-name="Path 1170" d="M20670.984,15350.955c.1-.711.658-2.818,1.131-2.687,1.369.342,1.344,3.4,1.055,4.9a.855.855,0,0,1-1.162.738A4.229,4.229,0,0,1,20670.984,15350.955Z" transform="translate(-20664.529 -15348.262)" fill="#f3a974"/>
          <path id="Path_1171" data-name="Path 1171" d="M20490.82,15374.828c-6.48-2.475-16.41-12.828-19.467-15.277a10.5,10.5,0,0,1-5.24-2.213c-2-1.527-.607-5.9,2.869-5.348.924.133,4.795,1.16,4.479,5.27.789,1.711,13.514,8.4,17.676,10.748,1.869,1.053,4.584,2.844,4.162,4.346C20494.691,15374.725,20493.244,15375.752,20490.82,15374.828Z" transform="translate(-20465.191 -15351.827)" fill="#f3a974"/>
        </g>
        <g id="Group_278" data-name="Group 278" transform="translate(25.549 22.103)">
          <g id="Group_277" data-name="Group 277">
            <g id="Group_276" data-name="Group 276">
              <path id="Path_1172" data-name="Path 1172" d="M21293.807,15803.793a87.819,87.819,0,0,1-8.639,2.607c-1.477.238-1.633-1.842-1.766-3.133-.105-1.266,3.449-4.453,7.166-6.033C21293.438,15796.023,21294.176,15803.32,21293.807,15803.793Z" transform="translate(-21283.4 -15781.09)" fill="#37854e"/>
              <path id="Path_1173" data-name="Path 1173" d="M21367.186,15298.959c-4.873,3.133-22.969,10.563-22.969,10.563s-1.686-.895-3.424-4.213c-2.635-4.98-2.107-7.379-2.107-7.379s10.771-7.453,18.465-11.748c6.086-3.4,12.7-1.764,14.672,3.32C21373.457,15293.664,21369.926,15297.221,21367.186,15298.959Z" transform="translate(-21336.918 -15284.396)" fill="#37854e"/>
            </g>
          </g>
        </g>
        <g id="Group_284" data-name="Group 284" transform="translate(41.332)">
          <g id="Group_280" data-name="Group 280" transform="translate(1.155 54.402)">
            <path id="Path_1174" data-name="Path 1174" d="M21919.5,19249.834s8.484-2.189,9.117-2.373c.684-.211,1.766-.605,1.895,1.635s.211,2.949.211,2.949-9.824.027-10.879-.105C21918.766,19251.834,21917.926,19251.018,21919.5,19249.834Z" transform="translate(-21915.734 -19155.848)" fill="#0f1b29"/>
            <path id="Path_1175" data-name="Path 1175" d="M21825.84,16329.432s.5,28.555.816,34.244c.344,5.717,11.328,6.9,14.332-.5,3.027-7.375,7.035-17.676,7.059-25.184s-1.789-13.25-7.219-17.7C21835.43,16315.865,21825.684,16321.74,21825.84,16329.432Z" transform="translate(-21825.838 -16318.767)" fill="url(#linear-gradient-2)"/>
            <path id="Path_1176" data-name="Path 1176" d="M21851.508,17578c1.266,6.9,1.766,6.824,3.531,15.121,1.789,8.3,6.793,32.164,6.793,32.164a1.721,1.721,0,0,0,1.373.367c1.027-.262,1.105-.867,1.105-.867a47.565,47.565,0,0,1-.105-10.09c.605-4.082,2.082-29.4,2.24-34.457.156-5.031-1.477-8.8-7.221-8.508C21853.508,17572.07,21850.953,17574.969,21851.508,17578Z" transform="translate(-21850.635 -17532.588)" fill="url(#linear-gradient-3)"/>
            <g id="Group_279" data-name="Group 279" transform="translate(13.222 4.181)">
              <path id="Path_1177" data-name="Path 1177" d="M22748.254,19251.7c.025-.213.053-.4.076-.58.293-1.529,1.186-1.213,1.793-1.027.107.025.477.131,1,.291a7.444,7.444,0,0,0,1-.291c.607-.186,1.531-.527,1.793,1.027.027.156.053.367.08.58.131,2.186.209,2.9.209,2.9h-3.082c-1.738,0-3.082-.027-3.082-.027S22748.123,19253.885,22748.254,19251.7Z" transform="translate(-22732.469 -19162.582)" fill="#101b29"/>
              <path id="Path_1178" data-name="Path 1178" d="M22249.395,16463.088s8.109,30.529,9.664,35.9,12.3,4.137,13.594-3.582,4.268-23.312-1.369-39.037C22268.252,16447.861,22247.6,16455.764,22249.395,16463.088Z" transform="translate(-22249.285 -16452.682)" fill="#082947"/>
              <path id="Path_1179" data-name="Path 1179" d="M22523.488,17635.352c1.131,8.535,9.008,47.469,9.008,47.469s.184.344,1.213.129c1-.211,1.105-.84,1.105-.84a45.019,45.019,0,0,1,.4-9.457c.789-3.977,2.527-22.234,2.924-27.16s-.105-15.121-5.717-15.094S22523.355,17634.375,22523.488,17635.352Z" transform="translate(-22514.922 -17593.623)" fill="#082947"/>
            </g>
          </g>
          <path id="Path_1180" data-name="Path 1180" d="M21800.293,15245.148c-8.875,1.344-8.533,9.379-9.168,16.043-1.473,15.436-2.266,35.93-2.266,35.93s4.875,2.4,19.1,1.422c18.465-1.264,19.992-6.637,19.992-6.637s-4.371-25.314-8.244-37.645a14.3,14.3,0,0,0-13.434-9.641A35.816,35.816,0,0,0,21800.293,15245.148Z" transform="translate(-21788.859 -15223.759)" fill="#2ecc71"/>
          <g id="Group_283" data-name="Group 283" transform="translate(3.633)">
            <path id="Path_1181" data-name="Path 1181" d="M21908.18,14589.3c-2.977-2.24-4.555-10.273-.684-12.17,4.793-2.346,5.609,2.869,8.535,2.711,6.375-.342,8.3,3.689,7.77,8.721a10.809,10.809,0,0,1-5.293,7.691c-1.16.633-1.477-4.742-4.77-6.189A8.634,8.634,0,0,0,21908.18,14589.3Z" transform="translate(-21905.201 -14576.519)" fill="#082947"/>
            <path id="Path_1182" data-name="Path 1182" d="M22033.438,15213.531c-.289,2.686-1.658,8.666,4.609,7.824,7.35-.975,8.324-8.746,7.824-9.562-1.107-1.9-3.951-.58-5.8-.314S22033.674,15211.24,22033.438,15213.531Z" transform="translate(-22029.117 -15190.981)" fill="#37854e"/>
            <g id="Group_282" data-name="Group 282" transform="translate(2.953 8.431)">
              <path id="Path_1183" data-name="Path 1183" d="M22096.818,15243c-.369,0-.711,0-1.107.025a33.225,33.225,0,0,0-5.9.869,9.193,9.193,0,0,0-1.871.553c-.08,1.74-1.4,6.613,3.318,6.139C22096.107,15250.033,22097.053,15244.633,22096.818,15243Z" transform="translate(-22084.965 -15230.62)" fill="#f3a974"/>
              <g id="Group_281" data-name="Group 281">
                <path id="Path_1184" data-name="Path 1184" d="M22010.971,14859.254c-1.58-4.373-1.869-6.98-3.555-10.854,0-.158-5.928,1.105-7.588-1.871a31.99,31.99,0,0,0,.395,7.193c.635,3.055,1.607,4.689,4.586,3.107a28.678,28.678,0,0,1-.316,4.609c-.369,2.635,1.369,3.451,2.635,3.451C22008.391,14864.918,22012.658,14863.916,22010.971,14859.254Z" transform="translate(-21999.775 -14846.529)" fill="#f3a974"/>
                <path id="Path_1185" data-name="Path 1185" d="M22223.16,14922.829c.473.711,0,1.871-1.055,2.582s-2.316.686-2.791-.027,0-1.869,1.053-2.58C22221.447,14922.091,22222.684,14922.091,22223.16,14922.829Z" transform="translate(-22212.281 -14919.907)" fill="#f3a974"/>
              </g>
            </g>
          </g>
        </g>
        <g id="Group_285" data-name="Group 285" transform="translate(49.181 29.044)">
          <path id="Path_1186" data-name="Path 1186" d="M22116.2,15507.795l.947,2.66,2.082.078,1.658-3.475C22120.889,15507.031,22117.543,15505.846,22116.2,15507.795Z" transform="translate(-22113.826 -15506.677)" fill="#37854e"/>
          <path id="Path_1187" data-name="Path 1187" d="M22043.531,15609.978l-3.293,28.08,4.637,11.434,4.584-11.115-3.846-28.318C22045.641,15610.058,22044.9,15608.712,22043.531,15609.978Z" transform="translate(-22040.238 -15606.227)" fill="#37854e"/>
        </g>
        <g id="Group_287" data-name="Group 287" transform="translate(64.086 23.364)">
          <g id="Group_286" data-name="Group 286">
            <path id="Path_1188" data-name="Path 1188" d="M23000.436,15952.858s4.031,5.664,4.928,7.561c.631,1.371-1.318,2.082-2.5,2.557s-5.24-2.082-7.8-5.189C22993.088,15955.388,22999.883,15952.622,23000.436,15952.858Z" transform="translate(-22979.805 -15933.231)" fill="#37854e"/>
            <path id="Path_1189" data-name="Path 1189" d="M22520.629,15325.045c5.451,3.979,20.809,21.627,20.809,21.627s-.393,1.871-3.107,4.479c-4.057,3.9-6.48,4.082-6.48,4.082s-6-4.715-11.09-9.35c-2.477-2.266-3.215-3.531-3.162-10.459C22517.652,15330.947,22518.021,15323.148,22520.629,15325.045Z" transform="translate(-22517.596 -15324.753)" fill="#37854e"/>
          </g>
        </g>
        <g id="Group_288" data-name="Group 288" transform="translate(57.359 48.329)">
          <path id="Path_1190" data-name="Path 1190" d="M22376.324,16458.789c-.58-.42-2.186-1.895-1.844-2.264.947-1.055,3.635.393,4.82,1.344a.811.811,0,0,1,.105,1.342A4.036,4.036,0,0,1,22376.324,16458.789Z" transform="translate(-22372.178 -16445.795)" fill="#f3a974"/>
          <path id="Path_1191" data-name="Path 1191" d="M22333.221,16129.771c-5.215,4.582-19.02,8.508-22.6,10.088a10.415,10.415,0,0,1-4.4,3.609c-2.264,1.055-5.479-2.213-3.4-5.057.553-.738,3.266-3.689,6.744-1.5,1.869.105,13.748-8.035,17.752-10.615,1.82-1.158,4.664-2.715,5.8-1.66C22334.9,16126.32,22335.143,16128.086,22333.221,16129.771Z" transform="translate(-22302.15 -16124.285)" fill="#f3a974"/>
        </g>
      </g>
      <path id="Path_1192" data-name="Path 1192" d="M20693.688,15545.9a.543.543,0,0,1-.738.131l-6.008-4.217a.538.538,0,0,1-.129-.736l2.711-3.871a.541.541,0,0,1,.738-.133l6,4.215a.538.538,0,0,1,.133.738Z" transform="translate(-20679.803 -15506.995)" fill="#37854e"/>
    </g>
    <g id="_2112973312064" transform="translate(3209.484 7031.815)">
      <g id="Group_297" data-name="Group 297" transform="translate(0 0)">
        <g id="Group_296" data-name="Group 296">
          <g id="Group_290" data-name="Group 290" transform="translate(35.224 23.336)">
            <path id="Path_1193" data-name="Path 1193" d="M5385.2,15469.221c.448-1.105,1.027-2.184,1.739-2.08,1.08.158.158,1.686.474,3.715.21,1.316-2.133,2.344-2.133,2.344A6.78,6.78,0,0,1,5385.2,15469.221Z" transform="translate(-5365.675 -15467.134)" fill="#f4aa74"/>
            <path id="Path_1194" data-name="Path 1194" d="M4769.826,15489.577c3.951-6.482,14.909-11.986,18.307-16.043,1.476-1.791,2.9-6.27,5.189-5.508,1.5.4,4.214,3.031,3.346,4.453-.686,1.133-4.715,3.768-6.4,2.951-1.687.816-11.669,12.3-14.962,15.75-1.475,1.555-3.688,3.506-5.032,2.742C4768.113,15492.735,4768.351,15491.683,4769.826,15489.577Z" transform="translate(-4768.685 -15467.915)" fill="#f4aa74"/>
          </g>
          <g id="Group_291" data-name="Group 291" transform="translate(18.722 20.294)">
            <path id="Path_1195" data-name="Path 1195" d="M4613.394,15993.093a47.733,47.733,0,0,0,5.637,4.348,3.515,3.515,0,0,0,4.109-1.4c.527-1.133-1.712-5.242-4.61-7.93C4616.292,15986.06,4613.183,15992.54,4613.394,15993.093Z" transform="translate(-4601.731 -15968.416)" fill="#f4aa74"/>
            <path id="Path_1196" data-name="Path 1196" d="M4241.119,15381.708a44.464,44.464,0,0,0,11.775,16.885,9.115,9.115,0,0,0,5.268-3c2.239-2.5,2.424-4.27,2.424-4.27s-5.743-8.111-8.561-14.906c-.791-1.924-3.609-7.693-6.638-6.533C4241.724,15371.251,4238.59,15374.911,4241.119,15381.708Z" transform="translate(-4240.204 -15369.729)" fill="#ea5b34"/>
          </g>
          <g id="Group_292" data-name="Group 292" transform="translate(54.532 21.117)">
            <path id="Path_1197" data-name="Path 1197" d="M6010.039,15398.616c.948-1.633,2.766-2.844,3.213-2.475.843.711-.9,1.711-.552,2.58.316.816-2.872,2.5-2.872,2.5A5.043,5.043,0,0,1,6010.039,15398.616Z" transform="translate(-5990.3 -15396.075)" fill="#f3a974"/>
            <path id="Path_1198" data-name="Path 1198" d="M5393.654,15420.567c3.292-3,13.17-14.381,14.856-15.646,4.083,1.186,5.426-1.5,6.533-3.215,1.053-1.633-2.713-4.818-3.4-4.318a10.718,10.718,0,0,0-2.292,2.107c-1.107,1.16-3.346-1.291-2.74,3.24-2.081,2.186-7.823,6.875-7.823,6.875s-6.8,5.689-9.958,8.4c-.869.738-2.845,2.766-1.106,4.426C5389.149,15423.782,5391.783,15422.28,5393.654,15420.567Z" transform="translate(-5387.033 -15397.296)" fill="#f3a974"/>
          </g>
          <g id="Group_293" data-name="Group 293" transform="translate(5.532 54.448)">
            <path id="Path_1199" data-name="Path 1199" d="M4054.454,19251.7a3.8,3.8,0,0,0-.079-.58c-.263-1.529-1.185-1.213-1.791-1.027-.1.025-.474.131-1,.291a7.691,7.691,0,0,1-1-.291c-.606-.186-1.528-.527-1.791,1.027-.026.156-.053.367-.079.58-.132,2.186-.211,2.9-.211,2.9h6.164s-.079-.711-.21-2.9Z" transform="translate(-4041.297 -19162.92)" fill="#0f1b29"/>
            <path id="Path_1200" data-name="Path 1200" d="M3840.557,16475.625s-5.031,27.5-6.27,32.953-12.038,4.848-13.776-2.764-4.163-19.072-1.633-30.5c1.607-7.191,2.66-7.482,8.614-10.906S3841.927,16468.225,3840.557,16475.625Z" transform="translate(-3817.786 -16463.531)" fill="#f4aa74"/>
            <path id="Path_1201" data-name="Path 1201" d="M3930.9,17622.252c-.632,8.586-6.19,47.916-6.19,47.916s-.185.369-1.212.209c-1-.158-1.159-.764-1.159-.764a44.477,44.477,0,0,0-.948-9.4c-1-3.924-3.846-22.047-4.531-26.92s-.79-15.094,4.82-15.412C3927.292,17617.535,3930.979,17621.25,3930.9,17622.252Z" transform="translate(-3913.45 -17581.811)" fill="#f4aa74"/>
          </g>
          <g id="Group_294" data-name="Group 294" transform="translate(21.009 53.149)">
            <path id="Path_1202" data-name="Path 1202" d="M4663.468,19252.313s-8.3-2.133-8.9-2.344c-.658-.211-1.738-.607-1.844,1.605-.132,2.188-.211,2.9-.211,2.9s9.615.023,10.669-.08C4664.18,19254.262,4665,19253.5,4663.468,19252.313Z" transform="translate(-4641.922 -19161.5)" fill="#0f1b29"/>
            <path id="Path_1203" data-name="Path 1203" d="M4335.273,16436.25s-2.187,24.367-2.951,29.926c-.79,5.531-10.167,9.508-12.539,2.053s-6.875-21.492-6.3-28.844,2.793-12.8,8.456-16.7C4327.582,16418.785,4335.8,16431.115,4335.273,16436.25Z" transform="translate(-4313.438 -16421.936)" fill="#f4aa74"/>
            <path id="Path_1204" data-name="Path 1204" d="M4511.224,17627.68c-.791,8.563-.686,9.01-1.291,14.279-.922,8.242-3.714,31.291-3.714,31.291s-.132.555-1.317.818a1.311,1.311,0,0,1-1.159-.369,46.779,46.779,0,0,0-.79-9.824c-.948-3.928-4.268-23.551-4.874-28.451s.263-13.672,5.874-13.883C4509.564,17621.307,4511.514,17624.307,4511.224,17627.68Z" transform="translate(-4492.154 -17584.07)" fill="#f4aa74"/>
          </g>
          <path id="Path_1205" data-name="Path 1205" d="M3811.337,16435.441a214.473,214.473,0,0,0-.369,25.129c.369,6.32.369,7.719.369,7.719s2.133,2.555,15.647,2.711c13.513.188,19.229-3.766,19.229-3.766s1.949-24.551,2.107-29.5-6.716-15.3-21.073-15.543C3812.891,16421.926,3811.838,16430.621,3811.337,16435.441Z" transform="translate(-3805.451 -16369.025)" fill="#34495e"/>
          <path id="Path_1206" data-name="Path 1206" d="M4579.288,14980.74c.633-2.186.791-3.4,1.5-5.348,6.822-.078,8.614-4.635,9.193-7.4a33.285,33.285,0,0,1,.026,7.061c-.447,3.029-.685,4.107-3.819,3.5-.29,2.16-.211,2.475-.448,4.055-.4,2.582-1.712,3.32-2.95,3.346C4581.581,14985.955,4577.945,14985.4,4579.288,14980.74Z" transform="translate(-4549.693 -14960.24)" fill="#f4aa74"/>
          <path id="Path_1207" data-name="Path 1207" d="M3855.078,15363.02c-.369-4.48-.87-7.48-8.061-8.9-2.133-.422-3.767-.475-5.795-.766-7.034-1-10.3,2.477-13.276,9.67a190.975,190.975,0,0,0-10.616,36.563s3.082,3.16,20.23,4.557c13.909,1.133,17.517-1.635,17.517-1.635S3855.841,15372.184,3855.078,15363.02Z" transform="translate(-3811.812 -15333.403)" fill="#2ecc71"/>
          <g id="Group_295" data-name="Group 295" transform="translate(33.048 21.95)">
            <path id="Path_1208" data-name="Path 1208" d="M5222.639,15935.656a48.8,48.8,0,0,0,6.638,2.584c1.449.314,3.372-1.266,3.556-2.5s-3.134-4.557-6.664-6.295C5223.429,15928.1,5222.3,15935.156,5222.639,15935.656Z" transform="translate(-5206.231 -15913.456)" fill="#37854e"/>
            <path id="Path_1209" data-name="Path 1209" d="M4701.535,15435.812a44.544,44.544,0,0,0,16.069,12.854,8.914,8.914,0,0,0,4.188-4.371c1.449-3.031,1.107-4.795,1.107-4.795s-7.8-6.164-12.433-11.881c-1.317-1.607-5.637-6.375-8.219-4.4C4699.138,15425.591,4697.188,15429.989,4701.535,15435.812Z" transform="translate(-4699.009 -15422.746)" fill="#37854e"/>
          </g>
          <path id="Path_1210" data-name="Path 1210" d="M3676.263,14740.77c-.79-6.77,2.687-8.088,3.162-8.615.922-1,2.582-2.266,2.16-4.582-.58-3.055-1.422-6.875-7.9-7.719-5.4-.684-10.194,4.664-14.146,14.752-1.765,4.559-10.115,2-16.543,11.117-3.951,5.609-3.767,16.357,6.56,22.732,5.769,3.557,26.078,6.639,29.082-11.406C3679.4,14752.543,3676.526,14742.85,3676.263,14740.77Z" transform="translate(-3640.61 -14719.795)" fill="#34495e"/>
          <path id="Path_1211" data-name="Path 1211" d="M4795.942,15057.544c-.658.527-.553,1.74.211,2.715.79.973,1.949,1.342,2.608.816s.579-1.74-.211-2.713S4796.6,15057.019,4795.942,15057.544Z" transform="translate(-4759.447 -15046.766)" fill="#f4aa74"/>
        </g>
      </g>
      <path id="Path_1212" data-name="Path 1212" d="M5780.329,15573.653a.533.533,0,0,0,.738.025l5.321-5.057a.535.535,0,0,0,.025-.738l-3.266-3.424a.534.534,0,0,0-.737-.027l-5.321,5.059a.531.531,0,0,0-.027.736Z" transform="translate(-5710.221 -15537.929)" fill="#35e7ef"/>
    </g>
    <path id="Path_1213" data-name="Path 1213" d="M14042.359,16822.879a4.63,4.63,0,0,1-4.609,4.607h-149.779a4.63,4.63,0,0,1-4.609-4.607v-73.68a4.632,4.632,0,0,1,4.609-4.609h149.779a4.632,4.632,0,0,1,4.609,4.609Z" transform="translate(-10354.048 -9649.551)" fill="#34495e"/>
    <path id="Path_1214" data-name="Path 1214" d="M15034.9,17816.758a8.208,8.208,0,0,1-8.166,8.166h-76.551a8.207,8.207,0,0,1-8.164-8.166v-.133a8.207,8.207,0,0,1,8.164-8.166h76.551a8.208,8.208,0,0,1,8.166,8.166Z" transform="translate(-11379.651 -10680.2)" fill="#f5f5f5"/>
    <g id="_2075099982816" transform="translate(3536.609 7103.471)">
      <g id="Group_298" data-name="Group 298" transform="translate(2.636 0)">
        <circle id="Ellipse_40" data-name="Ellipse 40" cx="7.902" cy="7.902" r="7.902" fill="#3498db"/>
        <path id="Path_1215" data-name="Path 1215" d="M14266.432,17080.232c.262-.186.5-.424.738-.631a5.849,5.849,0,0,0,.631-.738l-11.09-11.092a8.46,8.46,0,0,0-.738.633,5.48,5.48,0,0,0-.633.738Z" transform="translate(-14253.656 -17066.113)" fill="url(#linear-gradient-4)"/>
        <path id="Path_1216" data-name="Path 1216" d="M14285.132,17097.525c-3.082,3.08-7.375,3.818-9.561,1.607a7.9,7.9,0,1,0,11.168-11.172C14288.95,17090.176,14288.214,17094.443,14285.132,17097.525Z" transform="translate(-14273.256 -17085.672)" fill="url(#linear-gradient-5)"/>
      </g>
      <g id="Group_299" data-name="Group 299" transform="translate(33.48 0)">
        <circle id="Ellipse_41" data-name="Ellipse 41" cx="7.902" cy="7.902" r="7.902" fill="#3498db"/>
        <path id="Path_1217" data-name="Path 1217" d="M15253.421,17080.232a9.582,9.582,0,0,0,.738-.631,5.692,5.692,0,0,0,.631-.738l-11.09-11.092a8.434,8.434,0,0,0-.736.633,5.343,5.343,0,0,0-.633.738Z" transform="translate(-15240.673 -17066.113)" fill="url(#linear-gradient-6)"/>
        <path id="Path_1218" data-name="Path 1218" d="M15273.032,17097.525c-3.082,3.08-7.375,3.818-9.561,1.607a7.9,7.9,0,1,0,11.168-11.172C15276.825,17090.176,15276.114,17094.443,15273.032,17097.525Z" transform="translate(-15261.154 -17085.672)" fill="url(#linear-gradient-7)"/>
      </g>
      <g id="Group_300" data-name="Group 300" transform="translate(64.299 0)">
        <circle id="Ellipse_42" data-name="Ellipse 42" cx="7.902" cy="7.902" r="7.902" fill="#3498db"/>
        <path id="Path_1219" data-name="Path 1219" d="M16241.319,17080.232a9.225,9.225,0,0,0,.738-.631,5.71,5.71,0,0,0,.633-.738l-11.09-11.092a8.182,8.182,0,0,0-.738.633,5.343,5.343,0,0,0-.633.738Z" transform="translate(-16228.543 -17066.113)" fill="url(#linear-gradient-8)"/>
        <path id="Path_1220" data-name="Path 1220" d="M16260.022,17097.525c-3.082,3.08-7.377,3.818-9.562,1.607a7.9,7.9,0,1,0,11.168-11.172C16263.843,17090.176,16263.1,17094.443,16260.022,17097.525Z" transform="translate(-16248.143 -17085.672)" fill="url(#linear-gradient-9)"/>
      </g>
      <g id="Group_301" data-name="Group 301" transform="translate(95.146 0)">
        <circle id="Ellipse_43" data-name="Ellipse 43" cx="7.902" cy="7.902" r="7.902" fill="#3498db"/>
        <path id="Path_1221" data-name="Path 1221" d="M17228.33,17080.232c.262-.186.5-.424.738-.631a6.014,6.014,0,0,0,.631-.738l-11.09-11.092a8.46,8.46,0,0,0-.738.633,5.48,5.48,0,0,0-.633.738Z" transform="translate(-17215.58 -17066.113)" fill="url(#linear-gradient-10)"/>
        <path id="Path_1222" data-name="Path 1222" d="M17247.123,17097.525c-3.08,3.08-7.375,3.818-9.562,1.607a7.9,7.9,0,0,0,11.17-11.172C17250.943,17090.176,17250.232,17094.443,17247.123,17097.525Z" transform="translate(-17235.268 -17085.672)" fill="url(#linear-gradient-11)"/>
      </g>
      <g id="Group_302" data-name="Group 302" transform="translate(125.968 0)">
        <circle id="Ellipse_44" data-name="Ellipse 44" cx="7.902" cy="7.902" r="7.902" fill="#3498db"/>
        <path id="Path_1223" data-name="Path 1223" d="M18216.234,17080.232c.262-.186.5-.424.738-.631a5.831,5.831,0,0,0,.629-.738l-11.09-11.092a8.13,8.13,0,0,0-.734.633,5.213,5.213,0,0,0-.633.738Z" transform="translate(-18203.461 -17066.113)" fill="url(#linear-gradient-12)"/>
        <path id="Path_1224" data-name="Path 1224" d="M18234.934,17097.525c-3.082,3.08-7.377,3.818-9.562,1.607a7.9,7.9,0,1,0,11.168-11.172C18238.727,17090.176,18238.016,17094.443,18234.934,17097.525Z" transform="translate(-18223.057 -17085.672)" fill="url(#linear-gradient-13)"/>
      </g>
      <g id="Group_303" data-name="Group 303" transform="translate(0 47.599)">
        <path id="Path_1225" data-name="Path 1225" d="M14134.993,18556.994a10.543,10.543,0,1,1,0-14.91A10.558,10.558,0,0,1,14134.993,18556.994Z" transform="translate(-14117.002 -18539.002)" fill="url(#radial-gradient)"/>
        <circle id="Ellipse_45" data-name="Ellipse 45" cx="7.902" cy="7.902" r="7.902" transform="translate(2.636 2.661)" fill="#64e8e8"/>
        <path id="Path_1226" data-name="Path 1226" d="M14266.432,18689.83a9.519,9.519,0,0,0,.738-.631,5.849,5.849,0,0,0,.631-.738l-11.09-11.09a8.438,8.438,0,0,0-.738.631,5.6,5.6,0,0,0-.633.738Z" transform="translate(-14251.02 -18673.051)" fill="url(#linear-gradient-14)"/>
        <path id="Path_1227" data-name="Path 1227" d="M14285.132,18707.137c-3.082,3.08-7.375,3.818-9.561,1.6a7.9,7.9,0,0,0,11.168-11.168C14288.95,18699.785,14288.214,18704.055,14285.132,18707.137Z" transform="translate(-14270.62 -18692.621)" fill="url(#linear-gradient-15)"/>
      </g>
      <g id="Group_304" data-name="Group 304" transform="translate(30.847 47.599)">
        <path id="Path_1228" data-name="Path 1228" d="M15122.9,18556.994a10.543,10.543,0,1,1,0-14.91A10.558,10.558,0,0,1,15122.9,18556.994Z" transform="translate(-15104.912 -18539.002)" fill="url(#radial-gradient-2)"/>
        <circle id="Ellipse_46" data-name="Ellipse 46" cx="7.902" cy="7.902" r="7.902" transform="translate(2.633 2.661)" fill="#64e8e8"/>
        <path id="Path_1229" data-name="Path 1229" d="M15253.421,18689.83a9.168,9.168,0,0,0,.738-.631,5.692,5.692,0,0,0,.631-.738l-11.09-11.09a8.412,8.412,0,0,0-.736.631,5.46,5.46,0,0,0-.633.738Z" transform="translate(-15238.04 -18673.051)" fill="url(#linear-gradient-16)"/>
        <path id="Path_1230" data-name="Path 1230" d="M15273.032,18707.137c-3.082,3.08-7.375,3.818-9.561,1.6a7.9,7.9,0,0,0,11.168-11.168C15276.825,18699.785,15276.114,18704.055,15273.032,18707.137Z" transform="translate(-15258.521 -18692.621)" fill="url(#linear-gradient-17)"/>
      </g>
      <g id="Group_305" data-name="Group 305" transform="translate(64.299 50.26)">
        <circle id="Ellipse_47" data-name="Ellipse 47" cx="7.902" cy="7.902" r="7.902" fill="#3498db"/>
        <path id="Path_1231" data-name="Path 1231" d="M16241.319,18689.83a8.841,8.841,0,0,0,.738-.631,5.71,5.71,0,0,0,.633-.738l-11.09-11.09a8.161,8.161,0,0,0-.738.631,5.46,5.46,0,0,0-.633.738Z" transform="translate(-16228.543 -18675.713)" fill="url(#linear-gradient-18)"/>
        <path id="Path_1232" data-name="Path 1232" d="M16260.022,18707.137c-3.082,3.08-7.377,3.818-9.562,1.6a7.9,7.9,0,0,0,11.168-11.168C16263.843,18699.785,16263.1,18704.055,16260.022,18707.137Z" transform="translate(-16248.143 -18695.283)" fill="url(#linear-gradient-19)"/>
      </g>
      <g id="Group_306" data-name="Group 306" transform="translate(95.146 50.26)">
        <circle id="Ellipse_48" data-name="Ellipse 48" cx="7.902" cy="7.902" r="7.902" fill="#3498db"/>
        <path id="Path_1233" data-name="Path 1233" d="M17228.33,18689.83a9.519,9.519,0,0,0,.738-.631,6.014,6.014,0,0,0,.631-.738l-11.09-11.09a8.438,8.438,0,0,0-.738.631,5.6,5.6,0,0,0-.633.738Z" transform="translate(-17215.58 -18675.713)" fill="url(#linear-gradient-20)"/>
        <path id="Path_1234" data-name="Path 1234" d="M17247.123,18707.137c-3.08,3.08-7.375,3.818-9.562,1.6a7.9,7.9,0,1,0,11.17-11.168C17250.943,18699.785,17250.232,18704.055,17247.123,18707.137Z" transform="translate(-17235.268 -18695.283)" fill="url(#linear-gradient-21)"/>
      </g>
      <g id="Group_307" data-name="Group 307" transform="translate(125.968 50.26)">
        <circle id="Ellipse_49" data-name="Ellipse 49" cx="7.902" cy="7.902" r="7.902" fill="#3498db"/>
        <path id="Path_1235" data-name="Path 1235" d="M18216.234,18689.83a9.519,9.519,0,0,0,.738-.631,5.831,5.831,0,0,0,.629-.738l-11.09-11.09a8.11,8.11,0,0,0-.734.631,5.324,5.324,0,0,0-.633.738Z" transform="translate(-18203.461 -18675.713)" fill="url(#linear-gradient-22)"/>
        <path id="Path_1236" data-name="Path 1236" d="M18234.934,18707.137c-3.082,3.08-7.377,3.818-9.562,1.6a7.9,7.9,0,0,0,11.168-11.168C18238.727,18699.785,18238.016,18704.055,18234.934,18707.137Z" transform="translate(-18223.057 -18695.283)" fill="url(#linear-gradient-23)"/>
      </g>
      <g id="Group_308" data-name="Group 308" transform="translate(125.968 25.13)">
        <circle id="Ellipse_50" data-name="Ellipse 50" cx="7.902" cy="7.902" r="7.902" fill="#3498db"/>
        <path id="Path_1237" data-name="Path 1237" d="M18216.234,17885.027a9.5,9.5,0,0,0,.738-.629,5.831,5.831,0,0,0,.629-.738l-11.09-11.09a7.552,7.552,0,0,0-.734.633,5.078,5.078,0,0,0-.633.734Z" transform="translate(-18203.461 -17870.912)" fill="url(#linear-gradient-24)"/>
        <path id="Path_1238" data-name="Path 1238" d="M18234.934,17902.324c-3.082,3.086-7.377,3.82-9.562,1.609a7.9,7.9,0,1,0,11.168-11.172C18238.727,17894.977,18238.016,17899.244,18234.934,17902.324Z" transform="translate(-18223.057 -17890.473)" fill="url(#linear-gradient-25)"/>
      </g>
      <g id="Group_309" data-name="Group 309" transform="translate(2.636 25.13)">
        <circle id="Ellipse_51" data-name="Ellipse 51" cx="7.902" cy="7.902" r="7.902" fill="#64e8e8"/>
        <path id="Path_1239" data-name="Path 1239" d="M14266.432,17885.027a9.5,9.5,0,0,0,.738-.629,5.849,5.849,0,0,0,.631-.738l-11.09-11.09a7.838,7.838,0,0,0-.738.633,5.332,5.332,0,0,0-.633.734Z" transform="translate(-14253.656 -17870.912)" fill="url(#linear-gradient-26)"/>
        <path id="Path_1240" data-name="Path 1240" d="M14285.132,17902.324c-3.082,3.086-7.375,3.82-9.561,1.609a7.9,7.9,0,1,0,11.168-11.172C14288.95,17894.977,14288.214,17899.244,14285.132,17902.324Z" transform="translate(-14273.256 -17890.473)" fill="url(#linear-gradient-27)"/>
      </g>
    </g>
    <path id="Path_1241" data-name="Path 1241" d="M14543.824,17672.338h-5.531a3.944,3.944,0,0,0-3.951,3.947v5.191l-30.109-1.949v-13.7h-11.59v6.531h-18.781v43.016a4.345,4.345,0,0,0,.447,1.951h18.334v2.66h11.59v-9.826l30.109-1.949v5.189a3.947,3.947,0,0,0,3.951,3.951h5.531a3.946,3.946,0,0,0,3.951-3.951v-37.09A3.948,3.948,0,0,0,14543.824,17672.338Z" transform="translate(-10926.109 -10542.025)" fill="none"/>
    <g id="_2075099981664" transform="translate(3349.503 7165.214)">
      <path id="Path_1242" data-name="Path 1242" d="M8162.181,18999.031a6.217,6.217,0,0,0-6.189-6.191h-24.973a6.217,6.217,0,0,0-6.189,6.191v.316a6.218,6.218,0,0,0,6.189,6.189h24.973a6.216,6.216,0,0,0,6.189-6.189Z" transform="translate(-8124.829 -18992.813)" fill="#082947"/>
      <path id="Path_1243" data-name="Path 1243" d="M8131.021,18992h12.486v12.725h-12.486a6.217,6.217,0,0,1-6.19-6.191v-.316A6.224,6.224,0,0,1,8131.021,18992Z" transform="translate(-8124.83 -18992)" fill="#2ecc71"/>
    </g>
    <g id="_2075099976240" transform="translate(3378.19 7165.214)">
      <path id="Path_1244" data-name="Path 1244" d="M9080.912,18999.031a6.217,6.217,0,0,0-6.189-6.191H9049.75a6.217,6.217,0,0,0-6.189,6.191v.316a6.216,6.216,0,0,0,6.189,6.189h24.973a6.216,6.216,0,0,0,6.189-6.189Z" transform="translate(-9043.56 -18992.813)" fill="#082947"/>
      <path id="Path_1245" data-name="Path 1245" d="M9049.705,18992h12.485v12.725h-12.485a6.217,6.217,0,0,1-6.191-6.191v-.316A6.19,6.19,0,0,1,9049.705,18992Z" transform="translate(-9043.514 -18992)" fill="#2ecc71"/>
    </g>
    <g id="_2075100030960" transform="translate(3368.048 7152.517)">
      <path id="Path_1246" data-name="Path 1246" d="M8718.73,18591.541a6.218,6.218,0,0,1,6.19-6.191h24.973a6.22,6.22,0,0,1,6.19,6.191v.316a6.218,6.218,0,0,1-6.19,6.189h-24.973a6.218,6.218,0,0,1-6.19-6.189Z" transform="translate(-8718.73 -18585.35)" fill="#34495e"/>
      <path id="Path_1247" data-name="Path 1247" d="M9329.338,18585.4h-12.487v12.725h12.487a6.217,6.217,0,0,0,6.189-6.189v-.316A6.173,6.173,0,0,0,9329.338,18585.4Z" transform="translate(-9298.174 -18585.398)" fill="#2ecc71"/>
    </g>
    <g id="_2075100030912" transform="translate(3575.2 7131.682)">
      <path id="Path_1248" data-name="Path 1248" d="M15352.9,18166.645l37.326-2.424v-21.02l-37.326-2.4Z" transform="translate(-15352.9 -18133.846)" fill="#082947"/>
      <path id="Path_1249" data-name="Path 1249" d="M15352.9,18452.1l37.326-.635v-5.529l-37.326-.635Z" transform="translate(-15352.9 -18428.84)" fill="url(#linear-gradient-28)"/>
      <path id="Path_1250" data-name="Path 1250" d="M16533.748,17956.516a1.321,1.321,0,0,1-1.318,1.316h-5.531a1.319,1.319,0,0,1-1.316-1.316v-37.09a1.319,1.319,0,0,1,1.316-1.316h5.531a1.322,1.322,0,0,1,1.318,1.316Z" transform="translate(-16488.965 -17918.109)" fill="#062033"/>
    </g>
    <path id="Path_1251" data-name="Path 1251" d="M8798.475,18513.5c-.605.395-.5.738.236.738h53.555a1.146,1.146,0,1,0,0-2.266h-50.182a5.013,5.013,0,0,0-2.4.738Z" transform="translate(-5427.555 -11361.747)" fill="#34495e"/>
    <path id="Path_1252" data-name="Path 1252" d="M10479.659,18356.8h-14.514a2.64,2.64,0,0,0-2.635,2.633v7.086a2.643,2.643,0,0,0,2.635,2.637h14.514Z" transform="translate(-7040.013 -11211.421)" fill="#2ecc71"/>
    <path id="Path_1253" data-name="Path 1253" d="M10697.866,18158.5h-7.481a2.643,2.643,0,0,0-2.635,2.635v19.441a2.643,2.643,0,0,0,2.635,2.633h7.481Z" transform="translate(-7258.219 -11019.311)" fill="#34495e"/>
    <path id="Path_1254" data-name="Path 1254" d="M11088.038,18076.441a1.338,1.338,0,0,1-1.317-1.316v-29.187a1.339,1.339,0,0,1,1.317-1.318h130.63v31.822Z" transform="translate(-7644.732 -10908.987)" fill="rgba(255,255,255,0.75)"/>
    <g id="_2112116389840" transform="translate(3447.416 7154.782)">
      <g id="Group_310" data-name="Group 310" transform="translate(0 0)">
        <path id="Path_1255" data-name="Path 1255" d="M11261.838,18673.428a1.32,1.32,0,0,1-1.317-1.316v-12.879a1.322,1.322,0,0,1,1.317-1.318h.87a1.319,1.319,0,0,1,1.315,1.318v12.879a1.319,1.319,0,0,1-1.315,1.316Z" transform="translate(-11260.521 -18657.914)" fill="#3498db"/>
        <path id="Path_1256" data-name="Path 1256" d="M11492.147,18853.223a1.32,1.32,0,0,1-1.317-1.316v-7.086a1.32,1.32,0,0,1,1.317-1.316h.868a1.318,1.318,0,0,1,1.317,1.316v7.086a1.32,1.32,0,0,1-1.317,1.316Z" transform="translate(-11483.639 -18837.709)" fill="#3498db"/>
        <path id="Path_1257" data-name="Path 1257" d="M11751.139,18853.223a1.321,1.321,0,0,1-1.317-1.316v-7.086a1.32,1.32,0,0,1,1.317-1.316h.869a1.318,1.318,0,0,1,1.317,1.316v7.086a1.32,1.32,0,0,1-1.317,1.316Z" transform="translate(-11734.543 -18837.709)" fill="#3498db"/>
        <path id="Path_1258" data-name="Path 1258" d="M12015.248,18853.223a1.32,1.32,0,0,1-1.317-1.316v-7.086a1.32,1.32,0,0,1,1.317-1.316h.868a1.318,1.318,0,0,1,1.317,1.316v7.086a1.32,1.32,0,0,1-1.317,1.316Z" transform="translate(-11990.406 -18837.709)" fill="#3498db"/>
        <path id="Path_1259" data-name="Path 1259" d="M12268.248,18853.223a1.32,1.32,0,0,1-1.317-1.316v-7.086a1.32,1.32,0,0,1,1.317-1.316h.868a1.318,1.318,0,0,1,1.317,1.316v7.086a1.32,1.32,0,0,1-1.317,1.316Z" transform="translate(-12235.506 -18837.709)" fill="#3498db"/>
      </g>
      <g id="Group_311" data-name="Group 311" transform="translate(39.909 0)">
        <path id="Path_1260" data-name="Path 1260" d="M12539.947,18673.428a1.318,1.318,0,0,1-1.316-1.316v-12.879a1.321,1.321,0,0,1,1.316-1.318h.869a1.321,1.321,0,0,1,1.317,1.318v12.879a1.32,1.32,0,0,1-1.317,1.316Z" transform="translate(-12538.631 -18657.914)" fill="#3498db"/>
        <path id="Path_1261" data-name="Path 1261" d="M12771.038,18853.223a1.322,1.322,0,0,1-1.317-1.316v-7.086a1.321,1.321,0,0,1,1.317-1.316h.87a1.319,1.319,0,0,1,1.317,1.316v7.086a1.32,1.32,0,0,1-1.317,1.316Z" transform="translate(-12762.505 -18837.709)" fill="#3498db"/>
        <path id="Path_1262" data-name="Path 1262" d="M13029.238,18853.223a1.321,1.321,0,0,1-1.317-1.316v-7.086a1.32,1.32,0,0,1,1.317-1.316h.869a1.318,1.318,0,0,1,1.317,1.316v7.086a1.32,1.32,0,0,1-1.317,1.316Z" transform="translate(-13012.643 -18837.709)" fill="#3498db"/>
        <path id="Path_1263" data-name="Path 1263" d="M13294.138,18853.223a1.321,1.321,0,0,1-1.316-1.316v-7.086a1.319,1.319,0,0,1,1.316-1.316h.869a1.319,1.319,0,0,1,1.318,1.316v7.086a1.321,1.321,0,0,1-1.318,1.316Z" transform="translate(-13269.272 -18837.709)" fill="#3498db"/>
        <path id="Path_1264" data-name="Path 1264" d="M13547.237,18853.223a1.321,1.321,0,0,1-1.316-1.316v-7.086a1.319,1.319,0,0,1,1.316-1.316h.871a1.318,1.318,0,0,1,1.316,1.316v7.086a1.321,1.321,0,0,1-1.316,1.316Z" transform="translate(-13514.469 -18837.709)" fill="#3498db"/>
      </g>
      <g id="Group_312" data-name="Group 312" transform="translate(79.842 0)">
        <path id="Path_1265" data-name="Path 1265" d="M13818.838,18673.428a1.318,1.318,0,0,1-1.316-1.316v-12.879a1.321,1.321,0,0,1,1.316-1.318h.869a1.32,1.32,0,0,1,1.316,1.318v12.879a1.319,1.319,0,0,1-1.316,1.316Z" transform="translate(-13817.521 -18657.914)" fill="#3498db"/>
        <path id="Path_1266" data-name="Path 1266" d="M14091.349,18853.223a1.321,1.321,0,0,1-1.318-1.316v-7.086a1.32,1.32,0,0,1,1.318-1.316h.869a1.317,1.317,0,0,1,1.316,1.316v7.086a1.319,1.319,0,0,1-1.316,1.316Z" transform="translate(-14081.521 -18837.709)" fill="#3498db"/>
        <path id="Path_1267" data-name="Path 1267" d="M14362.938,18853.223a1.319,1.319,0,0,1-1.316-1.316v-7.086a1.318,1.318,0,0,1,1.316-1.316h.869a1.317,1.317,0,0,1,1.316,1.316v7.086a1.319,1.319,0,0,1-1.316,1.316Z" transform="translate(-14344.632 -18837.709)" fill="#3498db"/>
        <path id="Path_1268" data-name="Path 1268" d="M14635.445,18853.223a1.319,1.319,0,0,1-1.314-1.316v-7.086a1.319,1.319,0,0,1,1.314-1.316h.871a1.317,1.317,0,0,1,1.316,1.316v7.086a1.319,1.319,0,0,1-1.316,1.316Z" transform="translate(-14608.632 -18837.709)" fill="#3498db"/>
        <path id="Path_1269" data-name="Path 1269" d="M14907.147,18853.223a1.321,1.321,0,0,1-1.316-1.316v-7.086a1.319,1.319,0,0,1,1.316-1.316h.869a1.319,1.319,0,0,1,1.318,1.316v7.086a1.321,1.321,0,0,1-1.318,1.316Z" transform="translate(-14871.849 -18837.709)" fill="#3498db"/>
      </g>
    </g>
    <path id="Path_1270" data-name="Path 1270" d="M10965.439,17953.842a1.336,1.336,0,0,1-1.316-1.314v-29.187a1.338,1.338,0,0,1,1.316-1.316H11093.3v-3.953h-127.863a5.285,5.285,0,0,0-5.27,5.27v29.188a5.283,5.283,0,0,0,5.27,5.266H11093.3v-3.951Z" transform="translate(-7522.133 -10786.391)" fill="#3498db"/>
    <rect id="Rectangle_67" data-name="Rectangle 67" width="6.322" height="52.763" transform="translate(3570.116 7125.174)" fill="#3498db"/>
    <g id="_2113442073216" transform="translate(3627.823 7013.473)">
      <path id="Path_1271" data-name="Path 1271" d="M19360.309,17786.5s-8.719.922-9.35.975c-.711.025-1.871.051-1.213,2.213.66,2.133.844,2.844.844,2.844s9.219-3.424,10.168-3.9C19361.707,17788.109,19362.207,17787.082,19360.309,17786.5Z" transform="translate(-19277.381 -17672.4)" fill="#101c29"/>
      <path id="Path_1272" data-name="Path 1272" d="M17803.34,15942.283s27.447,5.32,32.9,6.611,4.744,12.092-2.9,13.75-18.229,3.793-25.5,2.555c-7.24-1.238-12.484-3.951-15.857-9.955C17788.639,15949.236,17795.938,15940.834,17803.34,15942.283Z" transform="translate(-17767.637 -15885.609)" fill="url(#linear-gradient-29)"/>
      <path id="Path_1273" data-name="Path 1273" d="M18898.691,16157.133c.711,6.979.238,7.059.842,15.516s2.531,32.795,2.531,32.795a1.723,1.723,0,0,1-1.186.738c-1.08.053-1.291-.527-1.291-.527a48.15,48.15,0,0,0-2.713-9.7c-1.713-3.738-10.275-27.631-11.828-32.426s-1.053-8.85,4.531-10.193C18895.137,16152.021,18898.4,16154.076,18898.691,16157.133Z" transform="translate(-18826.639 -16089.843)" fill="url(#linear-gradient-30)"/>
      <path id="Path_1274" data-name="Path 1274" d="M17504.477,15912.735s26.238,9.668,31.4,11.8c5.16,2.16,2.738,12.7-5.086,13.117-7.8.422-18.6.816-25.578-1.58-6.953-2.4-15.676-7.191-14.039-20.23C17492.043,15908.993,17497.418,15910.1,17504.477,15912.735Z" transform="translate(-17476.836 -15855.163)" fill="#082947"/>
      <g id="Group_313" data-name="Group 313" transform="translate(47.484 68.214)">
        <path id="Path_1275" data-name="Path 1275" d="M18771.158,18020.121s-8.641-1.4-9.271-1.555c-.711-.158-1.818-.449-1.738,1.818.08,2.24.051,2.949.051,2.949s9.8-.869,10.828-1.078C18772.08,18022.043,18772.846,18021.174,18771.158,18020.121Z" transform="translate(-18753.863 -17965.334)" fill="#101c29"/>
        <path id="Path_1276" data-name="Path 1276" d="M18573.678,16323.1c-.555,6.98-1.055,6.98-1.975,15.41s-3.477,32.689-3.477,32.689a1.763,1.763,0,0,1-1.32.5c-1.051-.156-1.184-.736-1.184-.736a47.172,47.172,0,0,0-.92-10.037c-1-4-5.086-29.027-5.746-34.033-.658-4.979.764-7.85,6.217-9.615C18569.674,16315.855,18573.941,16320.043,18573.678,16323.1Z" transform="translate(-18558.908 -16316.991)" fill="#082947"/>
      </g>
      <path id="Path_1277" data-name="Path 1277" d="M17079.338,14154.373s2.82-.264,3.768-1.977c.947-1.738.186-2.793.764-3.213,1.08-.818,2.607-4.268,2.637-6.613.023-3.107.209-6.875-8.01-9.8-5.137-1.818-11.248,3-17.756,11.117-3.055,3.793-7.795,1.527-10.771.709-5.428-1.5-8.982,2.188-10.617,6.139-1.4,3.346.631,4.584.369,5.162-.658,1.5-4.742,6.824,4.135,15.1,4.953,4.607,11.826,8.613,22.629,7.322a14.719,14.719,0,0,0,13.355-15.541,70.374,70.374,0,0,1-.5-8.4Z" transform="translate(-17038.213 -14132.389)" fill="#082947"/>
      <g id="Group_314" data-name="Group 314" transform="translate(52.426 44.182)">
        <path id="Path_1278" data-name="Path 1278" d="M19599.895,15547.579c1.844-.5,3.98-.053,4.031.527.105,1.105-1.844.578-2.215,1.422-.34.816-3.793-.262-3.793-.262A4.955,4.955,0,0,1,19599.895,15547.579Z" transform="translate(-19570.416 -15547.362)" fill="#f3a974"/>
        <path id="Path_1279" data-name="Path 1279" d="M18724.781,15563.174c3.371.158,16.332-1.238,19.492-.816,2.055,3.713,4.9,2.766,6.9,2.316,1.9-.42,1.473-5.32.66-5.451a10.918,10.918,0,0,0-3.109-.133c-1.582.053-1.449-3.291-4.242.342-3,.08-10.4-.658-10.4-.658l-13.516-1.133s-3.449-.025-3.371,2.4C18717.246,15562.041,18722.254,15563.068,18724.781,15563.174Z" transform="translate(-18717.193 -15557.32)" fill="#f3a974"/>
      </g>
      <g id="Group_315" data-name="Group 315" transform="translate(35.779 21.426)">
        <path id="Path_1280" data-name="Path 1280" d="M18584.461,15385.723a48.914,48.914,0,0,0,5.77,4.162,3.556,3.556,0,0,0,4.082-1.529c.5-1.158-1.895-5.189-4.871-7.77C18587.121,15378.582,18584.25,15385.168,18584.461,15385.723Z" transform="translate(-18571.947 -15362.672)" fill="#f3a974"/>
        <path id="Path_1281" data-name="Path 1281" d="M18185.443,14829.3a44.86,44.86,0,0,0,12.328,16.49,8.956,8.956,0,0,0,5.162-3.187c2.16-2.555,2.266-4.346,2.266-4.346s-6.006-7.93-9.037-14.619c-.869-1.9-4.951-6.322-7.77-4.715C18183.441,14821.764,18183.178,14823.766,18185.443,14829.3Z" transform="translate(-18184.074 -14818.575)" fill="url(#linear-gradient-31)"/>
      </g>
      <path id="Path_1282" data-name="Path 1282" d="M17479.258,14797.2c.369-5.031-.814-5.875-8.109-6.586-2.162-.211-3.793-.1-5.848-.184-7.086-.289-10.881,4.953-13.121,12.406a170.889,170.889,0,0,0-5.479,29.346s.449,5.24,18.439,5.24c16.648,0,18.309-9.008,18.309-9.008s-3.637-.922-3.373-9.271c3.213-.816,4.559-1.951,4.979-4.426C17485.713,14810.771,17478.549,14807.345,17479.258,14797.2Z" transform="translate(-17433.945 -14769.875)" fill="#2ecc71"/>
      <path id="Path_1283" data-name="Path 1283" d="M17784.854,15301.115c-8.295-.738-7.744-8.615-4.818-11.723a7.67,7.67,0,0,0,1.764-5.031,9,9,0,0,1,.08,3.635c-.318,2.449-3.293,5.479-.869,9.035,2.451,3.584,11.906,1.5,20.123.633-.023.947,0,1.789.055,2.527A72.335,72.335,0,0,1,17784.854,15301.115Z" transform="translate(-17754.975 -15248.392)" fill="#d5d6d4"/>
      <g id="Group_320" data-name="Group 320" transform="translate(27.834 9.363)">
        <path id="Path_1284" data-name="Path 1284" d="M17936.666,14749.707c-3.133-.078-6.533-1.844-6.98.318s1.24,10.4,6.006,13.037c4.742,2.635,8.771.869,8.641-1.789a51.412,51.412,0,0,0-1.369-7.613c-.4-2.082.58-4.084-1.607-4.189S17938.4,14749.734,17936.666,14749.707Z" transform="translate(-17929.615 -14739.064)" fill="#082947"/>
        <g id="Group_319" data-name="Group 319" transform="translate(1.807)">
          <path id="Path_1285" data-name="Path 1285" d="M17995.041,14789.339c-2.16-.213-3.793-.105-5.848-.186-.605-.027-1.186-.053-1.713-.053.316,3.109,1.662,12.934,8.668,12.434,5.32-.367,1.816-2.318,1.342-11.906C17996.779,14789.522,17995.963,14789.444,17995.041,14789.339Z" transform="translate(-17987.48 -14777.957)" fill="#f3a974"/>
          <g id="Group_318" data-name="Group 318" transform="translate(1.261)">
            <g id="Group_317" data-name="Group 317">
              <g id="Group_316" data-name="Group 316">
                <path id="Path_1286" data-name="Path 1286" d="M18028.086,14444.295c1.078-4.268,4.268-7.48,6.533-10.934.025-.131,6.109,1.477,8.193-1.131a31.62,31.62,0,0,1-1.555,6.875c-1.107,2.846-2.318,4.268-4.928,2.266-1,1.555-1.342,2.08-1.211,3.688a3.266,3.266,0,0,1-2.766,3.82C18031.088,14449.01,18026.873,14448.984,18028.086,14444.295Z" transform="translate(-18027.869 -14432.23)" fill="#f3a974"/>
                <path id="Path_1287" data-name="Path 1287" d="M18144.982,14454.951c-.578.605-.316,1.816.607,2.66s2.131,1.053,2.711.42c.58-.6.316-1.816-.6-2.66S18145.563,14454.346,18144.982,14454.951Z" transform="translate(-18141.029 -14453.896)" fill="#f3a974"/>
              </g>
            </g>
          </g>
        </g>
      </g>
      <path id="Path_1288" data-name="Path 1288" d="M17410.162,14789.1c3.98,10.061,9.932,16.568,6.273,34.586-1.451,7.113,2.869,15.174,2.869,15.174a25.6,25.6,0,0,1-16.937,4.557c-10.01-.869-11.328-6.242-11.328-6.242s1.662-18.916,3.689-27.582S17400.152,14789.151,17410.162,14789.1Z" transform="translate(-17380.021 -14768.595)" fill="url(#linear-gradient-32)"/>
      <path id="Path_1289" data-name="Path 1289" d="M18296.3,14803.063a87.927,87.927,0,0,0,5.531,16.543c4.217,9.826-.973,12.594.213,18.018.842,3.873,4.293,9.221,4.293,9.221l3.873-4.953s-5.111-3.055-5.693-6.9c-.551-3.846,4.508-3.687,4.27-8.693s-4.662-7.691-5.584-11.248c-.924-3.531.475-9.352-2.109-10.852A7.8,7.8,0,0,0,18296.3,14803.063Z" transform="translate(-18257.018 -14782.082)" fill="url(#linear-gradient-33)"/>
      <g id="Group_323" data-name="Group 323" transform="translate(16.176 26.949)">
        <g id="Group_321" data-name="Group 321" transform="translate(4.212 21.192)">
          <path id="Path_1290" data-name="Path 1290" d="M18535.543,15813.176c1.9.236,3.928-.527,3.9-1.107-.053-1.105-1.9-.314-2.4-1.105-.477-.764-3.715.816-3.715.816A5.053,5.053,0,0,0,18535.543,15813.176Z" transform="translate(-18507.035 -15806.488)" fill="#f3a974"/>
          <path id="Path_1291" data-name="Path 1291" d="M17698.193,15678.7c3.293-.658,16.33-1.264,19.387-2.186,1.451-4,6.059-2.238,8.271-.131,1.449,1.369.766,2.186-.027,1.816-.6-.289-1.631-.447-3.477.607-1.369.789-.816,3.713-4.133.551-3,.369-10.17,2.24-10.17,2.24l-13.172,3.188s-3.4.553-3.713-1.844C17690.949,15680.966,17695.719,15679.2,17698.193,15678.7Z" transform="translate(-17691.154 -15674.118)" fill="#f3a974"/>
        </g>
        <g id="Group_322" data-name="Group 322">
          <path id="Path_1292" data-name="Path 1292" d="M17630.7,15678.372a47.705,47.705,0,0,0,1.424,6.98,3.547,3.547,0,0,0,4.031,1.633c1.131-.527,2.131-5.086,1.686-9.037C17637.5,15674.946,17630.938,15677.845,17630.7,15678.372Z" transform="translate(-17628.375 -15655.337)" fill="#f3a974"/>
          <path id="Path_1293" data-name="Path 1293" d="M17558.73,15001.856a44.857,44.857,0,0,0-2.105,20.469,9.056,9.056,0,0,0,5.953,1.158c3.32-.422,4.613-1.66,4.613-1.66s.945-9.9,3.238-16.885c.656-1.975,1.238-7.086-2.527-8.719C17563.188,14994.167,17560.789,14996.245,17558.73,15001.856Z" transform="translate(-17556.252 -14995.445)" fill="url(#linear-gradient-34)"/>
        </g>
      </g>
      <g id="Group_327" data-name="Group 327" transform="translate(42.971 42.136)">
        <path id="Path_1294" data-name="Path 1294" d="M18415.2,15498.289a1.085,1.085,0,0,0,1.107,1.053l2.66.025,11.828.107,20.256.158a1,1,0,0,0,.555-.158.527.527,0,0,0,.154-.107c.055-.025.082-.078.133-.1a.5.5,0,0,0,.133-.186.129.129,0,0,0,.051-.078h0l8.379-14.646a1.09,1.09,0,0,0-.344-1.5,1.586,1.586,0,0,0-.473-.131h0l-20.18-.158h-.078a1.168,1.168,0,0,0-1,.553l-8.166,14.252-11.275-.105h-2.633A1.082,1.082,0,0,0,18415.2,15498.289Z" transform="translate(-18415.172 -15482.539)" fill="#3498db"/>
        <g id="Group_326" data-name="Group 326">
          <path id="Path_1295" data-name="Path 1295" d="M18439.1,15481.94a1.105,1.105,0,0,0-1.475.449l-8.166,14.252-12.645-.107h-1.291a1.043,1.043,0,1,0-.025,2.08l14.461.133a.978.978,0,0,0,.555-.158.586.586,0,0,0,.158-.105c.053-.025.076-.08.131-.105a.727.727,0,0,0,.131-.184c.027-.027.053-.053.053-.08h0l8.379-14.646A1.059,1.059,0,0,0,18439.1,15481.94Z" transform="translate(-18414.391 -15481.811)" fill="url(#linear-gradient-35)"/>
          <path id="Path_1296" data-name="Path 1296" d="M18817.363,15969.839a.115.115,0,0,1-.107.1h-1.211a.112.112,0,0,1-.105-.1v-1.213a.112.112,0,0,1,.105-.105h1.211a.115.115,0,0,1,.107.105Z" transform="translate(-18803.402 -15953.322)" fill="#fff"/>
          <g id="Group_324" data-name="Group 324" transform="translate(7.876 15.145)">
            <path id="Path_1297" data-name="Path 1297" d="M18668.482,15967.357a.112.112,0,0,1-.105.1l-1.633-.025a.112.112,0,0,1-.105-.105v-.395a.113.113,0,0,1,.105-.105l1.633.027a.113.113,0,0,1,.105.1Z" transform="translate(-18666.639 -15966.83)" fill="#fff"/>
            <path id="Path_1298" data-name="Path 1298" d="M18668.482,15993.447a.115.115,0,0,1-.105.107l-1.633-.027a.113.113,0,0,1-.105-.105v-.395a.115.115,0,0,1,.105-.107l1.633.027a.114.114,0,0,1,.105.107Z" transform="translate(-18666.639 -15992.105)" fill="#fff"/>
          </g>
          <g id="Group_325" data-name="Group 325" transform="translate(10.194 15.145)">
            <path id="Path_1299" data-name="Path 1299" d="M18742.7,15967.357a.112.112,0,0,1-.107.1l-1.631-.025a.112.112,0,0,1-.107-.105v-.395a.114.114,0,0,1,.107-.105l1.631.027a.113.113,0,0,1,.107.1Z" transform="translate(-18740.852 -15966.83)" fill="#fff"/>
            <path id="Path_1300" data-name="Path 1300" d="M18742.7,15994.358a.114.114,0,0,1-.107.105l-1.631-.027a.114.114,0,0,1-.107-.105v-.395a.114.114,0,0,1,.107-.105l1.631.025a.114.114,0,0,1,.107.105Z" transform="translate(-18740.852 -15992.987)" fill="#fff"/>
          </g>
          <path id="Path_1301" data-name="Path 1301" d="M18447.854,15974.41h.713v-.922h-.713Zm-1.949,0h.711v-.922h-.711Zm.977,0h.709v-.922h-.709Zm-2.979-.025h.713v-.922h-.713Zm1,0h.711v-.922h-.711Zm4.031-.895h-.08v.92h.08a.491.491,0,0,0,.5-.445A.478.478,0,0,0,18448.936,15973.49Zm-5.875.42a.478.478,0,0,0,.5.475h.08v-.922h-.08A.445.445,0,0,0,18443.061,15973.91Z" transform="translate(-18442.164 -15958.109)" fill="url(#linear-gradient-36)"/>
        </g>
      </g>
    </g>
    <g id="_2113488562960" transform="translate(3277.864 7030.142)">
      <path id="Path_1302" data-name="Path 1302" d="M6676.665,16421.324s-7.561,27.527-8.851,33.109,8.93,9.8,13.908,3.559,11.723-14.961,13.882-22.18c2.135-7.219,2.028-13.225-1.923-19.018C6689.705,16411.025,6678.693,16413.895,6676.665,16421.324Z" transform="translate(-6641.562 -16359.167)" fill="url(#linear-gradient-37)"/>
      <g id="Group_328" data-name="Group 328" transform="translate(26.152 90.723)">
        <path id="Path_1303" data-name="Path 1303" d="M6736.135,19249.834s8.481-2.189,9.113-2.373c.686-.211,1.766-.605,1.9,1.635s.211,2.949.211,2.949-9.826.027-10.879-.105C6735.4,19251.834,6734.554,19251.018,6736.135,19249.834Z" transform="translate(-6733.163 -19194.975)" fill="#0f1b29"/>
        <path id="Path_1304" data-name="Path 1304" d="M6668.13,17578c1.265,6.9,1.765,6.824,3.53,15.121,1.791,8.3,6.8,32.164,6.8,32.164a1.71,1.71,0,0,0,1.369.367c1.027-.262,1.106-.867,1.106-.867a47.664,47.664,0,0,1-.1-10.09c.605-4.082,2.08-29.4,2.238-34.457.158-5.031-1.475-8.8-7.218-8.508C6670.105,17572.07,6667.576,17574.969,6668.13,17578Z" transform="translate(-6668.055 -17571.711)" fill="url(#linear-gradient-38)"/>
      </g>
      <g id="Group_329" data-name="Group 329" transform="translate(49.321 55.782)">
        <path id="Path_1305" data-name="Path 1305" d="M7909.06,19251.7c.026-.213.054-.4.079-.58.29-1.529,1.186-1.213,1.791-1.027.105.025.475.131,1,.291a7.682,7.682,0,0,0,1-.291c.605-.186,1.528-.527,1.791,1.027.026.156.053.367.079.58.132,2.186.211,2.9.211,2.9h-3.082c-1.738,0-3.082-.027-3.082-.027S7908.9,19253.885,7909.06,19251.7Z" transform="translate(-7893.274 -19162.582)" fill="#101b29"/>
        <path id="Path_1306" data-name="Path 1306" d="M7410.152,16463.088s8.112,30.529,9.667,35.9,12.3,4.137,13.592-3.582,4.268-23.312-1.369-39.037C7428.986,16447.861,7408.334,16455.764,7410.152,16463.088Z" transform="translate(-7410.039 -16452.682)" fill="#082947"/>
        <path id="Path_1307" data-name="Path 1307" d="M7683.5,17636.164c1.133,8.535,9.009,47.469,9.009,47.469s.184.344,1.212.131c1-.209,1.106-.842,1.106-.842a43.693,43.693,0,0,1,.422-9.43c.789-3.977,2.528-22.234,2.923-27.158s-.105-15.121-5.716-15.1C7686.817,17631.238,7683.366,17635.189,7683.5,17636.164Z" transform="translate(-7674.956 -17594.439)" fill="#082947"/>
      </g>
      <g id="Group_333" data-name="Group 333" transform="translate(21.09)">
        <path id="Path_1308" data-name="Path 1308" d="M6720.624,15235.8c-8.43,3.162-8.113,11.354-5.637,17.6,6.507,16.488,3.951,29.529,3.951,29.529s5.716,6.664,20.257,3.5c18.071-3.924,20.23-7.9,20.23-7.9a134.1,134.1,0,0,0-19.072-39.117c-2.607-3.66-6.795-6.85-14.013-5.373A39.757,39.757,0,0,0,6720.624,15235.8Z" transform="translate(-6706.979 -15215.953)" fill="#14b6c8"/>
        <g id="Group_332" data-name="Group 332">
          <path id="Path_1309" data-name="Path 1309" d="M6523.48,14668.488c-1.5-1.607-3.556-.42-4.61-.58s-1.633-2.424-4.425-1.422c-1.791.633-1.581,2.715-2.477,3.135s-3.266-1.027-5.215,1.107c-1.818,1.975-.527,6.875,3.134,7.611a18.076,18.076,0,0,0,6.4.977,5.933,5.933,0,0,1,.685.025l3.32,1.922s1.975,3.293,2.977,1.555c.026-.053.079-.131.105-.184.052-.105.131-.186.184-.289,1.37-2.055,3.082-2.689,3.029-5.139-.053-2.58-1.686-1.947-2.16-3.318C6523.98,14672.545,6525.3,14670.438,6523.48,14668.488Z" transform="translate(-6505.937 -14666.231)" fill="#082947"/>
          <path id="Path_1310" data-name="Path 1310" d="M6845.633,15209.506c.29,2.686.185,8.8,6.138,6.691,6.98-2.477,6.321-10.275,5.689-10.986-1.475-1.633-3.978.264-5.743.9C6849.953,15206.766,6845.4,15207.24,6845.633,15209.506Z" transform="translate(-6835.018 -15187.755)" fill="#082947"/>
          <g id="Group_331" data-name="Group 331" transform="translate(3.029 8.657)">
            <path id="Path_1311" data-name="Path 1311" d="M6902.394,15238.8c-.343.078-.711.156-1.08.264a33.39,33.39,0,0,0-5.584,2.08,13.228,13.228,0,0,0-1.739.922c.264,1.711,0,6.77,4.531,5.295C6903.157,15245.834,6902.946,15240.354,6902.394,15238.8Z" transform="translate(-6884.903 -15229.579)" fill="#f4aa74"/>
            <g id="Group_330" data-name="Group 330">
              <path id="Path_1312" data-name="Path 1312" d="M6619.1,14972.648c-1.527-5.059-5.215-7.455-8.481-9.824-.079-.133-4.9,3.529-7.665,1.58a30.914,30.914,0,0,0,3.451,6.32c1.9,2.5,3.477,3.559,5.479.844a4.823,4.823,0,0,1,1.423,3.662,3.163,3.163,0,0,0,3.846,2.949C6618.386,14977.943,6620.546,14977.391,6619.1,14972.648Z" transform="translate(-6602.95 -14962.217)" fill="#f4aa74"/>
              <path id="Path_1313" data-name="Path 1313" d="M6864.2,14943.643c.737.449.816,1.686.132,2.793-.658,1.08-1.791,1.607-2.529,1.16s-.816-1.687-.132-2.793C6862.334,14943.723,6863.467,14943.2,6864.2,14943.643Z" transform="translate(-6853.142 -14943.484)" fill="#f4aa74"/>
            </g>
          </g>
        </g>
      </g>
      <path id="Path_1314" data-name="Path 1314" d="M7128.917,15203.542s-1.923,2.4-1.026,13.514c.9,11.143,5.373,22.363,3.871,35.377s-1.527,13.328-1.527,13.328a28.146,28.146,0,0,0,18.888-2.449c10.114-5,13.381-10.984,13.381-10.984s-6.059-17.859-10.352-26.633c-4.294-8.744-8.456-16.119-13.039-19.412A16.063,16.063,0,0,0,7128.917,15203.542Z" transform="translate(-7087.149 -15186.719)" fill="url(#linear-gradient-39)"/>
      <path id="Path_1315" data-name="Path 1315" d="M6707.24,15306.3s-1.317,3.635-.369,13.461,3.82,18.887,3.5,26.658c-.291,7.77-4.189,16.41-4.189,16.41s-3.714-1.186-4.188-2.291c-.342-.738,3.952-11.248,3.741-17.465-.211-6.242-4.109-20.125-4.083-25.789C6701.709,15311.646,6703.895,15308.012,6707.24,15306.3Z" transform="translate(-6674.455 -15286.313)" fill="url(#linear-gradient-40)"/>
      <g id="Group_336" data-name="Group 336" transform="translate(25.005 23.711)">
        <g id="Group_335" data-name="Group 335">
          <g id="Group_334" data-name="Group 334">
            <path id="Path_1316" data-name="Path 1316" d="M6642.248,16067.578s-5.4,4.4-7.217,5.4c-1.317.738-3.108-2.082-3.662-3.24s2.66-4.451,5.637-7.217C6639.245,16060.387,6642.433,16067,6642.248,16067.578Z" transform="translate(-6631.307 -16042.224)" fill="#f4aa74"/>
            <path id="Path_1317" data-name="Path 1317" d="M6759.423,15438.993c-3.5,4.582-17.412,17.2-17.412,17.2s-1.9-.262-4.662-2.791c-4.162-3.793-4.479-6.217-4.479-6.217s7.587-10.668,13.355-17.357c4.584-5.27,11.143-5.217,13.435-2.029C6762.241,15431.433,6761.372,15436.411,6759.423,15438.993Z" transform="translate(-6729.699 -15425.598)" fill="url(#linear-gradient-41)"/>
          </g>
        </g>
      </g>
      <g id="Group_337" data-name="Group 337" transform="translate(0 31.834)">
        <path id="Path_1318" data-name="Path 1318" d="M6033.8,15688.442c.105-.711.58-2.844,1.08-2.713,1.37.316,1.449,3.371,1.186,4.846a.831.831,0,0,1-1.133.764A4.192,4.192,0,0,1,6033.8,15688.442Z" transform="translate(-6027.437 -15685.724)" fill="#f3a974"/>
        <path id="Path_1319" data-name="Path 1319" d="M5856.6,15714.815c-6.559-2.316-16.727-12.406-19.835-14.777a10.385,10.385,0,0,1-5.295-2.08c-2.027-1.475-.737-5.875,2.74-5.428.922.105,4.82,1.055,4.609,5.164.816,1.686,13.724,8.061,17.939,10.3,1.9,1,4.636,2.74,4.267,4.242C5860.451,15714.606,5859.028,15715.685,5856.6,15714.815Z" transform="translate(-5830.51 -15692.287)" fill="#f3a974"/>
      </g>
    </g>
    <path id="Path_1320" data-name="Path 1320" d="M12053.92,9184.809h-27.186v-27.186a3.018,3.018,0,0,0-3-3h-21.39a3.02,3.02,0,0,0-3,3v27.186h-27.184a3.018,3.018,0,0,0-3,3V9209.2a3.02,3.02,0,0,0,3,3h27.184v27.184a3.02,3.02,0,0,0,3,3h21.39a3.018,3.018,0,0,0,3-3V9212.23h27.186a3.02,3.02,0,0,0,3-3v-21.39A3.025,3.025,0,0,0,12053.92,9184.809Z" transform="translate(-8499.609 -2296.578)" fill="#fff"/>
  </g>
</svg>
