<svg xmlns="http://www.w3.org/2000/svg" width="128.018" height="137.489" viewBox="0 0 128.018 137.489">
  <g id="Layer_x0020_1" transform="translate(-602.14 -4077.35)">
    <path id="Path_1321" data-name="Path 1321" d="M1842.96,4077.35h32.386v24.443H1842.96Zm19.157,7.548h8.494a.98.98,0,0,1,.978.977v5.989a.98.98,0,0,1-.978.978h-8.494a.98.98,0,0,1-.978-.978v-5.989A.98.98,0,0,1,1862.117,4084.9Zm1.849,3.3h4.8v1.344h-4.8Zm-16.27-3.3h8.494a.98.98,0,0,1,.978.977v5.989a.98.98,0,0,1-.978.978H1847.7a.98.98,0,0,1-.978-.978v-5.989A.98.98,0,0,1,1847.7,4084.9Zm1.849,3.3h4.8v1.344h-4.8Z" transform="translate(-1212.163)" fill="#fff" fill-rule="evenodd"/>
    <path id="Path_1322" data-name="Path 1322" d="M1983.861,9168.411v4.907a1.992,1.992,0,0,1-1.986,1.986v11.273a1.5,1.5,0,0,1-1.5,1.5h0a1.5,1.5,0,0,1-1.5-1.5V9175.3H1961.71v11.273a1.5,1.5,0,0,1-1.5,1.5h0a1.5,1.5,0,0,1-1.5-1.5V9175.3a1.992,1.992,0,0,1-1.986-1.986v-4.908a28.377,28.377,0,0,0,27.131,0Z" transform="translate(-1323.305 -4973.48)" fill="#fff" fill-rule="evenodd"/>
    <path id="Path_1323" data-name="Path 1323" d="M1466.591,5241.49h35.565a7.293,7.293,0,0,1,7.271,7.271v58.357a25.127,25.127,0,0,1-25.054,25.054h0a25.128,25.128,0,0,1-25.054-25.054v-58.357A7.293,7.293,0,0,1,1466.591,5241.49Zm5.317,11.061h24.931a3.476,3.476,0,0,1,2.456,1.022l0,0a3.474,3.474,0,0,1,1.022,2.456v49.618a3.476,3.476,0,0,1-1.022,2.457l0,0a3.474,3.474,0,0,1-2.456,1.022h-24.931a3.472,3.472,0,0,1-2.456-1.022l0,0a3.475,3.475,0,0,1-1.023-2.457v-49.618a3.473,3.473,0,0,1,1.023-2.456l0,0A3.475,3.475,0,0,1,1471.908,5252.551Zm24.931,2.444h-24.931a1.034,1.034,0,0,0-.733.3l0,0a1.034,1.034,0,0,0-.3.733v49.618a1.032,1.032,0,0,0,.3.733l0,0a1.03,1.03,0,0,0,.733.3h24.931a1.03,1.03,0,0,0,.733-.3l0,0a1.032,1.032,0,0,0,.3-.733v-49.618a1.035,1.035,0,0,0-.3-.733l0,0A1.035,1.035,0,0,0,1496.839,5255Z" transform="translate(-837.383 -1137.254)" fill="#fff" fill-rule="evenodd"/>
    <circle id="Ellipse_52" data-name="Ellipse 52" cx="2.261" cy="2.261" r="2.261" transform="translate(625.665 4210.318)" fill="#fff"/>
    <circle id="Ellipse_53" data-name="Ellipse 53" cx="7.608" cy="7.608" r="7.608" transform="translate(604.767 4191.742)" fill="#fff"/>
    <circle id="Ellipse_54" data-name="Ellipse 54" cx="2.322" cy="2.322" r="2.322" transform="translate(687.505 4194.918)" fill="#fff"/>
    <circle id="Ellipse_55" data-name="Ellipse 55" cx="2.567" cy="2.567" r="2.567" transform="translate(725.025 4174.937)" fill="#fff"/>
    <circle id="Ellipse_56" data-name="Ellipse 56" cx="2.964" cy="2.964" r="2.964" transform="translate(602.14 4167.237)" fill="#fff"/>
    <circle id="Ellipse_57" data-name="Ellipse 57" cx="2.811" cy="2.811" r="2.811" transform="translate(608.556 4129.29)" fill="#fff"/>
    <circle id="Ellipse_58" data-name="Ellipse 58" cx="2.841" cy="2.841" r="2.841" transform="translate(606.112 4083.215)" fill="#fff"/>
    <circle id="Ellipse_59" data-name="Ellipse 59" cx="2.322" cy="2.322" r="2.322" transform="translate(686.406 4080.465)" fill="#fff"/>
    <circle id="Ellipse_60" data-name="Ellipse 60" cx="9.808" cy="9.808" r="9.808" transform="translate(707.794 4088.531)" fill="#fff"/>
    <circle id="Ellipse_61" data-name="Ellipse 61" cx="2.597" cy="2.597" r="2.597" transform="translate(724.231 4118.107)" fill="#fff"/>
    <path id="Path_1324" data-name="Path 1324" d="M3947.336,6236.3a24.626,24.626,0,1,1-24.626,24.626A24.626,24.626,0,0,1,3947.336,6236.3Zm-12.466,30.981H3959.8a1.991,1.991,0,0,1,1.986,1.986h0a1.992,1.992,0,0,1-1.986,1.986h-24.932a1.992,1.992,0,0,1-1.986-1.986h0A1.991,1.991,0,0,1,3934.871,6267.281Zm0-7.211H3959.8a1.992,1.992,0,0,1,1.986,1.986h0a1.992,1.992,0,0,1-1.986,1.986h-24.932a1.992,1.992,0,0,1-1.986-1.986h0A1.992,1.992,0,0,1,3934.871,6260.07Zm0-7.21H3959.8a1.992,1.992,0,0,1,1.986,1.986h0a1.992,1.992,0,0,1-1.986,1.986h-24.932a1.992,1.992,0,0,1-1.986-1.986h0A1.992,1.992,0,0,1,3934.871,6252.86Z" transform="translate(-3243.881 -2109.088)" fill="#fff" fill-rule="evenodd"/>
  </g>
</svg>
