<svg xmlns="http://www.w3.org/2000/svg" width="53.841" height="65.001" viewBox="0 0 53.841 65.001">
  <defs>
    <style>
      .cls-1 {
        fill: #34495e;
      }
    </style>
  </defs>
  <g id="Financial_Accounts" data-name="Financial Accounts" transform="translate(-43.954)">
    <path id="Path_68" data-name="Path 68" class="cls-1" d="M97.795,0H43.954V49.087a2.716,2.716,0,0,0,.766,1.932,2.506,2.506,0,0,0,1.8.744H57.437v10.6A2.673,2.673,0,0,0,59.754,65h38.04V0ZM58.4,17.133a9.491,9.491,0,0,0-1.45-.385,16.454,16.454,0,0,1-2.163-.585,3.685,3.685,0,0,1-1.506-1.025,2.78,2.78,0,0,1-.641-1.931,3.287,3.287,0,0,1,1.017-2.419,5.037,5.037,0,0,1,2.924-1.282V7.76h2.259V9.475a8.039,8.039,0,0,1,3.252.929l-1.138,2.74a6.955,6.955,0,0,0-3.124-.833q-1.458,0-1.458.7,0,.336.433.5a9.154,9.154,0,0,0,1.426.36,14.667,14.667,0,0,1,2.163.553,3.766,3.766,0,0,1,1.53,1.017,2.73,2.73,0,0,1,.649,1.923,3.267,3.267,0,0,1-.969,2.347,4.934,4.934,0,0,1-2.764,1.322v1.779H56.577v-1.7a10.724,10.724,0,0,1-2.3-.369A6.968,6.968,0,0,1,52.459,20l1.218-2.756a7.751,7.751,0,0,0,1.795.745,7.011,7.011,0,0,0,1.907.28,2.952,2.952,0,0,0,1.122-.152.489.489,0,0,0,.336-.457q0-.353-.441-.529Zm31.11,29.713H85.7V43.579L74.851,54.424,62.688,42.26l-4.931,4.931L55.064,44.5l7.624-7.624L74.851,49.038,83.189,40.7H79.551V36.892h9.955Zm.127-15.358H52.3V27.681H89.633Zm0-7.617H71.848V20.063H89.633Zm0-7.617H71.848V12.446H89.633Z"/>
    <path id="Path_69" data-name="Path 69" class="cls-1" d="M53.628,434.039H46.52a6.353,6.353,0,0,1-2.566-.536v.187a9.779,9.779,0,0,0,9.779,9.779h.461a6.43,6.43,0,0,1-.566-2.642Z" transform="translate(0 -378.468)"/>
  </g>
</svg>
