<svg xmlns="http://www.w3.org/2000/svg" width="64.75" height="64.729" viewBox="0 0 64.75 64.729">
  <defs>
    <style>
      .cls-1 {
        fill: #34495e;
      }
    </style>
  </defs>
  <g id="Businessman-Chess-Worker-Avatar-Working_Man" data-name="Businessman-Chess-Worker-Avatar-Working Man" transform="translate(-4.126 -4)">
    <path id="Path_77" data-name="Path 77" class="cls-1" d="M12.5,32.085a4.8,4.8,0,0,1,.686.128l-1.357-7.689a1.161,1.161,0,0,0-1.345-.943l1.5,8.509a4.75,4.75,0,0,1,.515,0Z" transform="translate(1.028 3.159)"/>
    <path id="Path_78" data-name="Path 78" class="cls-1" d="M4.621,21.3a2.308,2.308,0,0,0-.383,1.742l4.77,27.044,5.278,4.646a1.173,1.173,0,0,1,.376.671l.2,1.144L26.3,54.528l-1.161-6.558L14.895,35.747a2.309,2.309,0,0,0-1.577-.813,2.323,2.323,0,0,0-1.982,3.807l7.008,8.353-1.779,1.493L9.557,40.229a4.583,4.583,0,0,1,1.2-6.976L8.813,22.227A2.323,2.323,0,0,0,4.621,21.3Z" transform="translate(0.012 2.633)"/>
    <path id="Path_79" data-name="Path 79" class="cls-1" d="M15.31,26.96a1.161,1.161,0,0,0-1.346-.942L15.3,33.575l1.5,1.779Z" transform="translate(1.589 3.553)"/>
    <rect id="Rectangle_25" data-name="Rectangle 25" class="cls-1" width="16.261" height="6.968" transform="matrix(0.985, -0.174, 0.174, 0.985, 12.992, 61.867)"/>
    <rect id="Rectangle_26" data-name="Rectangle 26" class="cls-1" width="6.968" height="16.261" transform="translate(42.786 65.905) rotate(-79.998)"/>
    <path id="Path_80" data-name="Path 80" class="cls-1" d="M62.452,21.3a2.323,2.323,0,0,0-4.193.929L56.315,33.261a4.562,4.562,0,0,1,.63.429,4.646,4.646,0,0,1,.573,6.544l-7.008,8.353L48.73,47.094l7.008-8.353a2.323,2.323,0,1,0-3.56-2.985L41.927,47.969l-1.161,6.558,11.441,2.016.2-1.143a1.161,1.161,0,0,1,.376-.673l5.278-4.646,4.771-27.05a2.314,2.314,0,0,0-.381-1.734Z" transform="translate(5.917 2.633)"/>
    <path id="Path_81" data-name="Path 81" class="cls-1" d="M52.541,24.528l-1.357,7.69a4.653,4.653,0,0,1,1.2-.123l1.5-8.511h0A1.171,1.171,0,0,0,52.541,24.528Z" transform="translate(7.6 3.16)"/>
    <path id="Path_82" data-name="Path 82" class="cls-1" d="M49.084,26.959l-1.484,8.4,1.494-1.779,1.333-7.559h0a1.162,1.162,0,0,0-.865.2,1.142,1.142,0,0,0-.477.747Z" transform="translate(7.021 3.553)"/>
    <path id="Path_83" data-name="Path 83" class="cls-1" d="M31.021,16.983,31.5,16.5a1.161,1.161,0,0,1,1.642,0l.481.481a1.161,1.161,0,0,0,.821.34h.2a2.323,2.323,0,0,0-4.646,0h.2A1.161,1.161,0,0,0,31.021,16.983Z" transform="translate(4.179 1.776)"/>
    <path id="Path_84" data-name="Path 84" class="cls-1" d="M32.323,21.423A2.323,2.323,0,0,0,34.646,19.1h-.2a3.455,3.455,0,0,1-2.123-.721A3.459,3.459,0,0,1,30.2,19.1H30A2.323,2.323,0,0,0,32.323,21.423Z" transform="translate(4.179 2.322)"/>
    <path id="Path_85" data-name="Path 85" class="cls-1" d="M32.479,23a4.6,4.6,0,0,0-3.443,1.547,8.027,8.027,0,0,0,6.893,0c-.055-.062-.1-.13-.16-.188A4.659,4.659,0,0,0,32.479,23Z" transform="translate(4.023 3.068)"/>
    <path id="Path_86" data-name="Path 86" class="cls-1" d="M26.429,31.162a1.161,1.161,0,0,1,1.2,0,12.7,12.7,0,0,0,3.61,1.5,1.162,1.162,0,0,1,.853.847l.751,3.013h2.832l.754-3.013a1.161,1.161,0,0,1,.853-.847,12.7,12.7,0,0,0,3.608-1.5,1.162,1.162,0,0,1,1.2,0l2.664,1.6,2-2-1.6-2.664a1.161,1.161,0,0,1,0-1.2,12.7,12.7,0,0,0,1.5-3.615,1.162,1.162,0,0,1,.847-.853l3.013-.751V18.845l-3.013-.754a1.162,1.162,0,0,1-.847-.853,12.7,12.7,0,0,0-1.5-3.608,1.161,1.161,0,0,1,0-1.2l1.6-2.664-2.008-2-2.664,1.6a1.161,1.161,0,0,1-1.2,0,12.7,12.7,0,0,0-3.61-1.5,1.161,1.161,0,0,1-.853-.847L35.677,4H32.845l-.754,3.013a1.161,1.161,0,0,1-.853.847,12.7,12.7,0,0,0-3.608,1.5,1.161,1.161,0,0,1-1.2,0l-2.671-1.6-2,2.008,1.6,2.664a1.161,1.161,0,0,1,0,1.2,12.7,12.7,0,0,0-1.5,3.61,1.161,1.161,0,0,1-.847.853L18,18.845v2.832l3.013.754a1.161,1.161,0,0,1,.847.853,12.7,12.7,0,0,0,1.5,3.608,1.161,1.161,0,0,1,0,1.2l-1.6,2.664,2,2ZM34.261,9.807A10.453,10.453,0,1,1,23.807,20.261,10.453,10.453,0,0,1,34.261,9.807Z" transform="translate(2.241)"/>
    <path id="Path_87" data-name="Path 87" class="cls-1" d="M27.742,25.2a6.88,6.88,0,0,1,2.034-1.712,4.62,4.62,0,0,1-1.292-3.2V17.972a4.646,4.646,0,0,1,9.292,0V20.3A4.622,4.622,0,0,1,36.5,23.483a7.046,7.046,0,0,1,1.565,1.161,6.55,6.55,0,0,1,.465.547,8.13,8.13,0,1,0-10.786.008Z" transform="translate(3.371 1.127)"/>
    <path id="Path_88" data-name="Path 88" class="cls-1" d="M6.2,6.323a1.162,1.162,0,0,0,.822-.34L7.5,5.5a1.161,1.161,0,0,1,1.642,0l.481.481a1.161,1.161,0,0,0,.822.34h.2A2.323,2.323,0,1,0,6,6.323Z" transform="translate(0.303)"/>
    <path id="Path_89" data-name="Path 89" class="cls-1" d="M8.323,10.423A2.323,2.323,0,0,0,10.646,8.1h-.2a3.459,3.459,0,0,1-2.124-.721A3.459,3.459,0,0,1,6.2,8.1H6A2.323,2.323,0,0,0,8.323,10.423Z" transform="translate(0.303 0.546)"/>
    <path id="Path_90" data-name="Path 90" class="cls-1" d="M4.126,15.24h4.5A4.611,4.611,0,0,1,5.01,13.511a4.633,4.633,0,0,0-.884,1.729Z" transform="translate(0 1.536)"/>
    <path id="Path_91" data-name="Path 91" class="cls-1" d="M11.616,13.511A4.611,4.611,0,0,1,8,15.24h4.5a4.633,4.633,0,0,0-.884-1.729Z" transform="translate(0.626 1.536)"/>
    <path id="Path_92" data-name="Path 92" class="cls-1" d="M9.991,12.355a4.476,4.476,0,0,0-3.5,0,2.3,2.3,0,0,0,3.5,0Z" transform="translate(0.383 1.292)"/>
    <path id="Path_93" data-name="Path 93" class="cls-1" d="M54.2,6.323a1.161,1.161,0,0,0,.821-.34L55.5,5.5a1.161,1.161,0,0,1,1.642,0l.481.481a1.161,1.161,0,0,0,.821.34h.2a2.323,2.323,0,0,0-4.646,0Z" transform="translate(8.054)"/>
    <path id="Path_94" data-name="Path 94" class="cls-1" d="M56.323,10.423A2.323,2.323,0,0,0,58.646,8.1h-.2a3.453,3.453,0,0,1-2.123-.721A3.453,3.453,0,0,1,54.2,8.1H54A2.323,2.323,0,0,0,56.323,10.423Z" transform="translate(8.054 0.546)"/>
    <path id="Path_95" data-name="Path 95" class="cls-1" d="M59.616,13.512A4.615,4.615,0,0,1,56,15.24h4.5A4.609,4.609,0,0,0,59.616,13.512Z" transform="translate(8.377 1.536)"/>
    <path id="Path_96" data-name="Path 96" class="cls-1" d="M57.991,12.355a4.476,4.476,0,0,0-3.5,0,2.3,2.3,0,0,0,3.5,0Z" transform="translate(8.134 1.292)"/>
    <path id="Path_97" data-name="Path 97" class="cls-1" d="M52.127,15.24h4.5a4.615,4.615,0,0,1-3.616-1.728,4.609,4.609,0,0,0-.883,1.728Z" transform="translate(7.752 1.536)"/>
  </g>
</svg>
