<svg xmlns="http://www.w3.org/2000/svg" width="65" height="65" viewBox="0 0 65 65">
  <defs>
    <style>
      .cls-1 {
        fill: #34495e;
      }
    </style>
  </defs>
  <g id="Telemedicine" transform="translate(-3 -3)">
    <path id="Path_37" data-name="Path 37" class="cls-1" d="M29.448,11.121h-2.8a33.043,33.043,0,0,1-8-.985,4.553,4.553,0,0,0-1.1-.136A1.546,1.546,0,0,0,16,11.544v5.18a6.751,6.751,0,0,0,6.762,6.724h.2a6.5,6.5,0,0,0,6.489-6.489ZM19.362,13.362a1.121,1.121,0,1,1-1.121,1.121A1.121,1.121,0,0,1,19.362,13.362Zm7.608,5.22a4.747,4.747,0,0,1-8.493,0l-.118-.236,2-1,.118.238a2.506,2.506,0,0,0,4.483,0l.118-.236,2,1ZM26.086,15.6a1.121,1.121,0,1,1,1.121-1.121A1.121,1.121,0,0,1,26.086,15.6Z" transform="translate(1.569 0.845)"/>
    <path id="Path_38" data-name="Path 38" class="cls-1" d="M18,59H49.379v2.241H18Z" transform="translate(1.81 6.759)"/>
    <path id="Path_39" data-name="Path 39" class="cls-1" d="M5.241,37.475a11.171,11.171,0,0,1,9.364-11.054l4.3-.716.416-1.663A9,9,0,0,1,15.655,19l-.458-.275a9.009,9.009,0,0,1-4.352-7.687c0-.013,0-.027,0-.041H4.121A1.123,1.123,0,0,0,3,12.121v32.5H5.241Z" transform="translate(0 0.966)"/>
    <path id="Path_40" data-name="Path 40" class="cls-1" d="M19.121,55A1.123,1.123,0,0,0,18,56.121v1.121h7.845V55Z" transform="translate(1.81 6.276)"/>
    <path id="Path_41" data-name="Path 41" class="cls-1" d="M25.629,24.965l-.336-1.345a8.678,8.678,0,0,1-2.7.434h-.2a9,9,0,0,1-2.961-.5l-.353,1.41,3.276,4.913Z" transform="translate(1.94 2.481)"/>
    <path id="Path_42" data-name="Path 42" class="cls-1" d="M26.892,26.093,23,31.932V42.8H38.69V35.654a8.933,8.933,0,0,0-6.724-8.68v8.292a2.241,2.241,0,1,1-2.241,0v-8.7Z" transform="translate(2.414 2.787)"/>
    <path id="Path_43" data-name="Path 43" class="cls-1" d="M62.534,3H40.121A1.123,1.123,0,0,0,39,4.121V27.282a.388.388,0,0,0,.672.225l3.25-4.335H62.534a1.123,1.123,0,0,0,1.121-1.121V4.121A1.123,1.123,0,0,0,62.534,3ZM58.052,14.207a1.124,1.124,0,0,1-1.121,1.121H53.569V18.69a1.124,1.124,0,0,1-1.121,1.121H50.207a1.124,1.124,0,0,1-1.121-1.121V15.328H45.724A1.124,1.124,0,0,1,44.6,14.207V11.966a1.124,1.124,0,0,1,1.121-1.121h3.362V7.483a1.124,1.124,0,0,1,1.121-1.121h2.241a1.124,1.124,0,0,1,1.121,1.121v3.362h3.362a1.124,1.124,0,0,1,1.121,1.121Z" transform="translate(4.345)"/>
    <path id="Path_44" data-name="Path 44" class="cls-1" d="M13.724,32.826V26.974A8.933,8.933,0,0,0,7,35.654V42.8H22.69V31.932L18.8,26.093l-2.832.472v6.261a5.613,5.613,0,0,1,4.483,5.49v2.241H18.207V38.316a3.362,3.362,0,0,0-6.724,0v2.241H9.241V38.316a5.614,5.614,0,0,1,4.483-5.49Z" transform="translate(0.483 2.787)"/>
    <path id="Path_45" data-name="Path 45" class="cls-1" d="M27,51H38.207v6.724H27Z" transform="translate(2.897 5.793)"/>
    <path id="Path_46" data-name="Path 46" class="cls-1" d="M14.241,12.389A3.791,3.791,0,0,1,18.027,8.6a6.781,6.781,0,0,1,1.644.2,30.836,30.836,0,0,0,7.459.918h3.81a5.73,5.73,0,0,0,4.594-5.6A1.123,1.123,0,0,0,34.414,3H20.966A8.976,8.976,0,0,0,12,11.966a6.8,6.8,0,0,0,2.241,5.051Z" transform="translate(1.086)"/>
    <path id="Path_47" data-name="Path 47" class="cls-1" d="M42.979,27.885a2.615,2.615,0,0,1-4.707-1.569V11H34.91a9.025,9.025,0,0,1-4.353,7.728l-.4.242a8.753,8.753,0,0,1-3.689,5.173l.39,1.561,4.3.716a11.171,11.171,0,0,1,9.364,11.054v7.146H62.927V24.448H45.556Zm12.1-.075h4.483v4.483H55.082Zm0,8.966h4.483v4.483H55.082ZM46.117,27.81H50.6v4.483H46.117Zm0,8.966H50.6v4.483H46.117Z" transform="translate(2.832 0.966)"/>
    <path id="Path_48" data-name="Path 48" class="cls-1" d="M45.724,55H39v2.241h7.845V56.121A1.123,1.123,0,0,0,45.724,55Z" transform="translate(4.345 6.276)"/>
    <path id="Path_49" data-name="Path 49" class="cls-1" d="M3,48.6a1.123,1.123,0,0,0,1.121,1.121H64.638A1.123,1.123,0,0,0,65.759,48.6V43H3Zm35.862-3.362H41.1v2.241H38.862Zm-8.966,0h6.724v2.241H29.9Z" transform="translate(0 4.828)"/>
    <path id="Path_50" data-name="Path 50" class="cls-1" d="M30,16.172a6.753,6.753,0,0,0,2.241-4.992,9.348,9.348,0,0,0-.1-1.337A7.929,7.929,0,0,1,30,10.894Z" transform="translate(3.259 0.826)"/>
  </g>
</svg>
