<svg xmlns="http://www.w3.org/2000/svg" width="170.182" height="151.462" viewBox="0 0 170.182 151.462">
  <defs>
    <style>
      .cls-1, .cls-2 {
        fill: #fff;
      }

      .cls-1 {
        fill-rule: evenodd;
      }
    </style>
  </defs>
  <g id="Zero_Upfront_Cost" data-name="Zero Upfront Cost" transform="translate(-344 -1360)">
    <g id="Layer_x0020_1" transform="translate(366.875 1373.615)">
      <path id="Path_105" data-name="Path 105" class="cls-1" d="M4127.511,3686.83a54.3,54.3,0,1,1-54.3,54.3A54.3,54.3,0,0,1,4127.511,3686.83Zm-19.56,46.491a2.822,2.822,0,0,0,1.58,2.588,24.355,24.355,0,0,0,4.878,1.855,42.078,42.078,0,0,1,5.428,1.924,9.626,9.626,0,0,1,3.642,2.886,8,8,0,0,1,1.512,5.085,8.51,8.51,0,0,1-2.726,6.551,12.561,12.561,0,0,1-7.215,3.069v6.642h-5.268v-6.642a22.979,22.979,0,0,1-6.23-1.695,20.381,20.381,0,0,1-5.268-3.252l2.886-5.909a19.5,19.5,0,0,0,5.589,3.527,15.047,15.047,0,0,0,5.772,1.329,6.36,6.36,0,0,0,3.5-.825,2.879,2.879,0,0,0,.412-4.42,6.493,6.493,0,0,0-2.153-1.306q-1.305-.5-3.6-1.145a40.926,40.926,0,0,1-5.382-1.833,9.471,9.471,0,0,1-3.6-2.794,7.728,7.728,0,0,1-1.511-4.993,8.327,8.327,0,0,1,2.588-6.253,12.317,12.317,0,0,1,6.986-3.138v-6.23h5.268v6.184a24.943,24.943,0,0,1,5.269,1.191,19.184,19.184,0,0,1,4.489,2.2l-2.794,6a24.343,24.343,0,0,0-5.245-2.4,15.893,15.893,0,0,0-4.741-.893,5.583,5.583,0,0,0-2.978.687A2.229,2.229,0,0,0,4107.951,3733.321Zm34.814-8.612q6.733,0,10.353,4.214t3.619,12.094q0,7.834-3.619,12.07t-10.353,4.238q-6.779,0-10.421-4.238t-3.642-12.07q0-7.879,3.642-12.094T4142.765,3724.709Zm0,5.543a5.51,5.51,0,0,0-5.039,2.565q-1.6,2.565-1.6,8.2,0,5.588,1.6,8.177a5.5,5.5,0,0,0,5.039,2.588,5.411,5.411,0,0,0,4.947-2.588q1.6-2.588,1.6-8.177,0-5.635-1.6-8.2A5.425,5.425,0,0,0,4142.765,3730.252Z" transform="translate(-4073.21 -3686.83)"/>
    </g>
    <circle id="Ellipse_62" data-name="Ellipse 62" class="cls-2" cx="9.36" cy="9.36" r="9.36" transform="translate(353.36 1478.277)"/>
    <circle id="Ellipse_64" data-name="Ellipse 64" class="cls-2" cx="9.36" cy="9.36" r="9.36" transform="translate(480.997 1377.018)"/>
    <circle id="Ellipse_63" data-name="Ellipse 63" class="cls-2" cx="4.68" cy="4.68" r="4.68" transform="translate(504.822 1441.688)"/>
    <circle id="Ellipse_65" data-name="Ellipse 65" class="cls-2" cx="4.68" cy="4.68" r="4.68" transform="translate(432.495 1502.102)"/>
    <circle id="Ellipse_66" data-name="Ellipse 66" class="cls-2" cx="3.404" cy="3.404" r="3.404" transform="translate(353.36 1373.615)"/>
    <circle id="Ellipse_68" data-name="Ellipse 68" class="cls-2" cx="2.127" cy="2.127" r="2.127" transform="translate(344 1428.073)"/>
    <circle id="Ellipse_69" data-name="Ellipse 69" class="cls-2" cx="2.127" cy="2.127" r="2.127" transform="translate(390.8 1488.488)"/>
    <circle id="Ellipse_70" data-name="Ellipse 70" class="cls-2" cx="2.127" cy="2.127" r="2.127" transform="translate(437.6 1360)"/>
  </g>
</svg>
