<svg xmlns="http://www.w3.org/2000/svg" width="184.717" height="156.444" viewBox="0 0 184.717 156.444">
  <g id="Pay_For_What_You_Can_Use" data-name="Pay For What You Can Use" transform="translate(-888 -1341.018)">
    <g id="Zero_Upfront_Cost" data-name="Zero Upfront Cost" transform="translate(888 1341.018)">
      <circle id="Ellipse_62" data-name="Ellipse 62" cx="9.36" cy="9.36" r="9.36" transform="translate(156.637 14.466)" fill="#fff"/>
      <circle id="Ellipse_64" data-name="Ellipse 64" cx="9.36" cy="9.36" r="9.36" transform="translate(0 137.724)" fill="#fff"/>
      <circle id="Ellipse_63" data-name="Ellipse 63" cx="4.68" cy="4.68" r="4.68" transform="translate(14.535 60.415)" fill="#fff"/>
      <circle id="Ellipse_65" data-name="Ellipse 65" cx="4.68" cy="4.68" r="4.68" transform="translate(86.862 0)" fill="#fff"/>
      <ellipse id="Ellipse_66" data-name="Ellipse 66" cx="3.404" cy="3.404" rx="3.404" ry="3.404" transform="translate(168.549 131.04)" fill="#fff"/>
      <circle id="Ellipse_68" data-name="Ellipse 68" cx="2.127" cy="2.127" r="2.127" transform="translate(180.462 79.135)" fill="#fff"/>
      <circle id="Ellipse_69" data-name="Ellipse 69" cx="2.127" cy="2.127" r="2.127" transform="translate(133.662 18.72)" fill="#fff"/>
      <circle id="Ellipse_70" data-name="Ellipse 70" cx="2.127" cy="2.127" r="2.127" transform="translate(86.862 147.208)" fill="#fff"/>
    </g>
    <g id="Pay_for_what_you_use" data-name="Pay for what you use" transform="translate(926.997 1370.339)">
      <g id="Group_343" data-name="Group 343" transform="translate(0.003 0)">
        <g id="Group_342" data-name="Group 342" transform="translate(0)">
          <path id="Path_1325" data-name="Path 1325" d="M101.571,89.183H84.23a19.818,19.818,0,0,1,0-39.636h17.341a2.476,2.476,0,0,0,2.477-2.477V39.638a9.888,9.888,0,0,0-9.12-9.829L80.7,4.959A9.8,9.8,0,0,0,67.25,1.335L18.478,29.729H9.912A9.919,9.919,0,0,0,0,39.638V99.092A9.919,9.919,0,0,0,9.912,109H94.139a9.919,9.919,0,0,0,9.909-9.909V91.661A2.476,2.476,0,0,0,101.571,89.183ZM83.773,20.3l5.4,9.428H67.579ZM28.325,29.729,69.744,5.617a4.791,4.791,0,0,1,3.68-.5,4.857,4.857,0,0,1,2.976,2.3l.005.009-38.3,22.3Z" transform="translate(-0.003 0)" fill="#fff"/>
          <path id="Path_1326" data-name="Path 1326" d="M330.875,234.674H313.534a14.864,14.864,0,0,0,0,29.727h17.341a7.44,7.44,0,0,0,7.432-7.432V242.106A7.44,7.44,0,0,0,330.875,234.674Zm-17.341,19.818a4.954,4.954,0,1,1,4.954-4.954A4.961,4.961,0,0,1,313.534,254.492Z" transform="translate(-229.306 -180.172)" fill="#fff"/>
        </g>
      </g>
    </g>
  </g>
</svg>
