<svg id="Capa_1" enable-background="new 0 0 512 512" height="512" viewBox="0 0 512 512" width="512" xmlns="http://www.w3.org/2000/svg"><g><path d="m256 0c-59.692 0-114.536 21.764-158.031 56.248 10.056 14.147 18.16 29.707 23.763 46.514 7.681 23.044 21.215 43.89 38.839 60.515 8.135-14.815 24.199-24.505 42.153-23.41 8.329.536 15.886 3.455 22.332 7.842 5.017-10.662 11.539-20.795 20.339-29.595 40.913-40.928 107.549-40.928 148.491 0 40.942 40.942 40.942 107.549 0 148.491-10.547 10.547-23.203 18.691-37.061 23.936-3.105 39.038-19.849 75.396-47.798 103.345l-14.839 14.854c-40.946 40.946-107.562 40.928-148.491 0-28.359-28.345-34.409-63.369-32.388-89.619-12.437.923-25.151-3.574-34.644-13.052-17.534-17.563-17.534-46.113-.015-63.662 21.949-21.962 52.577-29.288 78.937-21.5-1.36-7.749-2.17-15.569-2.41-23.487-28.564-21.489-50.588-51.238-61.893-85.164-4.312-12.924-10.558-24.849-18.049-35.896-45.843 46.127-75.235 109.62-75.235 179.64 0 140.61 115.39 256 256 256s256-115.39 256-256-115.39-256-256-256z"/><path d="m100.99 262.519c-6.958 6.943-6.958 16.479-1.099 22.324 5.845 5.83 15.366 5.845 21.211-.015l15.908-15.894 16.699 23.379-6.357 9.214c-2.813 4.644-15.703 50.742 19.556 86.001 29.238 29.238 76.831 29.238 106.069 0l14.839-14.854c24.976-24.976 39.009-58.169 39.521-93.457l.161-11.426c5.797-2.106 26.424-3.677 45.176-22.397 29.238-29.238 29.238-76.831 0-106.069-29.224-29.238-76.816-29.238-106.069 0-29.238 29.238-29.238 76.831 0 106.069 7.207 7.207 15.615 12.773 25.005 16.553l-11.221 27.832c-13.14-5.288-24.917-13.096-34.995-23.174-22.152-22.152-31.895-51.788-30.077-80.834l-.406-.026c.513-8.262-5.801-15.41-14.077-15.938-8.086-.205-15.337 5.801-15.879 14.063-3.457 55.254 22.315 70.181 24.888 102.114 1.772 21.973-6.138 43.521-21.724 59.106l-21.211-21.211c9.346-9.346 14.106-22.28 13.037-35.479-3.069-37.853-49.004-55.832-78.955-25.881z"/></g></svg>