<svg height="512" viewBox="0 0 58 60" width="512" xmlns="http://www.w3.org/2000/svg"><g id="Page-1" fill="none" fill-rule="evenodd"><g id="042---Big-Data" fill="rgb(0,0,0)" fill-rule="nonzero"><circle id="Oval" cx="19" cy="21" r="2"/><circle id="Oval" cx="29" cy="14" r="2"/><circle id="Oval" cx="39" cy="21" r="2"/><path id="Shape" d="m11.02 33h16.98v-4h-7c-1.6548028-.0049422-2.9950578-1.3451972-3-3v-1.13c-1.9503067-.503567-3.2219252-2.3787867-2.9681188-4.3770005s1.9538507-3.4959828 3.9681188-3.4959828 3.7143124 1.497769 3.9681188 3.4959828-1.0178121 3.8734335-2.9681188 4.3770005v1.13c0 .5522847.4477153 1 1 1h7v-9.13c-1.9503067-.503567-3.2219252-2.3787867-2.9681188-4.3770005s1.9538507-3.49598285 3.9681188-3.49598285 3.7143124 1.49776905 3.9681188 3.49598285-1.0178121 3.8734335-2.9681188 4.3770005v9.13h7c.5522847 0 1-.4477153 1-1v-1.13c-1.9503067-.503567-3.2219252-2.3787867-2.9681188-4.3770005s1.9538507-3.4959828 3.9681188-3.4959828 3.7143124 1.497769 3.9681188 3.4959828-1.0178121 3.8734335-2.9681188 4.3770005v1.13c-.0049422 1.6548028-1.3451972 2.9950578-3 3h-7v4h15.25c6.0233382-.0932028 10.8334691-5.0465191 10.75-11.07.0501449-5.3441066-3.7527747-9.9489737-9.01-10.91-.8563266-6.25337059-6.1587861-10.93926501-12.47-11.02-4.3241075.01840404-8.3322122 2.26823638-10.6 5.95-.8783107-.2487892-1.7871393-.37333237-2.7-.37-5.0785106.06008164-9.3442984 3.83628298-10.02 8.87h-.18c-5.04848564.074048-9.08396609 4.2213766-9.02 9.27-.0684259 5.0520642 3.968031 9.2048713 9.02 9.28z"/><path id="Shape" d="m22 54h-20c-1.10320187.0032948-1.9967052.8967981-2 2v2c.0032948 1.1032019.89679813 1.9967052 2 2h1v-2c0-.5522847.44771525-1 1-1s1 .4477153 1 1v2h2v-2c0-.5522847.44771525-1 1-1s1 .4477153 1 1v2h13c1.1032019-.0032948 1.9967052-.8967981 2-2v-2c-.0032948-1.1032019-.8967981-1.9967052-2-2z"/><rect id="Rectangle-path" height="4" rx="1" width="20" x="2" y="49"/><path id="Shape" d="m56 54h-20c-1.1032019.0032948-1.9967052.8967981-2 2v2c.0032948 1.1032019.8967981 1.9967052 2 2h1v-2c0-.5522847.4477153-1 1-1s1 .4477153 1 1v2h2v-2c0-.5522847.4477153-1 1-1s1 .4477153 1 1v2h13c1.1032019-.0032948 1.9967052-.8967981 2-2v-2c-.0032948-1.1032019-.8967981-1.9967052-2-2z"/><path id="Shape" d="m56 42h-9v-1c0-1.6568542-1.3431458-3-3-3h-14v-3h-2v3h-14c-1.6548028.0049422-2.9950578 1.3451972-3 3v1h-9c-1.10320187.0032948-1.9967052.8967981-2 2v2c.0032948 1.1032019.89679813 1.9967052 2 2h1v-2c0-.5522847.44771525-1 1-1s1 .4477153 1 1v2h2v-2c0-.5522847.44771525-1 1-1s1 .4477153 1 1v2h13c1.1032019-.0032948 1.9967052-.8967981 2-2v-2c-.0032948-1.1032019-.8967981-1.9967052-2-2h-9v-1c0-.5522847.4477153-1 1-1h30c.5522847 0 1 .4477153 1 1v1h-9c-1.1032019.0032948-1.9967052.8967981-2 2v2c.0032948 1.1032019.8967981 1.9967052 2 2h1v-2c0-.5522847.4477153-1 1-1s1 .4477153 1 1v2h2v-2c0-.5522847.4477153-1 1-1s1 .4477153 1 1v2h13c1.1032019-.0032948 1.9967052-.8967981 2-2v-2c-.0032948-1.1032019-.8967981-1.9967052-2-2z"/><rect id="Rectangle-path" height="4" rx="1" width="20" x="36" y="49"/></g></g></svg>