<?xml version="1.0" encoding="iso-8859-1"?>
<!-- Generator: Adobe Illustrator 19.0.0, SVG Export Plug-In . SVG Version: 6.00 Build 0)  -->
<svg version="1.1" id="Capa_1" xmlns="http://www.w3.org/2000/svg" xmlns:xlink="http://www.w3.org/1999/xlink" x="0px" y="0px"
	 viewBox="0 0 512 512" style="enable-background:new 0 0 512 512;" xml:space="preserve">
<g>
	<g>
		<path d="M451.144,79.939h-48.647V59.464c0-13.04-10.571-23.611-23.611-23.611c-13.04,0-23.611,10.571-23.611,23.611v20.475
			h-75.663V59.464c0-13.04-10.571-23.611-23.611-23.611S232.39,46.423,232.39,59.464v20.475h-75.663V59.464
			c0-13.04-10.571-23.611-23.611-23.611c-13.04,0-23.611,10.571-23.611,23.611v20.475H60.857C27.247,79.939,0,107.186,0,140.796
			v31.377h512v-31.378C512,107.185,484.754,79.939,451.144,79.939z"/>
	</g>
</g>
<g>
	<g>
		<path d="M0,202.173v213.119c0,33.557,27.301,60.856,60.857,60.856h390.285c33.557,0,60.857-27.3,60.857-60.856V202.173H0z
			 M330.511,331.613c0,8.284-6.716,15-15,15h-38.268v38.268c0,8.284-6.716,15-15,15h-12.486c-8.284,0-15-6.716-15-15v-38.268
			h-38.268c-8.284,0-15-6.716-15-15v-12.486c0-8.284,6.716-15,15-15h38.268v-38.268c0-8.284,6.716-15,15-15h12.486
			c8.284,0,15,6.716,15,15v38.268h38.268c8.284,0,15,6.716,15,15V331.613z"/>
	</g>
</g>
<g>
</g>
<g>
</g>
<g>
</g>
<g>
</g>
<g>
</g>
<g>
</g>
<g>
</g>
<g>
</g>
<g>
</g>
<g>
</g>
<g>
</g>
<g>
</g>
<g>
</g>
<g>
</g>
<g>
</g>
</svg>
