<svg id="Capa_1" enable-background="new 0 0 512 512" height="512" viewBox="0 0 512 512" width="512" xmlns="http://www.w3.org/2000/svg"><g><g><g><path d="m157.093 112.961c-15.525 16.62-37.609 27.039-62.093 27.039s-46.568-10.419-62.093-27.039c-19.846 13.508-32.907 36.275-32.907 62.039v40c0 8.284 6.716 15 15 15h160c8.284 0 15-6.716 15-15v-40c0-25.764-13.061-48.531-32.907-62.039z"/></g><path d="m95 110c-30.327 0-55-24.673-55-55s24.673-55 55-55 55 24.673 55 55-24.673 55-55 55z"/></g><g><g><path d="m157.093 394.961c-15.525 16.62-37.609 27.039-62.093 27.039s-46.568-10.419-62.093-27.039c-19.846 13.508-32.907 36.275-32.907 62.039v40c0 8.284 6.716 15 15 15h160c8.284 0 15-6.716 15-15v-40c0-25.764-13.061-48.531-32.907-62.039z"/></g><path d="m95 392c-30.327 0-55-24.673-55-55s24.673-55 55-55 55 24.673 55 55-24.673 55-55 55z"/></g><g><path d="m282 282h-45c-8.284 0-15 6.716-15 15v55c0 8.284 6.716 15 15 15h45z"/><path d="m497 282h-185v85h185c8.284 0 15-6.716 15-15v-55c0-8.284-6.716-15-15-15z"/></g><g><path d="m412 427h-175c-8.284 0-15 6.716-15 15v55c0 8.284 6.716 15 15 15h175z"/><path d="m497 427h-55v85h55c8.284 0 15-6.716 15-15v-55c0-8.284-6.716-15-15-15z"/></g><g><path d="m497 0h-75v85h75c8.284 0 15-6.716 15-15v-55c0-8.284-6.716-15-15-15z"/><path d="m392 0h-155c-8.284 0-15 6.716-15 15v55c0 8.284 6.716 15 15 15h155z"/></g><g><path d="m497 145h-145v85h145c8.284 0 15-6.716 15-15v-55c0-8.284-6.716-15-15-15z"/><path d="m322 145h-85c-8.284 0-15 6.716-15 15v55c0 8.284 6.716 15 15 15h85z"/></g></g></svg>