<svg id="bold" enable-background="new 0 0 24 24" height="512" viewBox="0 0 24 24" width="512" xmlns="http://www.w3.org/2000/svg"><path d="m15 2h-6c-.552 0-1-.448-1-1s.448-1 1-1h6c.552 0 1 .448 1 1s-.448 1-1 1z"/><path d="m17.419 24h-9.946c-3.127 0-5.324-1.673-5.465-4.164-.055-.973.199-1.913.736-2.717l5.729-8.328c.344-.503.527-1.091.527-1.701v-5.59c0-.552.448-1 1-1s1 .448 1 1v5.59c0 1.017-.305 1.997-.881 2.834l-5.72 8.316c-.286.429-.425.945-.395 1.482.079 1.384 1.44 2.278 3.469 2.278h9.947c1.349 0 2.505-1.021 2.576-2.277.031-.537-.108-1.053-.403-1.494l-5.712-8.305c-.576-.837-.881-1.817-.881-2.834v-5.59c0-.552.448-1 1-1s1 .448 1 1v5.59c0 .61.183 1.198.528 1.7l5.72 8.316c.545.816.799 1.756.744 2.729-.132 2.336-2.141 4.165-4.573 4.165z"/><path d="m16.846 20h-9.692c-.636 0-1.154-.497-1.154-1.107 0-.239.078-.466.226-.658.013-.017.027-.034.042-.05l2.827-3.686c.134-.174.337-.281.557-.292.181-.009.356-.051.494-.118l.624-.311c.75-.366 1.712-.367 2.457-.003l.636.317c.131.063.306.105.487.115.219.011.423.118.557.292l2.827 3.685c.015.016.029.033.042.05.146.192.224.42.224.659 0 .61-.518 1.107-1.154 1.107z"/></svg>