<?xml version="1.0" encoding="UTF-8"?>
<!DOCTYPE svg PUBLIC "-//W3C//DTD SVG 1.1//EN" "http://www.w3.org/Graphics/SVG/1.1/DTD/svg11.dtd">
<!-- Creator: CorelDRAW 2020 (64-Bit Evaluation Version) -->
<?xml-stylesheet href="Medical Consultation.css" type="text/css"?>
<svg xmlns="http://www.w3.org/2000/svg" xml:space="preserve" width="300mm" height="250mm" version="1.1" style="shape-rendering:geometricPrecision; text-rendering:geometricPrecision; image-rendering:optimizeQuality; fill-rule:evenodd; clip-rule:evenodd"
viewBox="0 0 30000 25000"
 xmlns:xlink="http://www.w3.org/1999/xlink"
 xmlns:xodm="http://www.corel.com/coreldraw/odm/2003">
 <g id="Layer_x0020_1">
  <metadata id="CorelCorpID_0Corel-Layer"/>
  <path class="fil0" d="M3307.76 3429.94l3046.98 0c82.62,0 150,67.4 150,150l0 1607.93 -921.56 0c-193,0 -350,157 -350,350l0 542.62 -689.69 0c-34,0 -63.24,9.8 -90.37,30.28l-361.72 273.07 -161.46 121.89c-46.54,35.14 -105.05,40.55 -157.25,14.55 -52.2,-25.99 -83.13,-75.95 -83.13,-134.27l0 -155.52c0,-82.62 -67.38,-150 -150,-150l-231.8 0c-82.61,0 -150,-67.38 -150,-150l0 -2350.55c0,-82.62 67.38,-150 150,-150zm2275.42 1957.93l2497.96 0c82.62,0 150,67.39 150,150l0 1366.92c0,82.61 -67.39,150 -150,150l-116.67 0c-82.61,0 -150,67.39 -150,150l0 161.15c0,58.31 -30.93,108.28 -83.13,134.27 -52.2,25.99 -110.72,20.59 -157.25,-14.55l-161.46 -121.89 -401.83 -303.36 7.44 -5.62 -1435.06 0c-82.61,0 -150,-67.38 -150,-150l0 -1366.92c0,-82.62 67.38,-150 150,-150zm291.52 889.96l1914.92 0c59.12,0 107.49,48.37 107.49,107.49l0 0c0,59.12 -48.37,107.49 -107.49,107.49l-1914.92 0c-59.12,0 -107.49,-48.37 -107.49,-107.49l0 0c0,-59.12 48.37,-107.49 107.49,-107.49zm0 -416.72l1914.92 0c59.12,0 107.49,48.37 107.49,107.49l0 0c0,59.12 -48.37,107.49 -107.49,107.49l-1914.92 0c-59.12,0 -107.49,-48.37 -107.49,-107.49l0 0c0,-59.12 48.37,-107.49 107.49,-107.49zm-1147.39 -1941.89l207.86 0c81.12,0 147.29,66.15 147.29,147.27l0 393.85 393.85 0c81.12,0 147.27,66.15 147.27,147.28l0 207.86c0,81.12 -66.15,147.29 -147.27,147.29l-393.85 0 0 393.85c0,81.12 -66.17,147.27 -147.29,147.27l-207.86 0c-81.13,0 -147.28,-66.15 -147.28,-147.27l0 -393.85 -393.85 0c-81.12,0 -147.27,-66.17 -147.27,-147.29l0 -207.86c0,-81.13 66.15,-147.28 147.27,-147.28l393.85 0 0 -393.85c0,-81.12 66.15,-147.27 147.28,-147.27z"/>
 </g>
</svg>
