<svg id="Capa_1" enable-background="new 0 0 512 512" height="512" viewBox="0 0 512 512" width="512" xmlns="http://www.w3.org/2000/svg"><g><path d="m0 16v480h512v-480zm482 30v120h-33.763c1.681-4.715 2.763-9.716 2.763-15 0-24.814-20.186-45-45-45h-210c-17.776 0-33.034 10.444-40.34 25.444.807-3.367 1.346-6.833 1.346-10.444 0-24.814-20.186-45-45-45s-45 20.186-45 45 20.186 45 45 45c17.776 0 33.034-10.444 40.34-25.444-.808 3.367-1.346 6.833-1.346 10.444 0 5.284 1.082 10.285 2.763 15h-123.763v-120zm-76 210h-210c-17.776 0-33.034 10.444-40.34 25.444.807-3.367 1.346-6.833 1.346-10.444 0-24.814-20.186-45-45-45s-45 20.186-45 45 20.186 45 45 45c17.776 0 33.034-10.444 40.34-25.444-.808 3.367-1.346 6.833-1.346 10.444 0 5.284 1.082 10.285 2.763 15h-123.763v-120c6.736 0 464.807 0 452 0v120h-33.763c1.681-4.715 2.763-9.716 2.763-15 0-24.814-20.186-45-45-45zm42.237 210c1.681-4.715 2.763-9.716 2.763-15 0-24.814-20.186-45-45-45h-210c-17.776 0-33.034 10.444-40.34 25.444.807-3.367 1.346-6.833 1.346-10.444 0-24.814-20.186-45-45-45s-45 20.186-45 45 20.186 45 45 45c17.776 0 33.034-10.444 40.34-25.444-.808 3.367-1.346 6.833-1.346 10.444 0 5.284 1.082 10.285 2.763 15h-123.763v-120c6.736 0 464.807 0 452 0v120z"/></g></svg>