<?xml version="1.0" encoding="iso-8859-1"?>
<!-- Generator: Adobe Illustrator 19.0.0, SVG Export Plug-In . SVG Version: 6.00 Build 0)  -->
<svg version="1.1" id="Capa_1" xmlns="http://www.w3.org/2000/svg" xmlns:xlink="http://www.w3.org/1999/xlink" x="0px" y="0px"
	 viewBox="0 0 512 512" style="enable-background:new 0 0 512 512;" xml:space="preserve">
<g>
	<g>
		<g>
			<path d="M256,224c0-17.646-14.354-32-32-32h-32v64h32C241.646,256,256,241.646,256,224z"/>
			<path d="M444.862,109.779L338.221,3.138C336.29,1.201,333.621,0,330.667,0h-224C83.135,0,64,19.135,64,42.667v426.667
				C64,492.865,83.135,512,106.667,512h298.667C428.865,512,448,492.865,448,469.333v-352
				C448,114.379,446.799,111.71,444.862,109.779z M339.344,409.802c3.427,4.792,2.313,11.458-2.479,14.875
				c-1.875,1.344-4.042,1.99-6.188,1.99c-3.333,0-6.604-1.552-8.688-4.469l-32.051-44.871l-36.272,45.34
				c-2.115,2.625-5.208,4-8.344,4c-2.333,0-4.688-0.76-6.656-2.333c-4.594-3.688-5.344-10.396-1.667-15l40.046-50.057
				l-58.531-81.943H192v53.333c0,5.896-4.771,10.667-10.667,10.667c-5.896,0-10.667-4.771-10.667-10.667V181.333
				c0-5.896,4.771-10.667,10.667-10.667H224c29.406,0,53.333,23.927,53.333,53.333c0,22.961-14.668,42.404-35.061,49.902
				l48.62,68.066l31.441-39.302c3.698-4.583,10.396-5.333,15-1.667c4.594,3.688,5.344,10.396,1.667,15l-35.215,44.02
				L339.344,409.802z M362.667,106.667c-11.76,0-21.333-9.573-21.333-21.333V36.417l70.25,70.25H362.667z"/>
		</g>
	</g>
</g>
<g>
</g>
<g>
</g>
<g>
</g>
<g>
</g>
<g>
</g>
<g>
</g>
<g>
</g>
<g>
</g>
<g>
</g>
<g>
</g>
<g>
</g>
<g>
</g>
<g>
</g>
<g>
</g>
<g>
</g>
</svg>
