<svg id="_x33_0" enable-background="new 0 0 64 64" height="512" viewBox="0 0 64 64" width="512" xmlns="http://www.w3.org/2000/svg"><g><path d="m28 11h-2.499c-2.405 0-4.808-.296-7.141-.879-.321-.08-.651-.121-.982-.121-.76 0-1.378.618-1.378 1.378v4.622c0 3.309 2.707 6 6.034 6h.176c3.193 0 5.79-2.597 5.79-5.79zm-9 2c.552 0 1 .448 1 1s-.448 1-1 1-1-.448-1-1 .448-1 1-1zm6.789 4.658c-.722 1.445-2.174 2.342-3.789 2.342s-3.067-.897-3.789-2.342l-.105-.211 1.789-.895.105.212c.381.762 1.147 1.236 2 1.236s1.619-.474 2-1.236l.105-.211 1.789.895zm-.789-2.658c-.552 0-1-.448-1-1s.448-1 1-1 1 .448 1 1-.448 1-1 1z"/><path d="m18 59h28v2h-28z"/><path d="m5 34.624c0-4.909 3.514-9.057 8.356-9.864l3.833-.639.371-1.484c-1.569-1.052-2.749-2.637-3.268-4.496l-.409-.245c-2.395-1.437-3.883-4.065-3.883-6.859 0-.012.002-.024.002-.037h-6.002c-.551 0-1 .449-1 1v29h2z"/><path d="m19 55c-.551 0-1 .449-1 1v1h7v-2z"/><path d="m24.923 24.813-.3-1.2c-.761.249-1.571.387-2.413.387h-.176c-.925 0-1.814-.157-2.642-.445l-.315 1.258 2.923 4.384z"/><path d="m26.473 26.093-3.473 5.21v9.697h14v-6.376c0-3.691-2.485-6.844-6-7.745v7.399c.595.346 1 .984 1 1.723 0 1.105-.895 2-2 2s-2-.895-2-2c0-.738.405-1.376 1-1.723v-7.764z"/><path d="m60 3h-20c-.551 0-1 .449-1 1v20.667c0 .289.428.431.6.201l2.9-3.868h17.5c.551 0 1-.449 1-1v-16c0-.551-.449-1-1-1zm-4 10c0 .55-.45 1-1 1h-3v3c0 .55-.45 1-1 1h-2c-.55 0-1-.45-1-1v-3h-3c-.55 0-1-.45-1-1v-2c0-.55.45-1 1-1h3v-3c0-.55.45-1 1-1h2c.55 0 1 .45 1 1v3h3c.55 0 1 .45 1 1z"/><path d="m13 32.101v-5.222c-3.515.901-6 4.054-6 7.745v6.376h14v-9.697l-3.473-5.21-2.527.421v5.587c2.279.465 4 2.484 4 4.899v2h-2v-2c0-1.654-1.346-3-3-3s-3 1.346-3 3v2h-2v-2c0-2.414 1.721-4.434 4-4.899z"/><path d="m27 51h10v6h-10z"/><path d="m14 11.378c0-1.862 1.516-3.378 3.378-3.378.494 0 .987.061 1.467.181 2.176.543 4.415.819 6.656.819h3.4c2.375-.475 4.099-2.578 4.099-5 0-.551-.449-1-1-1h-12c-4.411 0-8 3.589-8 8 0 1.743.746 3.378 2 4.507z"/><path d="m41.2 26.067c-.438.584-1.136.933-1.867.933-1.286 0-2.333-1.047-2.333-2.333v-13.667h-3c0 2.831-1.488 5.459-3.884 6.896l-.361.216c-.485 1.92-1.678 3.559-3.292 4.616l.348 1.393 3.833.639c4.842.807 8.356 4.955 8.356 9.864v6.376h20v-18h-15.5zm10.8-.067h4v4h-4zm0 8h4v4h-4zm-8-8h4v4h-4zm0 8h4v4h-4z"/><path d="m45 55h-6v2h7v-1c0-.551-.449-1-1-1z"/><path d="m3 48c0 .551.449 1 1 1h54c.551 0 1-.449 1-1v-5h-56zm32-3h2v2h-2zm-8 0h6v2h-6z"/><path d="m30 15.49c1.249-1.127 2-2.745 2-4.454 0-.408-.034-.804-.09-1.193-.58.399-1.218.723-1.91.938z"/></g></svg>