<?xml version="1.0" encoding="iso-8859-1"?>
<!-- Generator: Adobe Illustrator 19.0.0, SVG Export Plug-In . SVG Version: 6.00 Build 0)  -->
<svg version="1.1" id="Capa_1" xmlns="http://www.w3.org/2000/svg" xmlns:xlink="http://www.w3.org/1999/xlink" x="0px" y="0px"
	 viewBox="0 0 512 512" style="enable-background:new 0 0 512 512;" xml:space="preserve">
<g>
	<g>
		<polygon points="482,286 482,401 302,401 302,431 482,431 482,512 512,512 512,286 		"/>
	</g>
</g>
<g>
	<g>
		<path d="M402,331H302v40h148.994C446.348,348.205,426.146,331,402,331z"/>
	</g>
</g>
<g>
	<g>
		<path d="M227,0H45C20.187,0,0,20.187,0,45v412h272V45C272,20.187,251.813,0,227,0z M111,407H81V153h30V407z M191,407h-30V153h30
			V407z M242,86.832c-17.87,9.789-40.414,8.506-57.048-3.868L176,76.306l-8.952,6.659c-18.57,13.813-43.525,13.813-62.096,0
			L96,76.306l-8.952,6.659C70.414,95.338,47.87,96.621,30,86.832V45c0-8.271,6.729-15,15-15h182c8.271,0,15,6.729,15,15V86.832z"/>
	</g>
</g>
<g>
	<g>
		<rect y="487" width="30" height="25"/>
	</g>
</g>
<g>
	<g>
		<rect x="242" y="487" width="30" height="25"/>
	</g>
</g>
<g>
</g>
<g>
</g>
<g>
</g>
<g>
</g>
<g>
</g>
<g>
</g>
<g>
</g>
<g>
</g>
<g>
</g>
<g>
</g>
<g>
</g>
<g>
</g>
<g>
</g>
<g>
</g>
<g>
</g>
</svg>
